<?xml version="1.0" standalone="no"?>
<!DOCTYPE svg PUBLIC "-//W3C//DTD SVG 20010904//EN"
 "http://www.w3.org/TR/2001/REC-SVG-20010904/DTD/svg10.dtd">
<svg version="1.0" xmlns="http://www.w3.org/2000/svg"
 width="700.000000pt" height="700.000000pt" viewBox="0 0 700.000000 700.000000"
 preserveAspectRatio="xMidYMid meet">
<metadata>
Created by potrace 1.11, written by Peter Selinger 2001-2013
</metadata>
<g transform="translate(0.000000,700.000000) scale(0.100000,-0.100000)"
fill="#000000" stroke="none">
<path d="M2275 5186 l-1214 -1214 -78 -11 c-93 -14 -96 -14 -243 -40 -472 -84
-717 -189 -726 -310 -5 -77 69 -141 238 -204 59 -23 190 -62 236 -72 9 -2 89
-18 177 -36 l160 -33 1333 -1333 c733 -733 1337 -1333 1342 -1333 5 0 610 601
1344 1335 734 734 1338 1335 1343 1336 17 1 83 14 178 33 402 83 600 173 621
281 23 124 -190 230 -636 319 -130 26 -168 33 -235 42 -55 7 -97 14 -115 19
-8 2 -25 4 -37 4 -15 1 -390 369 -1237 1216 -668 668 -1220 1215 -1226 1215
-6 0 -558 -546 -1225 -1214z m-1486 -1486 c-144 -145 -187 -194 -182 -207 4
-10 34 -44 66 -76 l60 -59 -44 7 c-24 4 -108 22 -186 41 -212 51 -373 117
-408 167 -20 28 -19 30 10 66 64 75 321 156 715 226 74 13 140 24 146 24 7 1
-73 -84 -177 -189z m5316 176 c17 -3 46 -7 65 -10 214 -31 506 -106 626 -162
146 -68 156 -119 38 -183 -99 -54 -383 -138 -523 -156 l-43 -5 66 65 c47 47
63 71 59 83 -4 9 -85 95 -180 190 -95 95 -173 177 -173 183 0 6 8 8 18 5 9 -2
31 -7 47 -10z"/>
</g>
</svg>
