<?xml version="1.0" encoding="utf-8"?>
<!-- Generator: Adobe Illustrator 17.0.0, SVG Export Plug-In . SVG Version: 6.00 Build 0)  -->
<!DOCTYPE svg PUBLIC "-//W3C//DTD SVG 1.1//EN" "http://www.w3.org/Graphics/SVG/1.1/DTD/svg11.dtd">
<svg version="1.1" id="Layer_1" xmlns="http://www.w3.org/2000/svg" xmlns:xlink="http://www.w3.org/1999/xlink" x="0px" y="0px"
	 width="400px" height="134px" viewBox="0 0 400 134" enable-background="new 0 0 400 134" xml:space="preserve">
<g>
	<path fill="#FFFFFF" d="M95.847,65.221v-6.8h14.34v16.013c-1.445,1.7-3.492,3.163-6.142,4.387
		c-2.651,1.224-5.311,1.837-7.979,1.837c-3.254,0-6.124-0.799-8.61-2.399c-2.486-1.599-4.456-3.994-5.909-7.184
		c-1.453-3.189-2.18-6.941-2.18-11.256c0-4.423,0.735-8.207,2.207-11.351c1.471-3.144,3.381-5.492,5.731-7.047
		c2.349-1.554,5.159-2.331,8.431-2.331c3.93,0,7.078,1.001,9.446,3.002c2.367,2.002,3.888,4.94,4.565,8.815l-6.581,1.508
		c-0.494-2.065-1.398-3.647-2.714-4.743c-1.316-1.097-2.888-1.645-4.716-1.645c-2.834,0-5.127,1.102-6.882,3.304
		c-1.755,2.203-2.632,5.562-2.632,10.076c0,4.845,0.95,8.527,2.852,11.05c1.626,2.175,3.829,3.263,6.608,3.263
		c1.297,0,2.646-0.305,4.044-0.916c1.398-0.61,2.646-1.444,3.743-2.501v-5.083H95.847z"/>
	<path fill="#FFFFFF" d="M123.155,79.973V39.777h24.458v6.8H129.79v8.911h16.561v6.772H129.79v10.913h18.426v6.8H123.155z"/>
	<path fill="#FFFFFF" d="M159.291,60.121c0-4.789,0.708-8.733,2.125-11.831c1.416-3.098,3.267-5.406,5.552-6.923
		c2.284-1.517,5.054-2.276,8.308-2.276c4.716,0,8.559,1.801,11.53,5.402c2.97,3.601,4.456,8.729,4.456,15.382
		c0,6.727-1.572,11.982-4.716,15.766c-2.761,3.345-6.508,5.018-11.242,5.018c-4.771,0-8.537-1.654-11.297-4.963
		C160.863,71.912,159.291,66.721,159.291,60.121z M166.146,59.847c0,4.625,0.879,8.094,2.636,10.406
		c1.758,2.313,3.936,3.469,6.536,3.469c2.618,0,4.788-1.147,6.508-3.441c1.72-2.294,2.581-5.817,2.581-10.57
		c0-4.661-0.838-8.107-2.512-10.337c-1.675-2.23-3.868-3.345-6.577-3.345s-4.915,1.124-6.618,3.373
		C166.998,51.649,166.146,55.131,166.146,59.847z"/>
	<path fill="#FFFFFF" d="M203.187,79.973V39.777h9.952l5.992,27.446l5.946-27.446h9.999v40.196h-6.197V48.304l-6.57,31.669h-6.402
		l-6.522-31.669v31.669H203.187z"/>
	<path fill="#FFFFFF" d="M251.173,79.973V39.777h24.458v6.8h-17.822v8.911h16.561v6.772h-16.561v10.913h18.426v6.8H251.173z"/>
	<path fill="#FFFFFF" d="M297.443,79.973V46.576h-9.789v-6.8h26.185v6.8h-9.761v33.396H297.443z"/>
	<path fill="#FFFFFF" d="M323.611,79.973V39.777h14.011c3.582,0,6.142,0.361,7.677,1.083c1.535,0.722,2.797,1.974,3.784,3.756
		c0.987,1.782,1.481,3.917,1.481,6.402c0,3.145-0.753,5.676-2.263,7.595c-1.507,1.919-3.651,3.126-6.429,3.619
		c1.426,1.024,2.605,2.144,3.537,3.359c0.932,1.216,2.202,3.396,3.811,6.539l4.003,7.842h-7.939l-4.817-8.747
		c-1.733-3.162-2.911-5.141-3.531-5.936c-0.622-0.795-1.28-1.344-1.974-1.645c-0.696-0.302-1.81-0.452-3.345-0.452h-1.371v16.78
		H323.611z M330.246,56.776h4.935c3.016,0,4.935-0.132,5.758-0.398c0.823-0.265,1.489-0.799,2.002-1.604
		c0.511-0.804,0.768-1.873,0.768-3.208c0-1.279-0.257-2.308-0.768-3.085c-0.512-0.776-1.206-1.311-2.084-1.604
		c-0.622-0.201-2.423-0.302-5.402-0.302h-5.21V56.776z"/>
	<path fill="#FFFFFF" d="M369.245,79.973V63.049l-12.064-23.273h7.787l7.744,15.895l7.638-15.895H388l-12.119,23.328v16.868H369.245
		z"/>
</g>
<rect x="127.587" y="39.776" fill="#1B1D22" width="2.266" height="40.196"/>
<polygon fill="#1B1D22" points="380.091,39.776 388,39.777 386.823,42.042 379.261,42.042 "/>
<rect x="297.444" y="46.668" fill="#1B1D22" width="6.635" height="2.266"/>
<rect x="323.611" y="46.668" fill="#1B1D22" width="6.705" height="2.266"/>
<polygon fill="#1B1D22" points="215.439,77.707 222.779,77.707 222.308,79.973 215.906,79.973 "/>
<rect x="174.144" y="39.091" fill="#1B1D22" width="2.266" height="6.937"/>
<rect x="174.144" y="73.668" fill="#1B1D22" width="2.266" height="6.99"/>
<rect x="94.729" y="58.186" fill="#1B1D22" width="2.266" height="7.035"/>
<g>
	
		<rect x="18.649" y="36.084" transform="matrix(0.7071 0.7071 -0.7071 0.7071 52.5561 -11.5561)" fill="#FFFFFF" stroke="#1B1D22" stroke-linecap="round" stroke-linejoin="round" stroke-miterlimit="10" width="43.157" height="43.156"/>
	<polygon fill="#FFFFFF" stroke="#1B1D22" stroke-linecap="round" stroke-linejoin="round" stroke-miterlimit="10" points="
		40.227,88.179 16.351,57.662 40.227,27.146 64.104,57.662 	"/>
	<polygon fill="#FFFFFF" stroke="#1B1D22" stroke-linecap="round" stroke-linejoin="round" stroke-miterlimit="10" points="
		40.227,88.179 22.99,57.662 40.227,27.146 57.464,57.662 	"/>
	<polygon fill="#FFFFFF" stroke="#1B1D22" stroke-linecap="round" stroke-linejoin="round" stroke-miterlimit="10" points="
		40.227,88.179 29.629,57.662 40.227,27.146 50.825,57.662 	"/>
	<polygon fill="#FFFFFF" stroke="#1B1D22" stroke-linecap="round" stroke-linejoin="round" stroke-miterlimit="10" points="
		40.227,88.179 36.269,57.662 40.227,27.146 44.186,57.662 	"/>
	<path fill="none" stroke="#1B1D22" stroke-linecap="round" stroke-linejoin="round" stroke-miterlimit="10" d="M66.059,52.978
		c6.8,0.914,11.018,2.185,11.018,3.591c0,2.781-16.498,5.035-36.849,5.035c-20.351,0-36.849-2.254-36.849-5.035
		c0-1.39,4.124-2.649,10.792-3.56"/>
</g>
</svg>
