<?xml version="1.0" encoding="utf-8"?>
<!-- Generator: Adobe Illustrator 17.0.0, SVG Export Plug-In . SVG Version: 6.00 Build 0)  -->
<!DOCTYPE svg PUBLIC "-//W3C//DTD SVG 1.1//EN" "http://www.w3.org/Graphics/SVG/1.1/DTD/svg11.dtd">
<svg version="1.1" id="Layer_1" xmlns="http://www.w3.org/2000/svg" xmlns:xlink="http://www.w3.org/1999/xlink" x="0px" y="0px"
	 width="511px" height="179.5px" viewBox="0 -5.5 511 179.5" enable-background="new 0 -5.5 511 179.5" xml:space="preserve">
<g>
	<path fill="#1B1D22" d="M199.17,94.342v-6.804h14.349v16.022c-1.445,1.701-3.494,3.164-6.146,4.39
		c-2.653,1.225-5.314,1.838-7.984,1.838c-3.256,0-6.128-0.8-8.615-2.401c-2.488-1.6-4.458-3.996-5.912-7.188
		c-1.454-3.191-2.181-6.946-2.181-11.262c0-4.426,0.736-8.212,2.209-11.358c1.472-3.146,3.383-5.496,5.734-7.051
		c2.35-1.554,5.162-2.332,8.436-2.332c3.932,0,7.083,1.001,9.452,3.004c2.368,2.003,3.891,4.943,4.568,8.821l-6.585,1.509
		c-0.494-2.066-1.399-3.649-2.716-4.746c-1.317-1.097-2.89-1.646-4.719-1.646c-2.835,0-5.13,1.102-6.886,3.306
		c-1.756,2.204-2.634,5.565-2.634,10.083c0,4.847,0.951,8.532,2.853,11.057c1.627,2.177,3.832,3.265,6.612,3.265
		c1.298,0,2.648-0.305,4.047-0.916c1.399-0.61,2.648-1.445,3.745-2.502v-5.086H199.17z"/>
	<path fill="#1B1D22" d="M226.494,109.103V68.882h24.473v6.804h-17.833v8.917h16.571v6.777h-16.571v10.919h18.437v6.804H226.494z"/>
	<path fill="#1B1D22" d="M262.653,89.239c0-4.792,0.708-8.738,2.126-11.838c1.417-3.1,3.269-5.409,5.556-6.927
		c2.286-1.518,5.057-2.277,8.313-2.277c4.719,0,8.564,1.802,11.537,5.405c2.972,3.603,4.458,8.734,4.458,15.391
		c0,6.731-1.573,11.989-4.719,15.775c-2.762,3.347-6.512,5.021-11.249,5.021c-4.774,0-8.542-1.655-11.303-4.966
		C264.225,101.037,262.653,95.843,262.653,89.239z M269.512,88.965c0,4.628,0.879,8.099,2.637,10.412
		c1.759,2.314,3.938,3.471,6.54,3.471c2.619,0,4.79-1.147,6.512-3.443c1.721-2.295,2.583-5.821,2.583-10.576
		c0-4.664-0.838-8.112-2.514-10.343c-1.676-2.231-3.87-3.347-6.581-3.347c-2.711,0-4.918,1.125-6.622,3.375
		C270.363,80.762,269.512,84.246,269.512,88.965z"/>
	<path fill="#1B1D22" d="M306.575,109.103V68.882h9.958l5.996,27.463l5.949-27.463h10.005v40.221h-6.2V77.415l-6.574,31.688h-6.406
		l-6.526-31.688v31.688H306.575z"/>
	<path fill="#1B1D22" d="M354.59,109.103V68.882h24.473v6.804H361.23v8.917h16.571v6.777H361.23v10.919h18.437v6.804H354.59z"/>
	<path fill="#1B1D22" d="M400.889,109.103V75.686h-9.795v-6.804h26.201v6.804h-9.767v33.417H400.889z"/>
	<path fill="#1B1D22" d="M427.072,109.103V68.882h14.02c3.584,0,6.146,0.362,7.682,1.084c1.536,0.723,2.798,1.975,3.786,3.759
		c0.988,1.783,1.482,3.919,1.482,6.406c0,3.146-0.754,5.679-2.264,7.6c-1.508,1.92-3.653,3.128-6.433,3.621
		c1.427,1.025,2.606,2.145,3.539,3.361c0.933,1.217,2.203,3.398,3.814,6.543l4.006,7.847h-7.943l-4.82-8.752
		c-1.734-3.164-2.913-5.144-3.533-5.94c-0.622-0.796-1.281-1.344-1.975-1.646c-0.696-0.302-1.811-0.453-3.347-0.453h-1.372v16.791
		H427.072z M433.711,85.892h4.938c3.018,0,4.938-0.132,5.761-0.398c0.823-0.265,1.49-0.8,2.003-1.605
		c0.511-0.804,0.768-1.874,0.768-3.21c0-1.28-0.257-2.309-0.768-3.087c-0.513-0.777-1.207-1.312-2.085-1.605
		c-0.622-0.201-2.424-0.302-5.405-0.302h-5.213V85.892z"/>
	<path fill="#1B1D22" d="M472.734,109.103V92.169l-12.072-23.287h7.792l7.748,15.905l7.643-15.905h7.655l-12.127,23.342v16.879
		H472.734z"/>
	<path fill="#1B1D22" d="M306.575,170.212v-40.221h9.958l5.996,27.463l5.949-27.463h10.005v40.221h-6.2v-31.688l-6.574,31.688
		h-6.406l-6.526-31.688v31.688H306.575z"/>
	<path fill="#1B1D22" d="M400.902,42.603V9.186h-9.795V2.382h26.201v6.804h-9.767v33.417H400.902z"/>
</g>
<rect x="230.929" y="68.882" fill="#FFFFFF" width="2.267" height="40.221"/>
<polygon fill="#FFFFFF" points="482.115,71.882 490.5,71.882 489.252,74.149 481.236,74.149 "/>
<rect x="400.889" y="75.778" fill="#FFFFFF" width="6.639" height="2.267"/>
<rect x="427.072" y="75.778" fill="#FFFFFF" width="6.709" height="2.267"/>
<polygon fill="#FFFFFF" points="318.835,109.835 326.178,109.835 325.708,112.103 319.302,112.103 "/>
<rect x="277.514" y="68.196" fill="#FFFFFF" width="2.267" height="6.941"/>
<rect x="277.514" y="102.794" fill="#FFFFFF" width="2.267" height="6.994"/>
<rect x="139.79" y="88.839" fill="#FFFFFF" width="2.718" height="8.437"/>
<g>
	
		<rect x="33.033" y="50.747" transform="matrix(0.7071 0.7071 -0.7071 0.7071 83.2246 -24.0958)" fill="#FFFFFF" stroke="#1B1D22" stroke-linecap="round" stroke-linejoin="round" stroke-miterlimit="10" width="75.33" height="75.33"/>
	<polygon fill="#FFFFFF" stroke="#1B1D22" stroke-linecap="round" stroke-linejoin="round" stroke-miterlimit="10" points="
		70.698,141.679 29.021,88.412 70.698,35.146 112.375,88.412 	"/>
	<polygon fill="#FFFFFF" stroke="#1B1D22" stroke-linecap="round" stroke-linejoin="round" stroke-miterlimit="10" points="
		70.698,141.679 40.61,88.412 70.698,35.146 100.785,88.412 	"/>
	<polygon fill="#FFFFFF" stroke="#1B1D22" stroke-linecap="round" stroke-linejoin="round" stroke-miterlimit="10" points="
		70.698,141.679 52.2,88.412 70.698,35.146 89.197,88.412 	"/>
	<polygon fill="#FFFFFF" stroke="#1B1D22" stroke-linecap="round" stroke-linejoin="round" stroke-miterlimit="10" points="
		70.698,141.679 63.789,88.412 70.698,35.146 77.608,88.412 	"/>
	<path fill="none" stroke="#1B1D22" stroke-linecap="round" stroke-linejoin="round" stroke-miterlimit="10" d="M115.787,80.235
		c11.87,1.595,19.231,3.814,19.231,6.267c0,4.854-28.797,8.789-64.32,8.789c-35.523,0-64.32-3.935-64.32-8.789
		c0-2.427,7.199-4.624,18.838-6.214"/>
</g>
<rect x="371.25" y="4.111" fill="#1B1D22" width="4" height="4"/>
<rect x="371.25" y="37.146" fill="#1B1D22" width="4" height="4"/>
</svg>
