<?xml version="1.0" encoding="utf-8"?>
<!-- Generator: Adobe Illustrator 17.0.0, SVG Export Plug-In . SVG Version: 6.00 Build 0)  -->
<!DOCTYPE svg PUBLIC "-//W3C//DTD SVG 1.1//EN" "http://www.w3.org/Graphics/SVG/1.1/DTD/svg11.dtd">
<svg version="1.1" id="Layer_1" xmlns="http://www.w3.org/2000/svg" xmlns:xlink="http://www.w3.org/1999/xlink" x="0px" y="0px"
	 width="594.5px" height="167.5px" viewBox="0 -19.5 594.5 167.5" enable-background="new 0 -19.5 594.5 167.5"
	 xml:space="preserve">
<g>
	<path fill="#FFFFFF" d="M252.17,63.866v-6.8h14.34v16.013c-1.445,1.7-3.492,3.163-6.142,4.387
		c-2.651,1.224-5.311,1.837-7.979,1.837c-3.254,0-6.124-0.799-8.61-2.399c-2.486-1.599-4.456-3.994-5.909-7.184
		c-1.453-3.189-2.18-6.941-2.18-11.256c0-4.423,0.735-8.207,2.207-11.351c1.471-3.144,3.381-5.492,5.731-7.047
		c2.349-1.554,5.159-2.331,8.431-2.331c3.93,0,7.078,1.001,9.446,3.002c2.367,2.002,3.888,4.94,4.565,8.815l-6.581,1.508
		c-0.494-2.065-1.398-3.647-2.714-4.743c-1.316-1.097-2.888-1.645-4.716-1.645c-2.834,0-5.127,1.102-6.882,3.304
		c-1.755,2.203-2.632,5.562-2.632,10.076c0,4.845,0.95,8.527,2.852,11.05c1.626,2.175,3.829,3.263,6.608,3.263
		c1.297,0,2.646-0.305,4.044-0.916c1.398-0.61,2.646-1.444,3.743-2.501v-5.083H252.17z"/>
	<path fill="#FFFFFF" d="M279.477,78.618V38.422h24.458v6.8h-17.822v8.911h16.561v6.772h-16.561v10.913h18.426v6.8H279.477z"/>
	<path fill="#FFFFFF" d="M315.613,58.766c0-4.789,0.708-8.733,2.125-11.831c1.416-3.098,3.267-5.406,5.552-6.923
		c2.284-1.517,5.054-2.276,8.308-2.276c4.716,0,8.559,1.801,11.53,5.402c2.97,3.601,4.456,8.729,4.456,15.382
		c0,6.727-1.572,11.982-4.716,15.766c-2.761,3.345-6.508,5.018-11.242,5.018c-4.771,0-8.537-1.654-11.297-4.963
		C317.185,70.557,315.613,65.366,315.613,58.766z M322.468,58.492c0,4.625,0.879,8.094,2.636,10.406
		c1.758,2.313,3.936,3.469,6.536,3.469c2.618,0,4.788-1.147,6.508-3.441c1.72-2.294,2.581-5.817,2.581-10.57
		c0-4.661-0.838-8.107-2.512-10.337c-1.675-2.23-3.868-3.345-6.577-3.345s-4.915,1.124-6.618,3.373
		C323.32,50.294,322.468,53.776,322.468,58.492z"/>
	<path fill="#FFFFFF" d="M359.509,78.618V38.422h9.952l5.992,27.446l5.946-27.446h9.999v40.196h-6.197V46.949l-6.57,31.669h-6.402
		l-6.522-31.669v31.669H359.509z"/>
	<path fill="#FFFFFF" d="M407.496,78.618V38.422h24.458v6.8h-17.822v8.911h16.561v6.772h-16.561v10.913h18.426v6.8H407.496z"/>
	<path fill="#FFFFFF" d="M453.766,78.618V45.221h-9.789v-6.8h26.185v6.8h-9.761v33.396H453.766z"/>
	<path fill="#FFFFFF" d="M479.933,78.618V38.422h14.011c3.582,0,6.142,0.361,7.677,1.083c1.535,0.722,2.797,1.974,3.784,3.756
		c0.987,1.782,1.481,3.917,1.481,6.402c0,3.145-0.753,5.676-2.263,7.595c-1.507,1.919-3.651,3.126-6.429,3.619
		c1.426,1.024,2.605,2.144,3.537,3.359c0.932,1.216,2.202,3.396,3.811,6.539l4.003,7.842h-7.939l-4.817-8.747
		c-1.733-3.162-2.911-5.141-3.531-5.936c-0.622-0.795-1.28-1.344-1.974-1.645c-0.696-0.302-1.81-0.452-3.345-0.452h-1.371v16.78
		H479.933z M486.568,55.421h4.935c3.016,0,4.935-0.132,5.758-0.398c0.823-0.265,1.489-0.799,2.002-1.604
		c0.511-0.804,0.768-1.873,0.768-3.208c0-1.279-0.257-2.308-0.768-3.085c-0.512-0.776-1.206-1.311-2.084-1.604
		c-0.622-0.201-2.423-0.302-5.402-0.302h-5.21V55.421z"/>
	<path fill="#FFFFFF" d="M525.568,78.618V61.695l-12.064-23.273h7.787l7.744,15.895l7.638-15.895h7.65l-12.119,23.328v16.868
		H525.568z"/>
	<path fill="#FFFFFF" d="M359.487,143.302v-40.196h9.952l5.992,27.446l5.946-27.446h9.999v40.196h-6.197v-31.669l-6.57,31.669
		h-6.402l-6.522-31.669v31.669H359.487z"/>
	<path fill="#FFFFFF" d="M453.779,24.118V-9.279h-9.789v-6.8h26.185v6.8h-9.761v33.396H453.779z"/>
</g>
<rect x="283.909" y="38.422" fill="#1B1D22" width="2.266" height="40.196"/>
<polygon fill="#1B1D22" points="536.413,38.421 544.322,38.422 543.145,40.687 535.583,40.687 "/>
<rect x="453.766" y="45.313" fill="#1B1D22" width="6.635" height="2.266"/>
<rect x="479.933" y="45.313" fill="#1B1D22" width="6.705" height="2.266"/>
<polygon fill="#1B1D22" points="371.762,76.352 379.101,76.352 378.631,78.618 372.228,78.618 "/>
<rect x="330.466" y="37.736" fill="#1B1D22" width="2.266" height="6.937"/>
<rect x="330.466" y="72.313" fill="#1B1D22" width="2.266" height="6.99"/>
<rect x="251.052" y="56.831" fill="#1B1D22" width="2.266" height="7.035"/>
<g>
	
		<rect x="40.302" y="9.835" transform="matrix(0.7071 0.7071 -0.7071 0.7071 70.9344 -47.2292)" fill="#FFFFFF" stroke="#1B1D22" stroke-linecap="round" stroke-linejoin="round" stroke-miterlimit="10" width="104.351" height="104.35"/>
	<polygon fill="#FFFFFF" stroke="#1B1D22" stroke-linecap="round" stroke-linejoin="round" stroke-miterlimit="10" points="
		92.477,135.797 34.744,62.009 92.477,-11.777 150.21,62.009 	"/>
	<polygon fill="#FFFFFF" stroke="#1B1D22" stroke-linecap="round" stroke-linejoin="round" stroke-miterlimit="10" points="
		92.477,135.797 50.798,62.009 92.477,-11.777 134.156,62.009 	"/>
	<polygon fill="#FFFFFF" stroke="#1B1D22" stroke-linecap="round" stroke-linejoin="round" stroke-miterlimit="10" points="
		92.477,135.797 66.852,62.009 92.477,-11.777 118.102,62.009 	"/>
	<polygon fill="#FFFFFF" stroke="#1B1D22" stroke-linecap="round" stroke-linejoin="round" stroke-miterlimit="10" points="
		92.477,135.797 82.906,62.009 92.477,-11.777 102.049,62.009 	"/>
	<path fill="none" stroke="#1B1D22" stroke-linecap="round" stroke-linejoin="round" stroke-miterlimit="10" d="M154.936,50.683
		c16.443,2.21,26.64,5.283,26.64,8.682c0,6.724-39.89,12.175-89.099,12.175c-49.209,0-89.099-5.451-89.099-12.175
		c0-3.362,9.972-6.405,26.095-8.608"/>
</g>
<rect x="427.557" y="-13.854" fill="#FFFFFF" width="4" height="4"/>
<rect x="427.557" y="19.181" fill="#FFFFFF" width="4" height="4"/>
</svg>
