<?xml version="1.0" encoding="utf-8"?>
<!-- Generator: Adobe Illustrator 18.1.1, SVG Export Plug-In . SVG Version: 6.00 Build 0)  -->
<svg version="1.1" id="Layer_1" xmlns="http://www.w3.org/2000/svg" xmlns:xlink="http://www.w3.org/1999/xlink" x="0px" y="0px"
	 viewBox="0 0 575.6 67.8" enable-background="new 0 0 575.6 67.8" xml:space="preserve">
<rect x="-1310.1" y="-143.5" width="67.8" height="67.8"/>
<text transform="matrix(1 0 0 1 -2780.0845 522.2282)"><tspan x="0" y="0" font-family="'AvenirNext-Medium'" font-size="37.896">Avenir Next Medium</tspan><tspan x="0" y="37.2" font-family="'AvenirNext-Regular'" font-size="31.0058">Avenir Next Regular</tspan><tspan x="0" y="75.1" font-family="'AvenirNext-Bold'" font-size="24.1156">Avenir Next Bold</tspan></text>
<text transform="matrix(1 0 0 1 -2780.084 460.3997)" font-family="'ProximaNova-Semibold'" font-size="37.896" letter-spacing="4">Proxima Nova SemiBold</text>
<g>
	<polygon points="-2525.8,11.8 -2550,11.8 -2540.6,28.1 -2642.5,28.1 -2579.5,-81.1 -2591.5,-102 -2678.8,49.1 -2504.3,49.1 	"/>
	<polygon points="-2622.1,16.5 -2597.9,16.5 -2572.6,-27.4 -2556.7,0.2 -2532.5,0.2 -2572.6,-69.2 	"/>
</g>
<g>
	<path d="M-2776.4,136.8v-27.8h4.7v23.4h12.7v4.5H-2776.4z"/>
	<path d="M-2745.9,130.4l-2.8,6.3h-5l12.3-27.8h5l12.3,27.8h-5l-2.8-6.3H-2745.9z M-2733.9,126.1l-5.1-11.5l-5.1,11.5H-2733.9z"/>
	<path d="M-2710.7,130.4c1.3,1.5,3,2.2,5.2,2.2c2.2,0,3.9-0.7,5.2-2.2c1.3-1.5,1.9-3.5,1.9-6.1v-15.4h4.7v15.6c0,4-1.1,7.1-3.3,9.3
		c-2.2,2.2-5,3.3-8.5,3.3c-3.5,0-6.3-1.1-8.5-3.3c-2.2-2.2-3.3-5.3-3.3-9.3v-15.6h4.7v15.4C-2712.6,126.9-2712,128.9-2710.7,130.4z"
		/>
	<path d="M-2661.5,108.9h4.7v27.8h-5.1l-15.8-20.3v20.3h-4.7v-27.8h4.7l16.2,20.8V108.9z"/>
	<path d="M-2632.4,132.5c1.6,0,3-0.3,4.2-0.8s2.4-1.4,3.7-2.6l3,3.1c-2.9,3.3-6.5,4.9-10.7,4.9c-4.2,0-7.7-1.4-10.5-4.1
		c-2.8-2.7-4.2-6.1-4.2-10.3s1.4-7.6,4.2-10.4c2.8-2.8,6.4-4.1,10.7-4.1c4.3,0,7.9,1.6,10.8,4.8l-3,3.3c-1.3-1.3-2.6-2.2-3.8-2.7
		c-1.2-0.5-2.6-0.8-4.2-0.8c-2.8,0-5.2,0.9-7.1,2.7c-1.9,1.8-2.9,4.1-2.9,7c0,2.8,0.9,5.2,2.8,7.1
		C-2637.3,131.5-2635,132.5-2632.4,132.5z"/>
	<path d="M-2611.8,136.8v-27.8h4.7V121h13.8v-12.1h4.7v27.8h-4.7v-11.4h-13.8v11.4H-2611.8z"/>
	<path d="M-2558.1,130.4l-2.8,6.3h-5l12.3-27.8h5l12.3,27.8h-5l-2.8-6.3H-2558.1z M-2546,126.1l-5.1-11.5l-5.1,11.5H-2546z"/>
	<path d="M-2509.2,123.2h4.7v9.5c-2.6,2.9-6.4,4.3-11.3,4.3c-4.1,0-7.6-1.4-10.3-4.1c-2.8-2.7-4.2-6.1-4.2-10.3s1.4-7.6,4.2-10.4
		c2.8-2.8,6.2-4.1,10.3-4.1s7.3,1.2,10,3.5l-2.5,3.6c-1.1-0.9-2.2-1.6-3.3-1.9c-1.1-0.4-2.4-0.5-3.8-0.5c-2.8,0-5.2,0.9-7.1,2.7
		c-1.9,1.8-2.9,4.2-2.9,7.2s0.9,5.3,2.8,7.1c1.9,1.8,4.1,2.7,6.8,2.7c2.6,0,4.9-0.6,6.6-1.7V123.2z"/>
	<path d="M-2474.8,108.9v4.4h-14.9v7.4h13.3v4.2h-13.3v7.4h15.3v4.4h-20v-27.8H-2474.8z"/>
	<path d="M-2443.4,108.9h4.7v27.8h-5.1l-15.8-20.3v20.3h-4.7v-27.8h4.7l16.2,20.8V108.9z"/>
	<path d="M-2416.5,113.2v23.5h-4.7v-23.5h-8.4v-4.3h21.6v4.3H-2416.5z"/>
</g>
<g>
	<g>
		<polygon fill="#FFFFFF" points="-1260.7,-101.6 -1266.4,-101.6 -1264.2,-97.7 -1288.2,-97.7 -1273.3,-123.5 -1276.2,-128.4 
			-1296.8,-92.8 -1255.6,-92.8 		"/>
		<polygon fill="#FFFFFF" points="-1283.4,-100.5 -1277.7,-100.5 -1271.7,-110.8 -1268,-104.3 -1262.3,-104.3 -1271.7,-120.7 		"/>
	</g>
</g>
<g>
	<path d="M-1194.2-93v-34.8h5.9v29.2h15.9v5.6H-1194.2z"/>
	<path d="M-1156.2-100.9l-3.5,7.9h-6.3l15.3-34.8h6.3l15.3,34.8h-6.3l-3.5-7.9H-1156.2z M-1141.2-106.3l-6.3-14.3l-6.3,14.3H-1141.2
		z"/>
	<path d="M-1112.3-101c1.6,1.9,3.7,2.8,6.5,2.8c2.7,0,4.9-0.9,6.5-2.8c1.6-1.9,2.4-4.4,2.4-7.6v-19.2h5.9v19.5c0,5-1.4,8.9-4.1,11.6
		c-2.8,2.7-6.3,4.1-10.6,4.1c-4.3,0-7.8-1.4-10.6-4.1c-2.8-2.7-4.1-6.6-4.1-11.6v-19.5h5.9v19.2
		C-1114.7-105.4-1113.9-102.8-1112.3-101z"/>
	<path d="M-1050.9-127.8h5.9V-93h-6.4l-19.7-25.4V-93h-5.9v-34.8h5.9l20.2,26V-127.8z"/>
	<path d="M-1014.5-98.3c2,0,3.8-0.3,5.2-1c1.5-0.7,3-1.8,4.6-3.3l3.8,3.9c-3.7,4.1-8.1,6.1-13.4,6.1c-5.3,0-9.6-1.7-13.1-5.1
		c-3.5-3.4-5.2-7.7-5.2-12.8c0-5.2,1.8-9.5,5.3-12.9c3.5-3.4,8-5.2,13.4-5.2c5.4,0,9.9,2,13.5,6l-3.7,4.1c-1.7-1.6-3.2-2.7-4.7-3.3
		c-1.5-0.6-3.2-0.9-5.2-0.9c-3.5,0-6.5,1.1-8.9,3.4c-2.4,2.3-3.6,5.2-3.6,8.7c0,3.5,1.2,6.5,3.6,8.9
		C-1020.6-99.5-1017.8-98.3-1014.5-98.3z"/>
	<path d="M-988.8-93v-34.8h5.9v15.1h17.3v-15.1h5.9V-93h-5.9v-14.2H-983V-93H-988.8z"/>
	<path d="M-921.7-100.9l-3.5,7.9h-6.3l15.3-34.8h6.3l15.3,34.8h-6.3l-3.5-7.9H-921.7z M-906.7-106.3l-6.3-14.3l-6.3,14.3H-906.7z"/>
	<path d="M-860.7-109.9h5.9V-98c-3.3,3.6-8,5.4-14.1,5.4c-5.1,0-9.4-1.7-12.9-5.1c-3.5-3.4-5.2-7.7-5.2-12.8c0-5.2,1.8-9.5,5.3-12.9
		c3.5-3.4,7.8-5.2,12.8-5.2s9.2,1.5,12.5,4.4l-3.1,4.5c-1.4-1.2-2.7-2-4.1-2.4c-1.4-0.4-3-0.7-4.8-0.7c-3.5,0-6.5,1.1-8.9,3.4
		c-2.4,2.3-3.6,5.3-3.6,9s1.2,6.7,3.5,8.9c2.3,2.2,5.1,3.4,8.4,3.4c3.3,0,6.1-0.7,8.3-2.1V-109.9z"/>
	<path d="M-817.7-127.8v5.5h-18.5v9.2h16.7v5.2h-16.7v9.3h19.1v5.5h-25v-34.8H-817.7z"/>
	<path d="M-778.6-127.8h5.9V-93h-6.4l-19.7-25.4V-93h-5.9v-34.8h5.9l20.2,26V-127.8z"/>
	<path d="M-745-122.4V-93h-5.9v-29.4h-10.5v-5.4h27v5.4H-745z"/>
</g>
<rect x="0" y="0" width="67.8" height="67.8"/>
<g>
	<g>
		<polygon fill="#FFFFFF" points="49.4,41.9 43.7,41.9 45.9,45.8 21.9,45.8 36.7,20 33.9,15.1 13.3,50.7 54.5,50.7 		"/>
		<polygon fill="#FFFFFF" points="26.7,43 32.4,43 38.3,32.7 42.1,39.2 47.8,39.2 38.3,22.8 		"/>
	</g>
</g>
<g>
	<path d="M115.8,50.5V15.7h5.9v29.2h15.9v5.6H115.8z"/>
	<path d="M153.9,42.6l-3.5,7.9h-6.3l15.3-34.8h6.3L181,50.5h-6.3l-3.5-7.9H153.9z M168.9,37.2l-6.3-14.3l-6.3,14.3H168.9z"/>
	<path d="M197.8,42.5c1.6,1.9,3.7,2.8,6.5,2.8c2.7,0,4.9-0.9,6.5-2.8c1.6-1.9,2.4-4.4,2.4-7.6V15.7h5.9v19.5c0,5-1.4,8.9-4.1,11.6
		c-2.8,2.7-6.3,4.1-10.6,4.1c-4.3,0-7.8-1.4-10.6-4.1c-2.8-2.7-4.1-6.6-4.1-11.6V15.7h5.9V35C195.4,38.2,196.2,40.7,197.8,42.5z"/>
	<path d="M259.2,15.7h5.9v34.8h-6.4L239,25.1v25.4h-5.9V15.7h5.9l20.2,26V15.7z"/>
	<path d="M295.5,45.2c2,0,3.8-0.3,5.2-1c1.5-0.7,3-1.8,4.6-3.3l3.8,3.9c-3.7,4.1-8.1,6.1-13.4,6.1c-5.3,0-9.6-1.7-13.1-5.1
		c-3.5-3.4-5.2-7.7-5.2-12.8s1.8-9.5,5.3-12.9c3.5-3.4,8-5.2,13.4-5.2c5.4,0,9.9,2,13.5,6l-3.7,4.1c-1.7-1.6-3.2-2.7-4.7-3.3
		c-1.5-0.6-3.2-0.9-5.2-0.9c-3.5,0-6.5,1.1-8.9,3.4c-2.4,2.3-3.6,5.2-3.6,8.7c0,3.5,1.2,6.5,3.6,8.9C289.5,44,292.3,45.2,295.5,45.2
		z"/>
	<path d="M321.2,50.5V15.7h5.9v15.1h17.3V15.7h5.9v34.8h-5.9V36.3h-17.3v14.2H321.2z"/>
	<path d="M388.4,42.6l-3.5,7.9h-6.3l15.3-34.8h6.3l15.3,34.8h-6.3l-3.5-7.9H388.4z M403.4,37.2l-6.3-14.3l-6.3,14.3H403.4z"/>
	<path d="M449.4,33.6h5.9v11.9c-3.3,3.6-8,5.4-14.1,5.4c-5.1,0-9.4-1.7-12.9-5.1c-3.5-3.4-5.2-7.7-5.2-12.8s1.8-9.5,5.3-12.9
		c3.5-3.4,7.8-5.2,12.8-5.2c5,0,9.2,1.5,12.5,4.4l-3.1,4.5c-1.4-1.2-2.7-2-4.1-2.4s-3-0.7-4.8-0.7c-3.5,0-6.5,1.1-8.9,3.4
		c-2.4,2.3-3.6,5.3-3.6,9s1.2,6.7,3.5,8.9c2.3,2.2,5.1,3.4,8.4,3.4s6.1-0.7,8.3-2.1V33.6z"/>
	<path d="M492.3,15.7v5.5h-18.5v9.2h16.7v5.2h-16.7V45h19.1v5.5h-25V15.7H492.3z"/>
	<path d="M531.5,15.7h5.9v34.8H531l-19.7-25.4v25.4h-5.9V15.7h5.9l20.2,26V15.7z"/>
	<path d="M565.1,21.1v29.4h-5.9V21.1h-10.5v-5.4h27v5.4H565.1z"/>
</g>
<rect x="-1336.6" y="301.5" width="660.9" height="122.3"/>
<rect x="-1336.6" y="47.7" fill="#00ADEE" width="660.9" height="122.3"/>
<g>
	<polygon fill="#FFFFFF" points="-1259.4,370.7 -1265.1,370.7 -1262.9,374.6 -1286.9,374.6 -1272.1,348.8 -1274.9,343.9 
		-1295.5,379.5 -1254.3,379.5 	"/>
	<polygon fill="#FFFFFF" points="-1282.1,371.8 -1276.4,371.8 -1270.4,361.5 -1266.7,368 -1261,368 -1270.4,351.6 	"/>
</g>
<g>
	<path fill="#FFFFFF" d="M-1200,379.3v-34.8h5.9v29.2h15.9v5.6H-1200z"/>
	<path fill="#FFFFFF" d="M-1161.9,371.4l-3.5,7.9h-6.3l15.3-34.8h6.3l15.3,34.8h-6.3l-3.5-7.9H-1161.9z M-1146.9,366l-6.3-14.3
		l-6.3,14.3H-1146.9z"/>
	<path fill="#FFFFFF" d="M-1118,371.3c1.6,1.9,3.7,2.8,6.5,2.8c2.7,0,4.9-0.9,6.5-2.8c1.6-1.9,2.4-4.4,2.4-7.6v-19.2h5.9V364
		c0,5-1.4,8.9-4.1,11.6c-2.8,2.7-6.3,4.1-10.6,4.1c-4.3,0-7.8-1.4-10.6-4.1c-2.8-2.7-4.1-6.6-4.1-11.6v-19.5h5.9v19.2
		C-1120.4,367-1119.6,369.5-1118,371.3z"/>
	<path fill="#FFFFFF" d="M-1056.6,344.5h5.9v34.8h-6.4l-19.7-25.4v25.4h-5.9v-34.8h5.9l20.2,26V344.5z"/>
	<path fill="#FFFFFF" d="M-1020.2,374c2,0,3.8-0.3,5.2-1c1.5-0.7,3-1.8,4.6-3.3l3.8,3.9c-3.7,4.1-8.1,6.1-13.4,6.1
		s-9.6-1.7-13.1-5.1c-3.5-3.4-5.2-7.7-5.2-12.8c0-5.2,1.8-9.5,5.3-12.9c3.5-3.4,8-5.2,13.4-5.2c5.4,0,9.9,2,13.5,6l-3.7,4.1
		c-1.7-1.6-3.2-2.7-4.7-3.3c-1.5-0.6-3.2-0.9-5.2-0.9c-3.5,0-6.5,1.1-8.9,3.4c-2.4,2.3-3.6,5.2-3.6,8.7c0,3.5,1.2,6.5,3.6,8.9
		C-1026.3,372.8-1023.5,374-1020.2,374z"/>
	<path fill="#FFFFFF" d="M-994.5,379.3v-34.8h5.9v15.1h17.3v-15.1h5.9v34.8h-5.9v-14.2h-17.3v14.2H-994.5z"/>
	<path fill="#FFFFFF" d="M-927.4,371.4l-3.5,7.9h-6.3l15.3-34.8h6.3l15.3,34.8h-6.3l-3.5-7.9H-927.4z M-912.4,366l-6.3-14.3
		L-925,366H-912.4z"/>
	<path fill="#FFFFFF" d="M-866.4,362.4h5.9v11.9c-3.3,3.6-8,5.4-14.1,5.4c-5.1,0-9.4-1.7-12.9-5.1c-3.5-3.4-5.2-7.7-5.2-12.8
		c0-5.2,1.8-9.5,5.3-12.9c3.5-3.4,7.8-5.2,12.8-5.2c5,0,9.2,1.5,12.5,4.4l-3.1,4.5c-1.4-1.2-2.7-2-4.1-2.4c-1.4-0.4-3-0.7-4.8-0.7
		c-3.5,0-6.5,1.1-8.9,3.4c-2.4,2.3-3.6,5.3-3.6,9c0,3.7,1.2,6.7,3.5,8.9c2.3,2.2,5.1,3.4,8.4,3.4s6.1-0.7,8.3-2.1V362.4z"/>
	<path fill="#FFFFFF" d="M-823.4,344.5v5.5H-842v9.2h16.7v5.2H-842v9.3h19.1v5.5h-25v-34.8H-823.4z"/>
	<path fill="#FFFFFF" d="M-784.3,344.5h5.9v34.8h-6.4l-19.7-25.4v25.4h-5.9v-34.8h5.9l20.2,26V344.5z"/>
	<path fill="#FFFFFF" d="M-750.7,349.9v29.4h-5.9v-29.4h-10.5v-5.4h27v5.4H-750.7z"/>
</g>
<g>
	<polygon points="-1243.2,645.1 -1251.5,645.1 -1248.3,650.7 -1283.1,650.7 -1261.5,613.4 -1265.7,606.2 -1295.5,657.9 
		-1235.8,657.9 	"/>
	<polygon points="-1276.1,646.7 -1267.9,646.7 -1259.2,631.7 -1253.8,641.2 -1245.5,641.2 -1259.2,617.4 	"/>
</g>
<g>
	<path d="M-1186.7,649.7v-34.8h5.9v29.2h15.9v5.6H-1186.7z"/>
	<path d="M-1148.7,641.7l-3.5,7.9h-6.3l15.3-34.8h6.3l15.3,34.8h-6.3l-3.5-7.9H-1148.7z M-1133.7,636.3l-6.3-14.3l-6.3,14.3H-1133.7
		z"/>
	<path d="M-1104.8,641.7c1.6,1.9,3.7,2.8,6.5,2.8c2.7,0,4.9-0.9,6.5-2.8c1.6-1.9,2.4-4.4,2.4-7.6v-19.2h5.9v19.5
		c0,5-1.4,8.9-4.1,11.6c-2.8,2.7-6.3,4.1-10.6,4.1c-4.3,0-7.8-1.4-10.6-4.1c-2.8-2.7-4.1-6.6-4.1-11.6v-19.5h5.9v19.2
		C-1107.2,637.3-1106.4,639.8-1104.8,641.7z"/>
	<path d="M-1043.4,614.9h5.9v34.8h-6.4l-19.7-25.4v25.4h-5.9v-34.8h5.9l20.2,26V614.9z"/>
	<path d="M-1007,644.3c2,0,3.8-0.3,5.2-1s3-1.8,4.6-3.3l3.8,3.9c-3.7,4.1-8.1,6.1-13.4,6.1s-9.6-1.7-13.1-5.1
		c-3.5-3.4-5.2-7.7-5.2-12.8c0-5.2,1.8-9.5,5.3-12.9c3.5-3.4,8-5.2,13.4-5.2c5.4,0,9.9,2,13.5,6l-3.7,4.1c-1.7-1.6-3.2-2.7-4.7-3.3
		c-1.5-0.6-3.2-0.9-5.2-0.9c-3.5,0-6.5,1.1-8.9,3.4c-2.4,2.3-3.6,5.2-3.6,8.7c0,3.5,1.2,6.5,3.6,8.9
		C-1013.1,643.1-1010.3,644.3-1007,644.3z"/>
	<path d="M-981.3,649.7v-34.8h5.9V630h17.3v-15.1h5.9v34.8h-5.9v-14.2h-17.3v14.2H-981.3z"/>
	<path d="M-914.2,641.7l-3.5,7.9h-6.3l15.3-34.8h6.3l15.3,34.8h-6.3l-3.5-7.9H-914.2z M-899.2,636.3l-6.3-14.3l-6.3,14.3H-899.2z"/>
	<path d="M-853.2,632.7h5.9v11.9c-3.3,3.6-8,5.4-14.1,5.4c-5.1,0-9.4-1.7-12.9-5.1c-3.5-3.4-5.2-7.7-5.2-12.8
		c0-5.2,1.8-9.5,5.3-12.9c3.5-3.4,7.8-5.2,12.8-5.2c5,0,9.2,1.5,12.5,4.4l-3.1,4.5c-1.4-1.2-2.7-2-4.1-2.4s-3-0.7-4.8-0.7
		c-3.5,0-6.5,1.1-8.9,3.4c-2.4,2.3-3.6,5.3-3.6,9c0,3.7,1.2,6.7,3.5,8.9c2.3,2.2,5.1,3.4,8.4,3.4s6.1-0.7,8.3-2.1V632.7z"/>
	<path d="M-810.2,614.9v5.5h-18.5v9.2h16.7v5.2h-16.7v9.3h19.1v5.5h-25v-34.8H-810.2z"/>
	<path d="M-771.1,614.9h5.9v34.8h-6.4l-19.7-25.4v25.4h-5.9v-34.8h5.9l20.2,26V614.9z"/>
	<path d="M-737.5,620.3v29.4h-5.9v-29.4h-10.5v-5.4h27v5.4H-737.5z"/>
</g>
<rect x="-2780.1" y="638.3" width="24.8" height="3.4"/>
<rect x="-2196.7" y="-177.4" width="530.9" height="406.3"/>
<g>
	<g>
		<polygon fill="#FFFFFF" points="-1865.5,11.8 -1889.7,11.8 -1880.3,28.1 -1982.2,28.1 -1919.1,-81.1 -1931.2,-102 -2018.5,49.1 
			-1844,49.1 		"/>
		<polygon fill="#FFFFFF" points="-1961.8,16.5 -1937.6,16.5 -1912.3,-27.4 -1896.4,0.2 -1872.2,0.2 -1912.3,-69.2 		"/>
	</g>
</g>
<g>
	<path fill="#FFFFFF" d="M-2115.4,136.8v-27.8h4.7v23.4h12.7v4.5H-2115.4z"/>
	<path fill="#FFFFFF" d="M-2084.9,130.4l-2.8,6.3h-5l12.3-27.8h5l12.3,27.8h-5l-2.8-6.3H-2084.9z M-2072.9,126.1l-5.1-11.5
		l-5.1,11.5H-2072.9z"/>
	<path fill="#FFFFFF" d="M-2049.7,130.4c1.3,1.5,3,2.2,5.2,2.2c2.2,0,3.9-0.7,5.2-2.2c1.3-1.5,1.9-3.5,1.9-6.1v-15.4h4.7v15.6
		c0,4-1.1,7.1-3.3,9.3c-2.2,2.2-5,3.3-8.5,3.3c-3.5,0-6.3-1.1-8.5-3.3c-2.2-2.2-3.3-5.3-3.3-9.3v-15.6h4.7v15.4
		C-2051.7,126.9-2051,128.9-2049.7,130.4z"/>
	<path fill="#FFFFFF" d="M-2000.6,108.9h4.7v27.8h-5.1l-15.8-20.3v20.3h-4.7v-27.8h4.7l16.2,20.8V108.9z"/>
	<path fill="#FFFFFF" d="M-1971.4,132.5c1.6,0,3-0.3,4.2-0.8c1.2-0.5,2.4-1.4,3.7-2.6l3,3.1c-2.9,3.3-6.5,4.9-10.7,4.9
		c-4.2,0-7.7-1.4-10.5-4.1c-2.8-2.7-4.2-6.1-4.2-10.3s1.4-7.6,4.2-10.4c2.8-2.8,6.4-4.1,10.7-4.1c4.3,0,7.9,1.6,10.8,4.8l-3,3.3
		c-1.3-1.3-2.6-2.2-3.8-2.7c-1.2-0.5-2.6-0.8-4.2-0.8c-2.8,0-5.2,0.9-7.1,2.7c-1.9,1.8-2.9,4.1-2.9,7c0,2.8,0.9,5.2,2.8,7.1
		C-1976.3,131.5-1974,132.5-1971.4,132.5z"/>
	<path fill="#FFFFFF" d="M-1950.8,136.8v-27.8h4.7V121h13.8v-12.1h4.7v27.8h-4.7v-11.4h-13.8v11.4H-1950.8z"/>
	<path fill="#FFFFFF" d="M-1897.1,130.4l-2.8,6.3h-5l12.3-27.8h5l12.3,27.8h-5l-2.8-6.3H-1897.1z M-1885,126.1l-5.1-11.5l-5.1,11.5
		H-1885z"/>
	<path fill="#FFFFFF" d="M-1848.2,123.2h4.7v9.5c-2.6,2.9-6.4,4.3-11.3,4.3c-4.1,0-7.6-1.4-10.3-4.1c-2.8-2.7-4.2-6.1-4.2-10.3
		s1.4-7.6,4.2-10.4c2.8-2.8,6.2-4.1,10.3-4.1c4,0,7.3,1.2,10,3.5l-2.5,3.6c-1.1-0.9-2.2-1.6-3.3-1.9c-1.1-0.4-2.4-0.5-3.8-0.5
		c-2.8,0-5.2,0.9-7.1,2.7c-1.9,1.8-2.9,4.2-2.9,7.2s0.9,5.3,2.8,7.1c1.9,1.8,4.1,2.7,6.8,2.7c2.6,0,4.9-0.6,6.6-1.7V123.2z"/>
	<path fill="#FFFFFF" d="M-1813.8,108.9v4.4h-14.9v7.4h13.3v4.2h-13.3v7.4h15.3v4.4h-20v-27.8H-1813.8z"/>
	<path fill="#FFFFFF" d="M-1782.4,108.9h4.7v27.8h-5.1l-15.8-20.3v20.3h-4.7v-27.8h4.7l16.2,20.8V108.9z"/>
	<path fill="#FFFFFF" d="M-1755.5,113.2v23.5h-4.7v-23.5h-8.4v-4.3h21.6v4.3H-1755.5z"/>
</g>
<rect x="-1310.1" y="75" width="67.8" height="67.8"/>
<g>
	<g>
		<polygon fill="#FFFFFF" points="-1260.7,116.9 -1266.4,116.9 -1264.2,120.8 -1288.2,120.8 -1273.3,95 -1276.2,90.1 -1296.8,125.7 
			-1255.6,125.7 		"/>
		<polygon fill="#FFFFFF" points="-1283.4,118 -1277.7,118 -1271.7,107.7 -1268,114.2 -1262.3,114.2 -1271.7,97.8 		"/>
	</g>
</g>
<g>
	<path fill="#FFFFFF" d="M-1194.2,125.5V90.8h5.9v29.2h15.9v5.6H-1194.2z"/>
	<path fill="#FFFFFF" d="M-1156.2,117.6l-3.5,7.9h-6.3l15.3-34.8h6.3l15.3,34.8h-6.3l-3.5-7.9H-1156.2z M-1141.2,112.2l-6.3-14.3
		l-6.3,14.3H-1141.2z"/>
	<path fill="#FFFFFF" d="M-1112.3,117.6c1.6,1.9,3.7,2.8,6.5,2.8c2.7,0,4.9-0.9,6.5-2.8c1.6-1.9,2.4-4.4,2.4-7.6V90.8h5.9v19.5
		c0,5-1.4,8.9-4.1,11.6c-2.8,2.7-6.3,4.1-10.6,4.1c-4.3,0-7.8-1.4-10.6-4.1c-2.8-2.7-4.1-6.6-4.1-11.6V90.8h5.9V110
		C-1114.7,113.2-1113.9,115.7-1112.3,117.6z"/>
	<path fill="#FFFFFF" d="M-1050.9,90.8h5.9v34.8h-6.4l-19.7-25.4v25.4h-5.9V90.8h5.9l20.2,26V90.8z"/>
	<path fill="#FFFFFF" d="M-1014.5,120.2c2,0,3.8-0.3,5.2-1c1.5-0.7,3-1.8,4.6-3.3l3.8,3.9c-3.7,4.1-8.1,6.1-13.4,6.1
		c-5.3,0-9.6-1.7-13.1-5.1c-3.5-3.4-5.2-7.7-5.2-12.8c0-5.2,1.8-9.5,5.3-12.9c3.5-3.4,8-5.2,13.4-5.2c5.4,0,9.9,2,13.5,6l-3.7,4.1
		c-1.7-1.6-3.2-2.7-4.7-3.3c-1.5-0.6-3.2-0.9-5.2-0.9c-3.5,0-6.5,1.1-8.9,3.4c-2.4,2.3-3.6,5.2-3.6,8.7c0,3.5,1.2,6.5,3.6,8.9
		C-1020.6,119-1017.8,120.2-1014.5,120.2z"/>
	<path fill="#FFFFFF" d="M-988.8,125.5V90.8h5.9v15.1h17.3V90.8h5.9v34.8h-5.9v-14.2H-983v14.2H-988.8z"/>
	<path fill="#FFFFFF" d="M-921.7,117.6l-3.5,7.9h-6.3l15.3-34.8h6.3l15.3,34.8h-6.3l-3.5-7.9H-921.7z M-906.7,112.2l-6.3-14.3
		l-6.3,14.3H-906.7z"/>
	<path fill="#FFFFFF" d="M-860.7,108.6h5.9v11.9c-3.3,3.6-8,5.4-14.1,5.4c-5.1,0-9.4-1.7-12.9-5.1c-3.5-3.4-5.2-7.7-5.2-12.8
		c0-5.2,1.8-9.5,5.3-12.9c3.5-3.4,7.8-5.2,12.8-5.2s9.2,1.5,12.5,4.4l-3.1,4.5c-1.4-1.2-2.7-2-4.1-2.4c-1.4-0.4-3-0.7-4.8-0.7
		c-3.5,0-6.5,1.1-8.9,3.4c-2.4,2.3-3.6,5.3-3.6,9s1.2,6.7,3.5,8.9c2.3,2.2,5.1,3.4,8.4,3.4c3.3,0,6.1-0.7,8.3-2.1V108.6z"/>
	<path fill="#FFFFFF" d="M-817.7,90.8v5.5h-18.5v9.2h16.7v5.2h-16.7v9.3h19.1v5.5h-25V90.8H-817.7z"/>
	<path fill="#FFFFFF" d="M-778.6,90.8h5.9v34.8h-6.4l-19.7-25.4v25.4h-5.9V90.8h5.9l20.2,26V90.8z"/>
	<path fill="#FFFFFF" d="M-745,96.1v29.4h-5.9V96.1h-10.5v-5.4h27v5.4H-745z"/>
</g>
</svg>
