<?xml version="1.0" encoding="utf-8"?>
<!-- Generator: Adobe Illustrator 18.1.1, SVG Export Plug-In . SVG Version: 6.00 Build 0)  -->
<svg version="1.1" id="Layer_1" xmlns="http://www.w3.org/2000/svg" xmlns:xlink="http://www.w3.org/1999/xlink" x="0px" y="0px"
	 viewBox="0 0 575.6 67.8" enable-background="new 0 0 575.6 67.8" xml:space="preserve">
<rect x="0" y="0" width="67.8" height="67.8"/>
<g>
	<g>
		<polygon fill="#FFFFFF" points="49.4,41.9 43.7,41.9 45.9,45.8 21.9,45.8 36.7,20 33.9,15.1 13.3,50.7 54.5,50.7 		"/>
		<polygon fill="#FFFFFF" points="26.7,43 32.4,43 38.3,32.7 42.1,39.2 47.8,39.2 38.3,22.8 		"/>
	</g>
</g>
<g>
	<path fill="#FFFFFF" d="M115.8,50.5V15.7h5.9v29.2h15.9v5.6H115.8z"/>
	<path fill="#FFFFFF" d="M153.9,42.6l-3.5,7.9h-6.3l15.3-34.8h6.3L181,50.5h-6.3l-3.5-7.9H153.9z M168.9,37.2l-6.3-14.3l-6.3,14.3
		H168.9z"/>
	<path fill="#FFFFFF" d="M197.8,42.5c1.6,1.9,3.7,2.8,6.5,2.8c2.7,0,4.9-0.9,6.5-2.8c1.6-1.9,2.4-4.4,2.4-7.6V15.7h5.9v19.5
		c0,5-1.4,8.9-4.1,11.6c-2.8,2.7-6.3,4.1-10.6,4.1c-4.3,0-7.8-1.4-10.6-4.1c-2.8-2.7-4.1-6.6-4.1-11.6V15.7h5.9V35
		C195.4,38.2,196.2,40.7,197.8,42.5z"/>
	<path fill="#FFFFFF" d="M259.2,15.7h5.9v34.8h-6.4L239,25.1v25.4h-5.9V15.7h5.9l20.2,26V15.7z"/>
	<path fill="#FFFFFF" d="M295.5,45.2c2,0,3.8-0.3,5.2-1c1.5-0.7,3-1.8,4.6-3.3l3.8,3.9c-3.7,4.1-8.1,6.1-13.4,6.1
		c-5.3,0-9.6-1.7-13.1-5.1c-3.5-3.4-5.2-7.7-5.2-12.8s1.8-9.5,5.3-12.9c3.5-3.4,8-5.2,13.4-5.2c5.4,0,9.9,2,13.5,6l-3.7,4.1
		c-1.7-1.6-3.2-2.7-4.7-3.3c-1.5-0.6-3.2-0.9-5.2-0.9c-3.5,0-6.5,1.1-8.9,3.4c-2.4,2.3-3.6,5.2-3.6,8.7c0,3.5,1.2,6.5,3.6,8.9
		C289.5,44,292.3,45.2,295.5,45.2z"/>
	<path fill="#FFFFFF" d="M321.2,50.5V15.7h5.9v15.1h17.3V15.7h5.9v34.8h-5.9V36.3h-17.3v14.2H321.2z"/>
	<path fill="#FFFFFF" d="M388.4,42.6l-3.5,7.9h-6.3l15.3-34.8h6.3l15.3,34.8h-6.3l-3.5-7.9H388.4z M403.4,37.2l-6.3-14.3l-6.3,14.3
		H403.4z"/>
	<path fill="#FFFFFF" d="M449.4,33.6h5.9v11.9c-3.3,3.6-8,5.4-14.1,5.4c-5.1,0-9.4-1.7-12.9-5.1c-3.5-3.4-5.2-7.7-5.2-12.8
		s1.8-9.5,5.3-12.9c3.5-3.4,7.8-5.2,12.8-5.2c5,0,9.2,1.5,12.5,4.4l-3.1,4.5c-1.4-1.2-2.7-2-4.1-2.4s-3-0.7-4.8-0.7
		c-3.5,0-6.5,1.1-8.9,3.4c-2.4,2.3-3.6,5.3-3.6,9s1.2,6.7,3.5,8.9c2.3,2.2,5.1,3.4,8.4,3.4s6.1-0.7,8.3-2.1V33.6z"/>
	<path fill="#FFFFFF" d="M492.3,15.7v5.5h-18.5v9.2h16.7v5.2h-16.7V45h19.1v5.5h-25V15.7H492.3z"/>
	<path fill="#FFFFFF" d="M531.5,15.7h5.9v34.8H531l-19.7-25.4v25.4h-5.9V15.7h5.9l20.2,26V15.7z"/>
	<path fill="#FFFFFF" d="M565.1,21.1v29.4h-5.9V21.1h-10.5v-5.4h27v5.4H565.1z"/>
</g>
</svg>
