<?xml version="1.0" encoding="utf-8"?>
<!-- Generator: Adobe Illustrator 17.0.0, SVG Export Plug-In . SVG Version: 6.00 Build 0)  -->
<!DOCTYPE svg PUBLIC "-//W3C//DTD SVG 1.1//EN" "http://www.w3.org/Graphics/SVG/1.1/DTD/svg11.dtd">
<svg version="1.1" id="Layer_1" xmlns="http://www.w3.org/2000/svg" xmlns:xlink="http://www.w3.org/1999/xlink" x="0px" y="0px"
	 width="159px" height="159px" viewBox="0 0 159 159" enable-background="new 0 0 159 159" xml:space="preserve">
<g id="design">
	<g id="Group-18" transform="translate(0.000000, -1.000000)">
		<g id="LOGO_horizontal">
			<g id="Group-17" transform="translate(0.000000, 0.814000)">
				<g id="Group-44">
					<polygon id="Fill-11" fill="#FFFFFF" points="79.529,88.599 83.719,80.102 75.087,80.102 					"/>
					<path id="Fill-13" fill="#FFFFFF" d="M123.198,112.154H95.034l-4.628-8.621H68.439l-4.628,8.621H35.695l-2.855-5.387
						l25.678-45.551l-5.052-8.77l6.511-20.281l9.659,9.539h19.439l9.659-9.539l6.511,20.281l-5.059,8.77l25.778,45.724
						L123.198,112.154z M79.802,5.72C39.937,5.72,7.621,38.036,7.621,77.9s32.316,72.184,72.181,72.184s72.184-32.319,72.184-72.184
						S119.667,5.72,79.802,5.72L79.802,5.72z"/>
					<path id="Fill-15" fill="#ABABAB" d="M79.529,88.599l-4.442-8.497h8.632L79.529,88.599z M105.245,52.445l-6.511-20.277
						l-9.656,9.532H69.635l-9.659-9.532l-6.514,20.277l5.056,8.77L32.84,106.773l2.859,5.38h28.116l4.621-8.618h21.974l4.624,8.618
						h28.164l2.769-5.214l-25.778-45.724L105.245,52.445z"/>
				</g>
			</g>
		</g>
	</g>
</g>
</svg>
