<?xml version="1.0" encoding="utf-8"?>
<!-- Generator: Adobe Illustrator 17.0.0, SVG Export Plug-In . SVG Version: 6.00 Build 0)  -->
<!DOCTYPE svg PUBLIC "-//W3C//DTD SVG 1.1//EN" "http://www.w3.org/Graphics/SVG/1.1/DTD/svg11.dtd">
<svg version="1.1" id="Layer_1" xmlns="http://www.w3.org/2000/svg" xmlns:xlink="http://www.w3.org/1999/xlink" x="0px" y="0px"
	 width="159px" height="159px" viewBox="0 0 159 159" enable-background="new 0 0 159 159" xml:space="preserve">
<g id="Type">
	<g>
		<path fill="#ABABAB" d="M61.745,71.054c1.835,0,3.111,0.805,3.111,2.532c0,1.276-0.579,2.051-1.698,2.414
			c1.325,0.393,2.022,1.217,2.022,2.345c0,2.149-1.384,3.032-3.68,3.032h-4.494v-1.246l1.06-0.442V72.81l-1.06-0.442v-1.236
			l3.248-0.069h1.492V71.054z M61.088,75.274c1.03,0,1.58-0.451,1.58-1.364c0-0.765-0.52-1.099-1.197-1.099h-1.197v2.463H61.088z
			 M61.441,79.621c0.991,0,1.511-0.471,1.511-1.276c0-1.07-0.599-1.541-1.865-1.541h-0.824v2.807h1.178V79.621z"/>
		<path fill="#ABABAB" d="M73.56,77.275c0,2.63-1.482,4.239-3.778,4.239c-2.306,0-3.601-1.246-3.601-4.023
			c0-2.63,1.511-4.171,3.817-4.171C72.285,73.331,73.56,74.763,73.56,77.275z M68.369,77.423c0,1.609,0.451,2.345,1.482,2.345
			c1.021,0,1.511-0.657,1.511-2.414c0-1.492-0.422-2.267-1.443-2.267C68.889,75.077,68.369,75.666,68.369,77.423z"/>
		<path fill="#ABABAB" d="M74.12,73.546l3.248-0.069v5.044c0,0.805,0.226,1.168,0.864,1.168c0.922,0,1.6-0.795,1.6-0.795v-3.817
			l-1.129-0.363v-1.168l3.258-0.079v6.369l1.129,0.294v1.138l-2.983,0.098l-0.137-1.021c0,0-1.129,1.168-2.473,1.168
			c-1.413,0-2.237-0.981-2.237-2.62v-3.817l-1.129-0.363v-1.168H74.12z"/>
		<path fill="#ABABAB" d="M86.818,74.479c0,0,1.021-1.158,1.963-1.158c0.775,0,1.315,0.265,1.315,0.265l-0.118,2.807h-1.276
			l-0.216-1.246c-0.824,0-1.531,0.824-1.531,0.824v3.866l1.413,0.363v1.168h-4.642V80.2l1.129-0.363v-4.759l-1.129-0.363v-1.168
			l2.973-0.069L86.818,74.479z"/>
		<path fill="#ABABAB" d="M93.619,74.479c0,0,1.344-1.129,2.601-1.129c1.374,0,2.149,1.011,2.149,2.601v3.876l0.991,0.363v1.168
			h-3.886V80.19l0.775-0.363v-3.474c0-0.677-0.363-1.168-0.962-1.168c-0.873,0-1.511,0.834-1.511,0.834v3.817l0.775,0.363v1.168
			h-4.033V80.2l1.129-0.363v-4.759l-1.129-0.363v-1.168l2.993-0.069L93.619,74.479z"/>
		<path fill="#ABABAB" d="M102.274,77.904c0.088,1.168,0.736,1.855,1.708,1.855c1.178,0,2.375-0.687,2.375-0.687l0.608,1.217
			c0,0-1.413,1.227-3.229,1.227c-2.434,0-3.68-1.462-3.68-3.955c0-2.561,1.403-4.239,3.778-4.239c2.11,0,3.209,1.344,3.209,3.435
			c0,0.559-0.088,1.099-0.088,1.138h-4.681V77.904z M104.865,76.549c0-0.834-0.343-1.462-1.158-1.462
			c-0.795,0-1.286,0.599-1.403,1.462H104.865z"/>
		<path fill="#ABABAB" d="M121.096,81.377h-3.837V80.21l0.746-0.363v-3.494c0-0.805-0.226-1.197-0.824-1.197
			c-0.922,0-1.57,0.765-1.57,0.765v3.925l0.736,0.363v1.168h-3.592V80.21l0.736-0.363v-3.494c0-0.805-0.196-1.197-0.805-1.197
			c-0.922,0-1.58,0.765-1.58,0.765v3.925l0.746,0.363v1.168h-3.955V80.21l1.089-0.363v-4.769l-1.079-0.363v-1.168l2.954-0.069
			l0.098,1.04c0,0,1.227-1.187,2.473-1.187c1.001,0,1.629,0.481,1.953,1.256c0.236-0.245,1.305-1.256,2.561-1.256
			c1.482,0,2.179,0.991,2.179,2.63v3.876l0.962,0.363v1.178H121.096z"/>
		<path fill="#ABABAB" d="M129.182,77.275c0,2.63-1.482,4.239-3.778,4.239c-2.306,0-3.601-1.246-3.601-4.023
			c0-2.63,1.511-4.171,3.817-4.171C127.916,73.331,129.182,74.763,129.182,77.275z M124.001,77.423c0,1.609,0.451,2.345,1.482,2.345
			c1.021,0,1.511-0.657,1.511-2.414c0-1.492-0.422-2.267-1.443-2.267C124.521,75.077,124.001,75.666,124.001,77.423z"/>
		<path fill="#ABABAB" d="M129.751,73.546L133,73.478v5.044c0,0.805,0.226,1.168,0.864,1.168c0.922,0,1.6-0.795,1.6-0.795v-3.817
			l-1.129-0.363v-1.168l3.248-0.069v6.369l1.129,0.294v1.138l-2.983,0.098l-0.137-1.021c0,0-1.129,1.168-2.473,1.168
			c-1.413,0-2.237-0.981-2.237-2.62v-3.827l-1.129-0.363V73.546z"/>
		<path fill="#ABABAB" d="M144.883,80.612c-0.697,0.53-1.482,0.903-2.404,0.903c-1.629,0-2.09-1.168-2.09-2.856v-3.356h-1.315V73.88
			l1.315-0.186v-2.022l2.12-0.393v2.414h1.982v1.609h-1.982v3.219c0,0.932,0.157,1.315,0.746,1.315c0.383,0,0.932-0.236,1.119-0.334
			L144.883,80.612z"/>
		<path fill="#ABABAB" d="M148.416,74.322c0.412-0.353,1.325-0.991,2.375-0.991c1.443,0,2.218,0.991,2.218,2.63v3.876L154,80.2
			v1.168h-3.847V80.2l0.736-0.353v-3.533c0-0.736-0.285-1.168-0.932-1.168c-0.795,0-1.541,0.775-1.541,0.775v3.925l0.746,0.363
			v1.168h-4.004V80.21l1.129-0.363v-8.233l-1.129-0.294v-1.168l3.248-0.118v4.288H148.416z"/>
		<path fill="#ABABAB" d="M60.254,93.065c0,1.688,0.471,2.345,1.855,2.345c1.501,0,1.825-0.834,1.825-2.561v-4.387l-1.099-0.442
			v-1.246l4.357-0.069v1.315l-1.06,0.442v4.387c0,2.826-1.05,4.347-4.082,4.347c-2.846,0-3.974-1.305-3.974-4.131v-4.612
			l-1.05-0.442v-1.246l4.337-0.069v1.315l-1.099,0.442v4.612H60.254z"/>
		<path fill="#ABABAB" d="M71.127,90.121c0,0,1.344-1.129,2.601-1.129c1.374,0,2.149,1.011,2.149,2.601v3.876l0.991,0.363v1.187
			h-3.886v-1.178l0.775-0.363v-3.484c0-0.677-0.363-1.168-0.962-1.168c-0.873,0-1.511,0.834-1.511,0.834v3.817l0.775,0.363v1.178
			h-4.033v-1.178l1.129-0.363V90.72l-1.129-0.363v-1.168l2.993-0.069L71.127,90.121z"/>
		<path fill="#ABABAB" d="M81.813,95.842v1.178h-4.239v-1.178l1.129-0.363V90.72l-1.129-0.363v-1.168l3.248-0.069v6.369
			L81.813,95.842z M79.664,85.381c0.736,0,1.187,0.393,1.187,1.315c0,0.864-0.608,1.335-1.187,1.335
			c-0.765,0-1.217-0.471-1.217-1.335C78.447,85.862,79.026,85.381,79.664,85.381z"/>
		<path fill="#ABABAB" d="M86.789,89.189l3.709-0.069v1.246l-0.805,0.186l-2.277,6.467h-2.336l-2.237-6.428l-0.677-0.236v-1.168
			l3.709-0.069v1.246l-0.795,0.147l1.286,4.318l1.246-4.269l-0.824-0.186C86.789,90.376,86.789,89.189,86.789,89.189z"/>
		<path fill="#ABABAB" d="M92.844,93.546c0.088,1.168,0.736,1.855,1.708,1.855c1.178,0,2.375-0.687,2.375-0.687l0.608,1.217
			c0,0-1.413,1.227-3.229,1.227c-2.434,0-3.68-1.462-3.68-3.955c0-2.561,1.403-4.239,3.778-4.239c2.11,0,3.209,1.344,3.209,3.435
			c0,0.559-0.088,1.099-0.088,1.138h-4.681V93.546z M95.434,92.182c0-0.834-0.343-1.462-1.158-1.462
			c-0.795,0-1.286,0.599-1.403,1.462H95.434z"/>
		<path fill="#ABABAB" d="M101.568,90.121c0,0,1.021-1.158,1.963-1.158c0.775,0,1.315,0.265,1.315,0.265l-0.118,2.807h-1.276
			l-0.216-1.246c-0.824,0-1.531,0.824-1.531,0.824v3.866l1.413,0.363v1.178h-4.671v-1.178l1.129-0.363V90.72l-1.129-0.363v-1.168
			l2.973-0.069L101.568,90.121z"/>
		<path fill="#ABABAB" d="M106.7,95.41c0,0,0.491,0.147,1.187,0.147c0.775,0,1.158-0.245,1.158-0.716
			c0-1.197-3.778-0.765-3.778-3.366c0-1.825,1.413-2.502,2.915-2.502c1.276,0,2.63,0.442,2.63,0.442l-0.059,2.198h-1.197
			l-0.216-0.883c0,0-0.412-0.147-0.972-0.147c-0.608,0-0.972,0.265-0.972,0.746c0,1.187,3.778,0.677,3.778,3.209
			c0,1.678-1.315,2.63-3.248,2.63c-1.344,0-2.601-0.324-2.601-0.324v-2.385h1.276L106.7,95.41z"/>
		<path fill="#ABABAB" d="M116.258,95.842v1.178h-4.239v-1.178l1.129-0.363V90.72l-1.129-0.363v-1.168l3.248-0.069v6.369
			L116.258,95.842z M114.109,85.381c0.736,0,1.187,0.393,1.187,1.315c0,0.864-0.608,1.335-1.187,1.335
			c-0.765,0-1.217-0.471-1.217-1.335C112.892,85.862,113.471,85.381,114.109,85.381z"/>
		<path fill="#ABABAB" d="M122.568,96.254c-0.697,0.53-1.482,0.903-2.404,0.903c-1.629,0-2.09-1.168-2.09-2.856v-3.366h-1.315
			v-1.423l1.315-0.186v-2.022l2.12-0.393v2.414h1.982v1.609h-1.982v3.219c0,0.932,0.157,1.315,0.746,1.315
			c0.383,0,0.932-0.236,1.119-0.334L122.568,96.254z"/>
		<path fill="#ABABAB" d="M122.637,89.189l3.778-0.069v1.246l-0.795,0.147l1.256,4.102l1.207-4.073l-0.824-0.186v-1.168l3.808-0.069
			v1.246l-0.873,0.186l-2.08,5.996c-0.677,1.933-1.6,3.984-3.847,3.984c-0.481,0-1.374-0.118-1.374-0.118l0.196-1.57h0.922
			c1.129,0,1.658-1.246,1.894-1.815l-2.522-6.438l-0.746-0.236L122.637,89.189L122.637,89.189z"/>
	</g>
</g>
<g id="_x0022_U_x0022_">
	<g>
		<g>
			<defs>
				<path id="SVGID_1_" d="M46.397,71.172v17.124c0,3.278-2.139,5.387-5.446,5.387c-3.307,0-5.446-2.12-5.446-5.387V74.891h0.461
					v13.405c0,2.993,1.953,4.936,4.985,4.936c3.032,0,4.985-1.933,4.985-4.936V74.891h-1.855v13.405c0,1.894-1.021,3.081-3.14,3.081
					s-3.14-1.187-3.14-3.081v-15.27H33.65v14.749c0,4.71,2.728,7.527,7.281,7.527c4.563,0,7.281-2.816,7.281-7.527v-14.74h0.451
					v14.74c0,4.995-2.895,7.988-7.743,7.988s-7.743-2.983-7.743-7.988V71.172h-1.855v16.604c0,5.937,3.621,9.833,9.597,9.833
					s9.597-3.896,9.597-9.833V71.172H46.397z"/>
			</defs>
			<use xlink:href="#SVGID_1_"  overflow="visible" fill="#ABABAB"/>
			<clipPath id="SVGID_2_">
				<use xlink:href="#SVGID_1_"  overflow="visible"/>
			</clipPath>
			<g clip-path="url(#SVGID_2_)">
				<g>
					<path fill="#ABABAB" d="M34.68,69.817v18.42c0,3.778,2.561,6.31,6.369,6.31c3.808,0,6.359-2.532,6.359-6.31v-18.42"/>
					<g>
						<g>
							<rect x="30.058" y="69.817" fill="#ABABAB" width="9.244" height="0.608"/>
							<rect x="30.058" y="70.112" fill="#ABABAB" width="9.244" height="0.608"/>
							<rect x="30.058" y="70.406" fill="#ABABAB" width="9.244" height="0.608"/>
							<rect x="30.058" y="70.701" fill="#ABABAB" width="9.244" height="0.608"/>
							<rect x="30.058" y="70.995" fill="#ABABAB" width="9.244" height="0.608"/>
							<rect x="30.058" y="71.289" fill="#ABABAB" width="9.244" height="0.608"/>
							<rect x="30.058" y="71.584" fill="#ABABAB" width="9.244" height="0.608"/>
							<rect x="30.058" y="71.878" fill="#ABABAB" width="9.244" height="0.608"/>
							<rect x="30.058" y="72.173" fill="#ABABAB" width="9.244" height="0.608"/>
							<rect x="30.058" y="72.467" fill="#ABABAB" width="9.244" height="0.608"/>
							<rect x="30.058" y="72.761" fill="#ABABAB" width="9.244" height="0.608"/>
							<rect x="30.058" y="73.056" fill="#ABABAB" width="9.244" height="0.608"/>
							<rect x="30.058" y="73.35" fill="#ABABAB" width="9.244" height="0.608"/>
							<rect x="30.058" y="73.645" fill="#ABABAB" width="9.244" height="0.608"/>
							<rect x="30.058" y="73.929" fill="#ABABAB" width="9.244" height="0.608"/>
							<rect x="30.058" y="74.224" fill="#ABABAB" width="9.244" height="0.608"/>
							<rect x="30.058" y="74.518" fill="#ABABAB" width="9.244" height="0.608"/>
							<rect x="30.058" y="74.812" fill="#ABABAB" width="9.244" height="0.608"/>
							<rect x="30.058" y="75.107" fill="#ABABAB" width="9.244" height="0.608"/>
							<rect x="30.058" y="75.401" fill="#ABABAB" width="9.244" height="0.608"/>
							<rect x="30.058" y="75.696" fill="#ABABAB" width="9.244" height="0.608"/>
							<rect x="30.058" y="75.99" fill="#ABABAB" width="9.244" height="0.608"/>
							<rect x="30.058" y="76.284" fill="#ABABAB" width="9.244" height="0.608"/>
							<rect x="30.058" y="76.579" fill="#ABABAB" width="9.244" height="0.608"/>
							<rect x="30.058" y="76.873" fill="#ABABAB" width="9.244" height="0.608"/>
							<rect x="30.058" y="77.168" fill="#ABABAB" width="9.244" height="0.608"/>
							<rect x="30.058" y="77.462" fill="#ABABAB" width="9.244" height="0.608"/>
							<rect x="30.058" y="77.746" fill="#ABABAB" width="9.244" height="0.608"/>
							<rect x="30.058" y="78.041" fill="#ABABAB" width="9.244" height="0.608"/>
							<rect x="30.058" y="78.335" fill="#ABABAB" width="9.244" height="0.608"/>
							<rect x="30.058" y="78.63" fill="#ABABAB" width="9.244" height="0.608"/>
							<rect x="30.058" y="78.924" fill="#ABABAB" width="9.244" height="0.608"/>
							<rect x="30.058" y="79.218" fill="#ABABAB" width="9.244" height="0.608"/>
							<rect x="30.058" y="79.513" fill="#ABABAB" width="9.244" height="0.608"/>
							<rect x="30.058" y="79.807" fill="#ABABAB" width="9.244" height="0.608"/>
							<rect x="30.058" y="80.102" fill="#ABABAB" width="9.244" height="0.608"/>
							<rect x="30.058" y="80.396" fill="#ABABAB" width="9.244" height="0.608"/>
							<rect x="30.058" y="80.69" fill="#ABABAB" width="9.244" height="0.608"/>
							<rect x="30.058" y="80.985" fill="#ABABAB" width="9.244" height="0.608"/>
							<rect x="30.058" y="81.279" fill="#ABABAB" width="9.244" height="0.608"/>
							<rect x="30.058" y="81.564" fill="#ABABAB" width="9.244" height="0.608"/>
							<rect x="30.058" y="81.858" fill="#ABABAB" width="9.244" height="0.608"/>
							<rect x="30.058" y="82.153" fill="#ABABAB" width="9.244" height="0.608"/>
							<rect x="30.058" y="82.447" fill="#ABABAB" width="9.244" height="0.608"/>
							<rect x="30.058" y="82.741" fill="#ABABAB" width="9.244" height="0.608"/>
							<rect x="30.058" y="83.036" fill="#ABABAB" width="9.244" height="0.608"/>
							<rect x="30.058" y="83.33" fill="#ABABAB" width="9.244" height="0.608"/>
							<rect x="30.058" y="83.625" fill="#ABABAB" width="9.244" height="0.608"/>
							<rect x="30.058" y="83.919" fill="#ABABAB" width="9.244" height="0.608"/>
							<rect x="30.058" y="84.213" fill="#ABABAB" width="9.244" height="0.608"/>
							<rect x="30.058" y="84.508" fill="#ABABAB" width="9.244" height="0.608"/>
							<rect x="30.058" y="84.802" fill="#ABABAB" width="9.244" height="0.608"/>
							<rect x="30.058" y="85.097" fill="#ABABAB" width="9.244" height="0.608"/>
							<rect x="30.058" y="85.381" fill="#ABABAB" width="9.244" height="0.608"/>
							<rect x="30.058" y="85.676" fill="#ABABAB" width="9.244" height="0.608"/>
							<rect x="30.058" y="85.97" fill="#ABABAB" width="9.244" height="0.608"/>
							<rect x="30.058" y="86.264" fill="#ABABAB" width="9.244" height="0.608"/>
							<rect x="30.058" y="86.559" fill="#ABABAB" width="9.244" height="0.608"/>
							<rect x="30.058" y="86.853" fill="#ABABAB" width="9.244" height="0.608"/>
							<rect x="30.058" y="87.148" fill="#ABABAB" width="9.244" height="0.608"/>
							<rect x="30.058" y="87.442" fill="#ABABAB" width="9.244" height="0.608"/>
							<path fill="#ABABAB" d="M30.068,88.404c-0.01-0.324,0-0.442-0.01-0.677h9.244c0,0.177,0,0.471,0,0.55L30.068,88.404z"/>
							<path fill="#ABABAB" d="M30.087,88.875c-0.01-0.314-0.029-0.687-0.02-0.844h9.244c0,0.255,0.01,0.285,0.01,0.383
								L30.087,88.875z"/>
							<path fill="#ABABAB" d="M30.107,89.336c-0.02-0.324-0.029-0.638-0.039-0.962l9.234-0.098c0.01,0.088,0.01,0.167,0.01,0.255
								L30.107,89.336z"/>
							<path fill="#ABABAB" d="M30.166,89.807c-0.049-0.334-0.079-0.657-0.088-0.972l9.225-0.432c0,0.088,0,0.167,0.02,0.245
								L30.166,89.807z"/>
							<path fill="#ABABAB" d="M30.235,90.278c-0.049-0.324-0.088-0.657-0.128-0.991l9.205-0.775
								c0.01,0.079,0.029,0.147,0.029,0.226L30.235,90.278z"/>
							<path fill="#ABABAB" d="M30.333,90.759c-0.079-0.334-0.118-0.657-0.167-0.991l9.166-1.138c0.01,0.079,0.01,0.157,0.029,0.216
								L30.333,90.759z"/>
							<path fill="#ABABAB" d="M30.441,91.24c-0.079-0.334-0.167-0.667-0.216-1.001l9.117-1.501c0.01,0.079,0.039,0.128,0.039,0.196
								L30.441,91.24z"/>
							<path fill="#ABABAB" d="M30.578,91.721c-0.118-0.334-0.177-0.667-0.255-1.001l9.048-1.884c0.02,0.059,0.02,0.137,0.049,0.186
								L30.578,91.721z"/>
							<path fill="#ABABAB" d="M30.735,92.201c-0.108-0.334-0.236-0.667-0.304-1.001l8.95-2.277c0,0.069,0.039,0.108,0.049,0.167
								L30.735,92.201z"/>
							<path fill="#ABABAB" d="M30.922,92.682c-0.147-0.334-0.245-0.667-0.353-1.001l8.842-2.669
								c0.029,0.049,0.029,0.118,0.049,0.157L30.922,92.682z"/>
							<path fill="#ABABAB" d="M31.128,93.163c-0.147-0.324-0.304-0.657-0.402-0.991l8.714-3.081
								c0.01,0.059,0.039,0.088,0.059,0.137L31.128,93.163z"/>
							<path fill="#ABABAB" d="M31.363,93.624c-0.177-0.324-0.314-0.648-0.461-0.981l8.557-3.484
								c0.029,0.039,0.029,0.088,0.059,0.128L31.363,93.624z"/>
							<path fill="#ABABAB" d="M31.628,94.086c-0.186-0.314-0.373-0.638-0.51-0.962l8.381-3.896c0.01,0.049,0.039,0.079,0.059,0.118
								L31.628,94.086z"/>
							<path fill="#ABABAB" d="M31.903,94.537c-0.206-0.304-0.383-0.628-0.569-0.942l8.174-4.308
								c0.029,0.029,0.039,0.069,0.059,0.098L31.903,94.537z"/>
							<path fill="#ABABAB" d="M32.217,94.969c-0.226-0.294-0.442-0.599-0.618-0.922l7.939-4.72c0.01,0.039,0.039,0.059,0.059,0.088
								L32.217,94.969z"/>
							<path fill="#ABABAB" d="M32.551,95.391c-0.245-0.285-0.451-0.589-0.667-0.893l7.694-5.123
								c0.029,0.02,0.039,0.059,0.069,0.088L32.551,95.391z"/>
							<path fill="#ABABAB" d="M32.904,95.793c-0.255-0.275-0.5-0.559-0.716-0.864l7.409-5.515c0.01,0.039,0.039,0.049,0.069,0.079
								L32.904,95.793z"/>
							<path fill="#ABABAB" d="M33.287,96.186c-0.265-0.255-0.51-0.54-0.765-0.824l7.115-5.898c0.029,0.02,0.039,0.049,0.069,0.069
								L33.287,96.186z"/>
							<path fill="#ABABAB" d="M33.679,96.539c-0.285-0.245-0.559-0.5-0.805-0.775l6.791-6.271c0.02,0.029,0.049,0.049,0.069,0.069
								L33.679,96.539z"/>
							<path fill="#ABABAB" d="M34.091,96.882c-0.294-0.226-0.569-0.481-0.844-0.736l6.447-6.624
								c0.029,0.02,0.049,0.049,0.079,0.069L34.091,96.882z"/>
							<path fill="#ABABAB" d="M34.523,97.196c-0.304-0.216-0.599-0.432-0.873-0.687l6.084-6.948
								c0.02,0.029,0.059,0.039,0.088,0.069L34.523,97.196z"/>
							<path fill="#ABABAB" d="M34.965,97.501c-0.314-0.196-0.608-0.422-0.913-0.638l5.711-7.262
								c0.039,0.01,0.059,0.039,0.088,0.069L34.965,97.501z"/>
							<path fill="#ABABAB" d="M35.426,97.766c-0.314-0.177-0.628-0.363-0.932-0.589l5.329-7.556
								c0.02,0.029,0.069,0.039,0.098,0.059L35.426,97.766z"/>
							<path fill="#ABABAB" d="M35.887,98.011c-0.324-0.157-0.638-0.353-0.952-0.53l4.926-7.821c0.039,0.01,0.069,0.039,0.108,0.059
								L35.887,98.011z"/>
							<path fill="#ABABAB" d="M36.358,98.217c-0.324-0.137-0.648-0.294-0.972-0.481l4.524-8.057
								c0.029,0.029,0.079,0.039,0.128,0.059L36.358,98.217z"/>
							<path fill="#ABABAB" d="M36.829,98.423c-0.334-0.128-0.657-0.275-0.981-0.432l4.122-8.273
								c0.049,0.01,0.088,0.039,0.137,0.059L36.829,98.423z"/>
							<path fill="#ABABAB" d="M37.31,98.58c-0.334-0.098-0.657-0.226-0.991-0.373l3.719-8.459c0.039,0.029,0.088,0.039,0.147,0.059
								L37.31,98.58z"/>
							<path fill="#ABABAB" d="M37.791,98.737c-0.334-0.098-0.667-0.216-0.991-0.324l3.307-8.626
								c0.059,0.01,0.118,0.029,0.167,0.059L37.791,98.737z"/>
							<path fill="#ABABAB" d="M38.262,98.845c-0.334-0.069-0.657-0.167-0.991-0.275l2.915-8.773
								c0.049,0.02,0.108,0.039,0.186,0.049L38.262,98.845z"/>
							<path fill="#ABABAB" d="M38.743,98.953c-0.334-0.069-0.657-0.137-0.991-0.236l2.512-8.891c0.059,0.02,0.137,0.02,0.196,0.049
								L38.743,98.953z"/>
							<path fill="#ABABAB" d="M39.214,99.032c-0.324-0.039-0.657-0.118-0.991-0.186l2.129-8.989
								c0.069,0.01,0.128,0.039,0.216,0.039L39.214,99.032z"/>
							<path fill="#ABABAB" d="M39.685,99.09c-0.324-0.049-0.648-0.079-0.981-0.147l1.747-9.077c0.069,0.02,0.157,0.02,0.226,0.029
								L39.685,99.09z"/>
							<path fill="#ABABAB" d="M40.146,99.13c-0.314-0.01-0.648-0.069-0.972-0.108l1.384-9.136c0.079,0,0.147,0.029,0.236,0.029
								L40.146,99.13z"/>
							<path fill="#ABABAB" d="M40.607,99.149c-0.324-0.02-0.628-0.02-0.962-0.069l1.021-9.185c0.069,0.02,0.167,0.01,0.255,0.02
								L40.607,99.149z"/>
							<path fill="#ABABAB" d="M41.069,99.169c-0.314-0.01-0.638-0.02-0.952-0.039l0.677-9.215c0.088,0,0.177,0.01,0.265,0.01
								L41.069,99.169z"/>
							<path fill="#ABABAB" d="M41.52,99.149c-0.314,0.02-0.638,0.02-0.952,0l0.343-9.234c0.088,0.01,0.177,0.01,0.265,0
								L41.52,99.149z"/>
							<path fill="#ABABAB" d="M41.981,99.13c-0.314,0.02-0.638,0.029-0.952,0.039l0.01-9.244c0.088-0.01,0.177-0.01,0.265-0.01
								L41.981,99.13z"/>
							<path fill="#ABABAB" d="M42.452,99.09c-0.334,0.049-0.638,0.049-0.962,0.069l-0.314-9.234c0.088-0.01,0.186,0,0.255-0.02
								L42.452,99.09z"/>
							<path fill="#ABABAB" d="M42.923,99.022c-0.324,0.039-0.657,0.098-0.972,0.108l-0.648-9.215c0.088,0,0.157-0.029,0.236-0.029
								L42.923,99.022z"/>
							<path fill="#ABABAB" d="M43.394,98.943c-0.334,0.069-0.648,0.098-0.981,0.147l-0.991-9.185
								c0.079-0.02,0.167-0.01,0.226-0.029L43.394,98.943z"/>
							<path fill="#ABABAB" d="M43.865,98.835c-0.334,0.079-0.667,0.157-0.991,0.186l-1.344-9.136c0.088,0,0.147-0.029,0.216-0.039
								L43.865,98.835z"/>
							<path fill="#ABABAB" d="M44.346,98.718c-0.334,0.088-0.657,0.157-0.991,0.236l-1.717-9.077
								c0.069-0.02,0.137-0.029,0.196-0.049L44.346,98.718z"/>
							<path fill="#ABABAB" d="M44.827,98.57c-0.334,0.118-0.667,0.216-0.991,0.275l-2.1-8.999c0.069-0.01,0.128-0.029,0.177-0.049
								L44.827,98.57z"/>
							<path fill="#ABABAB" d="M45.298,98.403c-0.324,0.118-0.657,0.226-0.991,0.324l-2.483-8.891
								c0.049-0.02,0.108-0.039,0.167-0.049L45.298,98.403z"/>
							<path fill="#ABABAB" d="M45.769,98.207c-0.324,0.147-0.657,0.275-0.991,0.373l-2.875-8.783
								c0.059-0.01,0.108-0.029,0.147-0.059L45.769,98.207z"/>
							<path fill="#ABABAB" d="M46.24,97.991c-0.324,0.147-0.648,0.294-0.981,0.432l-3.278-8.636
								c0.049-0.02,0.088-0.049,0.137-0.059L46.24,97.991z"/>
							<path fill="#ABABAB" d="M46.701,97.736c-0.314,0.186-0.638,0.343-0.972,0.481l-3.68-8.479
								c0.049-0.02,0.098-0.029,0.128-0.059L46.701,97.736z"/>
							<path fill="#ABABAB" d="M47.163,97.471c-0.314,0.186-0.628,0.373-0.952,0.53l-4.092-8.282
								c0.039-0.02,0.069-0.049,0.108-0.059L47.163,97.471z"/>
							<path fill="#ABABAB" d="M47.604,97.177c-0.294,0.226-0.608,0.412-0.932,0.589l-4.494-8.076
								c0.039-0.02,0.079-0.039,0.098-0.059L47.604,97.177z"/>
							<path fill="#ABABAB" d="M48.036,96.863c-0.294,0.216-0.599,0.442-0.913,0.638l-4.897-7.841
								c0.039-0.02,0.059-0.049,0.088-0.069L48.036,96.863z"/>
							<path fill="#ABABAB" d="M48.438,96.51c-0.275,0.255-0.569,0.471-0.873,0.687l-5.289-7.576
								c0.029-0.02,0.069-0.039,0.088-0.069L48.438,96.51z"/>
							<path fill="#ABABAB" d="M48.841,96.156c-0.275,0.255-0.55,0.51-0.844,0.736l-5.682-7.291c0.029-0.02,0.049-0.049,0.079-0.069
								L48.841,96.156z"/>
							<path fill="#ABABAB" d="M49.214,95.764c-0.245,0.285-0.52,0.53-0.805,0.775l-6.055-6.977c0.02-0.02,0.059-0.039,0.069-0.069
								L49.214,95.764z"/>
							<path fill="#ABABAB" d="M49.567,95.361c-0.245,0.275-0.491,0.559-0.765,0.824l-6.418-6.644
								c0.029-0.02,0.039-0.059,0.069-0.069L49.567,95.361z"/>
							<path fill="#ABABAB" d="M49.901,94.939c-0.216,0.304-0.461,0.589-0.716,0.864l-6.761-6.3c0.02-0.029,0.049-0.039,0.069-0.079
								L49.901,94.939z"/>
							<path fill="#ABABAB" d="M50.215,94.498c-0.216,0.304-0.432,0.608-0.667,0.893l-7.095-5.927
								c0.02-0.029,0.039-0.059,0.069-0.088L50.215,94.498z"/>
							<path fill="#ABABAB" d="M50.489,94.046c-0.177,0.324-0.393,0.618-0.618,0.922l-7.389-5.545
								c0.02-0.029,0.049-0.049,0.059-0.088L50.489,94.046z"/>
							<path fill="#ABABAB" d="M50.754,93.585c-0.186,0.324-0.353,0.638-0.569,0.942l-7.674-5.152
								c0.02-0.029,0.029-0.069,0.059-0.098L50.754,93.585z"/>
							<path fill="#ABABAB" d="M50.98,93.124c-0.137,0.334-0.324,0.648-0.51,0.962l-7.919-4.75c0.02-0.039,0.049-0.059,0.059-0.118
								L50.98,93.124z"/>
							<path fill="#ABABAB" d="M51.186,92.643c-0.147,0.334-0.285,0.657-0.461,0.981l-8.155-4.337
								c0.02-0.029,0.029-0.088,0.059-0.128L51.186,92.643z"/>
							<path fill="#ABABAB" d="M51.373,92.172c-0.108,0.334-0.255,0.667-0.402,0.991l-8.361-3.935
								c0.01-0.049,0.049-0.079,0.059-0.137L51.373,92.172z"/>
							<path fill="#ABABAB" d="M51.53,91.681c-0.118,0.334-0.206,0.667-0.353,1.001l-8.547-3.523
								c0.029-0.039,0.029-0.108,0.049-0.157L51.53,91.681z"/>
							<path fill="#ABABAB" d="M51.657,91.201c-0.069,0.334-0.196,0.667-0.304,1.001l-8.704-3.111
								c0.01-0.059,0.049-0.098,0.049-0.167L51.657,91.201z"/>
							<path fill="#ABABAB" d="M51.775,90.72c-0.079,0.334-0.137,0.667-0.255,1.001l-8.832-2.708
								c0.029-0.049,0.02-0.128,0.049-0.186L51.775,90.72z"/>
							<path fill="#ABABAB" d="M51.863,90.249c-0.049,0.324-0.137,0.667-0.216,1.001l-8.94-2.316
								c0.01-0.069,0.039-0.118,0.039-0.196L51.863,90.249z"/>
							<path fill="#ABABAB" d="M51.932,89.768c-0.039,0.334-0.079,0.657-0.167,0.991l-9.038-1.923
								c0.02-0.059,0.02-0.137,0.029-0.216L51.932,89.768z"/>
							<path fill="#ABABAB" d="M51.981,89.297c-0.029,0.324-0.079,0.657-0.128,0.991l-9.107-1.531c0-0.079,0.02-0.147,0.029-0.226
								L51.981,89.297z"/>
							<path fill="#ABABAB" d="M52.01,88.836c-0.01,0.314-0.039,0.648-0.088,0.972l-9.166-1.168c0.02-0.069,0.02-0.147,0.02-0.245
								L52.01,88.836z"/>
							<path fill="#ABABAB" d="M52.03,88.374c-0.01,0.324-0.02,0.648-0.039,0.962l-9.205-0.805c0-0.088,0-0.177,0.01-0.255
								L52.03,88.374z"/>
							<path fill="#ABABAB" d="M52.03,88.031c0,0.157-0.01,0.53-0.02,0.844l-9.225-0.461c0-0.098,0.02-0.128,0.01-0.383
								C42.796,88.031,52.03,88.031,52.03,88.031z"/>
							<path fill="#ABABAB" d="M52.03,87.736c0,0.236,0.01,0.343-0.01,0.677l-9.234-0.128c0.01-0.079,0-0.373,0-0.55
								C42.786,87.736,52.03,87.736,52.03,87.736z"/>
							<rect x="42.786" y="87.442" fill="#ABABAB" width="9.244" height="0.608"/>
							<rect x="42.786" y="87.148" fill="#ABABAB" width="9.244" height="0.608"/>
							<rect x="42.786" y="86.853" fill="#ABABAB" width="9.244" height="0.608"/>
							<rect x="42.786" y="86.559" fill="#ABABAB" width="9.244" height="0.608"/>
							<rect x="42.786" y="86.264" fill="#ABABAB" width="9.244" height="0.608"/>
							<rect x="42.786" y="85.97" fill="#ABABAB" width="9.244" height="0.608"/>
							<rect x="42.786" y="85.676" fill="#ABABAB" width="9.244" height="0.608"/>
							<rect x="42.786" y="85.381" fill="#ABABAB" width="9.244" height="0.608"/>
							<rect x="42.786" y="85.097" fill="#ABABAB" width="9.244" height="0.608"/>
							<rect x="42.786" y="84.802" fill="#ABABAB" width="9.244" height="0.608"/>
							<rect x="42.786" y="84.508" fill="#ABABAB" width="9.244" height="0.608"/>
							<rect x="42.786" y="84.213" fill="#ABABAB" width="9.244" height="0.608"/>
							<rect x="42.786" y="83.919" fill="#ABABAB" width="9.244" height="0.608"/>
							<rect x="42.786" y="83.625" fill="#ABABAB" width="9.244" height="0.608"/>
							<rect x="42.786" y="83.33" fill="#ABABAB" width="9.244" height="0.608"/>
							<rect x="42.786" y="83.036" fill="#ABABAB" width="9.244" height="0.608"/>
							<rect x="42.786" y="82.741" fill="#ABABAB" width="9.244" height="0.608"/>
							<rect x="42.786" y="82.447" fill="#ABABAB" width="9.244" height="0.608"/>
							<rect x="42.786" y="82.153" fill="#ABABAB" width="9.244" height="0.608"/>
							<rect x="42.786" y="81.858" fill="#ABABAB" width="9.244" height="0.608"/>
							<rect x="42.786" y="81.564" fill="#ABABAB" width="9.244" height="0.608"/>
							<rect x="42.786" y="81.279" fill="#ABABAB" width="9.244" height="0.608"/>
							<rect x="42.786" y="80.985" fill="#ABABAB" width="9.244" height="0.608"/>
							<rect x="42.786" y="80.69" fill="#ABABAB" width="9.244" height="0.608"/>
							<rect x="42.786" y="80.396" fill="#ABABAB" width="9.244" height="0.608"/>
							<rect x="42.786" y="80.102" fill="#ABABAB" width="9.244" height="0.608"/>
							<rect x="42.786" y="79.807" fill="#ABABAB" width="9.244" height="0.608"/>
							<rect x="42.786" y="79.513" fill="#ABABAB" width="9.244" height="0.608"/>
							<rect x="42.786" y="79.218" fill="#ABABAB" width="9.244" height="0.608"/>
							<rect x="42.786" y="78.924" fill="#ABABAB" width="9.244" height="0.608"/>
							<rect x="42.786" y="78.63" fill="#ABABAB" width="9.244" height="0.608"/>
							<rect x="42.786" y="78.335" fill="#ABABAB" width="9.244" height="0.608"/>
							<rect x="42.786" y="78.041" fill="#ABABAB" width="9.244" height="0.608"/>
							<rect x="42.786" y="77.746" fill="#ABABAB" width="9.244" height="0.608"/>
							<rect x="42.786" y="77.462" fill="#ABABAB" width="9.244" height="0.608"/>
							<rect x="42.786" y="77.168" fill="#ABABAB" width="9.244" height="0.608"/>
							<rect x="42.786" y="76.873" fill="#ABABAB" width="9.244" height="0.608"/>
							<rect x="42.786" y="76.579" fill="#ABABAB" width="9.244" height="0.608"/>
							<rect x="42.786" y="76.284" fill="#ABABAB" width="9.244" height="0.608"/>
							<rect x="42.786" y="75.99" fill="#ABABAB" width="9.244" height="0.608"/>
							<rect x="42.786" y="75.696" fill="#ABABAB" width="9.244" height="0.608"/>
							<rect x="42.786" y="75.401" fill="#ABABAB" width="9.244" height="0.608"/>
							<rect x="42.786" y="75.107" fill="#ABABAB" width="9.244" height="0.608"/>
							<rect x="42.786" y="74.812" fill="#ABABAB" width="9.244" height="0.608"/>
							<rect x="42.786" y="74.518" fill="#ABABAB" width="9.244" height="0.608"/>
							<rect x="42.786" y="74.224" fill="#ABABAB" width="9.244" height="0.608"/>
							<rect x="42.786" y="73.929" fill="#ABABAB" width="9.244" height="0.608"/>
							<rect x="42.786" y="73.635" fill="#ABABAB" width="9.244" height="0.608"/>
							<rect x="42.786" y="73.35" fill="#ABABAB" width="9.244" height="0.608"/>
							<rect x="42.786" y="73.056" fill="#ABABAB" width="9.244" height="0.608"/>
							<rect x="42.786" y="72.761" fill="#ABABAB" width="9.244" height="0.608"/>
							<rect x="42.786" y="72.467" fill="#ABABAB" width="9.244" height="0.608"/>
							<rect x="42.786" y="72.173" fill="#ABABAB" width="9.244" height="0.608"/>
							<rect x="42.786" y="71.878" fill="#ABABAB" width="9.244" height="0.608"/>
							<rect x="42.786" y="71.584" fill="#ABABAB" width="9.244" height="0.608"/>
							<rect x="42.786" y="71.289" fill="#ABABAB" width="9.244" height="0.608"/>
							<rect x="42.786" y="70.995" fill="#ABABAB" width="9.244" height="0.608"/>
							<rect x="42.786" y="70.701" fill="#ABABAB" width="9.244" height="0.608"/>
							<rect x="42.786" y="70.406" fill="#ABABAB" width="9.244" height="0.608"/>
							<rect x="42.786" y="70.112" fill="#ABABAB" width="9.244" height="0.608"/>
							<rect x="42.786" y="69.817" fill="#ABABAB" width="9.244" height="0.608"/>
						</g>
					</g>
				</g>
			</g>
		</g>
	</g>
</g>
<g id="_x0022_B">
	<path fill="#ABABAB" d="M11.599,71.172h7.998c4.387,0,6.418,0.422,8.312,2.522c1.158,1.187,1.541,2.767,1.541,4.279
		c0,2.002-0.913,4.033-3.013,5.221c4.171,1.472,4.279,4.946,4.279,6.035c0,2.071-0.805,4.347-2.385,5.643
		c-2.385,2.002-4.102,2.247-8.489,2.247h-8.243V71.172z M17.948,81.024h2.345c0.913,0,2.807,0,2.807-2.071
		c0-1.963-1.786-1.963-2.807-1.963h-2.345V81.024z M17.948,91.299h3.121c0.844,0,3.297,0,3.297-2.493
		c0-2.247-2.247-2.247-3.297-2.247h-3.121V91.299z"/>
</g>
</svg>
