<?xml version="1.0" encoding="utf-8"?>
<!-- Generator: Adobe Illustrator 17.0.0, SVG Export Plug-In . SVG Version: 6.00 Build 0)  -->
<!DOCTYPE svg PUBLIC "-//W3C//DTD SVG 1.1//EN" "http://www.w3.org/Graphics/SVG/1.1/DTD/svg11.dtd">
<svg version="1.1" id="Layer_1" xmlns="http://www.w3.org/2000/svg" xmlns:xlink="http://www.w3.org/1999/xlink" x="0px" y="0px"
	 width="159px" height="159px" viewBox="0 0 159 159" enable-background="new 0 0 159 159" xml:space="preserve">
<path fill="#ABABAB" d="M111.292,52.745c26.663,0.359,42.23,16.724,24.587,39.116c-8.103,10.298-21.833,20.476-40.114,27.062
	c-0.878,0.319-1.756,0.599-2.634,0.918c-1.716,0.559-3.433,1.078-5.109,1.597c-3.952,1.118-7.823,2.115-11.575,2.834
	c-3.991,0.798-7.863,1.437-11.615,1.836c-2.674,0.239-5.229,0.439-7.743,0.479c-17.004,0.439-29.816-4.231-33.967-14.17
	c-5.029-11.895,5.149-28.499,25.505-41.112C33.578,77.373,6.197,91.622,5.039,112.098v2.594c0.12,2.076,0.519,4.151,1.197,6.346
	c4.351,13.81,24.827,20.237,50.891,17.922c2.555-0.2,5.109-0.519,7.743-0.918c3.792-0.559,7.664-1.317,11.615-2.235
	c3.792-0.918,7.664-1.996,11.575-3.193c0.878-0.319,1.716-0.559,2.594-0.878c1.756-0.559,3.473-1.158,5.149-1.796
	c22.592-8.222,39.356-19.119,49.135-31.652c5.588-7.185,8.462-13.89,9.021-19.758v-4.51
	C152.364,59.092,134.961,50.35,111.292,52.745z M93.969,45.361c0.639,0,1.197-0.08,1.756-0.2c3.792-0.958,5.628-4.989,5.788-9.739
	c0.16-5.069-1.636-9.3-5.788-9.899c-0.359-0.08-0.718-0.08-1.118-0.08c-3.313,0-5.468,1.996-6.626,4.909
	c-0.559,1.517-0.918,3.233-0.958,5.069c-0.08,2.195,0.2,4.271,0.958,5.947C89.099,43.764,91.015,45.361,93.969,45.361z
	 M93.889,47.037c-1.676,0-3.113,0.16-4.351,0.479l0.359,0.479l0.639,1.158l0.519,1.197l0.439,1.237l0.319,1.277l0.2,1.277
	l0.12,1.317l0.04,1.277v1.357l-0.08,1.317l-0.08,1.317l-0.16,1.317l-0.16,1.317l-0.239,1.317l-0.239,1.317l-0.239,1.277
	l-0.319,1.277l-0.239,1.237l-0.319,1.197l-0.319,1.158l-0.319,1.118l-0.239,1.078l-0.239,1.038l-0.12,0.639l-0.16,0.718l-0.16,0.758
	l-0.12,0.798l-0.16,0.878l-0.12,0.718v0.16l-0.16,0.958l-0.319,1.197l-0.12,0.998l-0.16,1.038l-0.12,1.038l-0.16,1.038l-0.12,1.078
	l-0.16,1.038l-0.12,1.078l-0.12,1.078l-0.12,1.078v0.04c0.239,3.073,0.479,5.708,0.599,7.225c0.12,1.716,0.479,2.954,1.038,3.792
	c0.798,1.237,2.155,1.676,4.031,1.836c1.597-0.16,2.794-0.479,3.712-1.317c0.878-0.798,1.357-2.155,1.716-4.311
	c0.679-4.431,2.674-18.959,4.391-25.186c2.435-8.981,8.342-25.306-6.107-26.543C95.127,47.037,94.528,47.037,93.889,47.037z
	 M76.367,42.447h0.08c5.588-0.04,8.222-5.149,8.222-11.416s-2.634-11.416-8.222-11.455h-0.08c-5.668,0-8.302,5.149-8.302,11.455
	S70.699,42.447,76.367,42.447z M64.831,68.951c0.519,2.195,1.038,4.191,1.477,6.027c1.756,7.185,3.473,23.829,4.111,28.858
	c0.599,5.069,2.395,6.147,6.027,6.506c3.552-0.359,5.388-1.437,5.987-6.506c0.599-5.029,2.355-21.714,4.071-28.858
	c0.439-1.796,0.998-3.832,1.517-6.027c1.597-6.586,2.874-14.289,0-19.279c-1.836-3.193-5.388-5.269-11.575-5.269
	c-6.227,0-9.779,2.115-11.615,5.269C61.958,54.621,63.275,62.365,64.831,68.951z M57.128,45.162c0.559,0.12,1.118,0.2,1.756,0.2
	c2.954,0,4.909-1.597,5.987-4.031c0.679-1.676,0.998-3.752,0.958-5.947c-0.08-1.836-0.399-3.552-0.958-5.069
	c-1.158-2.914-3.353-4.909-6.626-4.909c-0.399,0-0.758,0-1.118,0.08c-4.151,0.599-5.987,4.83-5.788,9.899
	C51.46,40.172,53.336,44.204,57.128,45.162z M55.412,98.847c0.319,2.155,0.878,3.473,1.716,4.311
	c0.918,0.878,2.115,1.158,3.712,1.317c1.876-0.16,3.193-0.599,4.031-1.836c0.519-0.798,0.878-2.076,1.038-3.792
	c0.12-1.517,0.359-4.111,0.599-7.185v-0.08l-0.12-1.078l-0.12-1.078l-0.16-1.078l-0.12-1.038l-0.12-1.078l-0.16-1.038l-0.12-1.038
	l-0.16-1.038l-0.16-0.998l-0.12-0.958l-0.16-0.958v-0.12l-0.12-0.758l-0.16-0.878l-0.16-0.798l-0.12-0.758l-0.16-0.718l-0.16-0.639
	l-0.2-1.038l-0.319-1.078l-0.239-1.118l-0.319-1.158l-0.319-1.197l-0.319-1.237l-0.239-1.277l-0.319-1.277l-0.239-1.317l-0.2-1.317
	l-0.16-1.317l-0.16-1.317l-0.12-1.317l-0.04-1.357v-1.317l0.04-1.277l0.12-1.317l0.2-1.277l0.319-1.277l0.399-1.237l0.559-1.197
	l0.639-1.158l0.359-0.479c-1.237-0.319-2.714-0.479-4.351-0.479c-0.639,0-1.237,0-1.836,0.08
	c-14.449,1.237-8.542,17.562-6.107,26.543C52.737,79.887,54.693,94.416,55.412,98.847z"/>
</svg>
