<svg width="264.829" height="173.64" xmlns="http://www.w3.org/2000/svg" xmlns:xlink="http://www.w3.org/1999/xlink">
 <g>
  <title>background</title>
  <rect x="-1" y="-1" width="266.829" height="175.64" id="canvas_background" fill="none"/>
 </g>
 <g>
  <title>Layer 1</title>
  <g id="svg_1">
   <path fill="#FFFFFF" d="m251.397,60.682l-0.016,-0.021c-4.752,-7.489 -12.318,-13.727 -27.546,-17.239c-16.923,-23.54 -48.974,-39.422 -85.734,-39.422c-24.165,0 -46.291,6.867 -63.427,18.256c-43.457,2.703 -69.947,15.302 -69.961,15.566c2.326,3.528 22.858,31.68 19.437,63.804c-2.608,24.428 -6.499,34.557 -17.925,61.399c-2.073,4.872 -4.148,9.745 -6.225,14.615c3.977,-2.816 7.955,-5.643 11.928,-8.483c1.619,-1.158 3.252,-2.332 4.899,-3.52c14.438,-10.567 29.561,-22.114 48.633,-31.466c18.009,15.502 43.884,25.225 72.641,25.225c34.465,0 64.785,-13.963 82.386,-35.105c8.082,2.24 14.274,3.981 20.4,3.806c14.302,-0.572 22.769,-8.629 23.779,-22.22c1.507,-20.72 -7.795,-37.283 -13.269,-45.195" id="svg_2"/>
   <g id="svg_3">
    <defs transform="translate(0,6) ">
     <path id="SVGID_1_" d="m11.304,156.295c3.365,-7.898 6.005,-14.38 8.151,-20.237c0.061,-0.165 0.122,-0.331 0.182,-0.495c0.123,-0.34 0.246,-0.678 0.366,-1.014c0.066,-0.185 0.132,-0.369 0.197,-0.553c0.389,-1.094 0.761,-2.17 1.117,-3.23c0.065,-0.196 0.131,-0.392 0.196,-0.587c0.1,-0.301 0.199,-0.602 0.297,-0.902c0.066,-0.203 0.131,-0.406 0.196,-0.608c0.325,-1.009 0.636,-2.009 0.934,-3.004c0.065,-0.216 0.13,-0.432 0.194,-0.648c0.082,-0.278 0.163,-0.555 0.243,-0.832c0.065,-0.223 0.129,-0.446 0.192,-0.669c0.093,-0.325 0.185,-0.651 0.275,-0.976c0.104,-0.372 0.206,-0.745 0.307,-1.118c0.069,-0.26 0.138,-0.52 0.206,-0.781c0.064,-0.241 0.128,-0.483 0.19,-0.725c0.067,-0.258 0.133,-0.517 0.198,-0.776c0.065,-0.257 0.129,-0.516 0.193,-0.774c0.064,-0.259 0.129,-0.517 0.191,-0.776c0.105,-0.432 0.208,-0.867 0.309,-1.302c0.056,-0.24 0.111,-0.482 0.166,-0.723c0.063,-0.278 0.126,-0.556 0.188,-0.835c0.055,-0.244 0.109,-0.489 0.163,-0.734c0.067,-0.312 0.134,-0.624 0.201,-0.938c0.046,-0.216 0.092,-0.431 0.138,-0.648c0.099,-0.478 0.198,-0.959 0.295,-1.444c0.046,-0.228 0.091,-0.46 0.136,-0.69c0.063,-0.32 0.126,-0.641 0.188,-0.965c0.045,-0.234 0.09,-0.47 0.135,-0.706c0.073,-0.39 0.146,-0.785 0.219,-1.182c0.029,-0.161 0.059,-0.32 0.089,-0.483c0.097,-0.538 0.193,-1.084 0.289,-1.633c0.038,-0.216 0.075,-0.434 0.112,-0.651c0.066,-0.385 0.132,-0.774 0.198,-1.167c0.037,-0.222 0.074,-0.444 0.111,-0.668c0.081,-0.489 0.161,-0.983 0.241,-1.483c0.021,-0.126 0.041,-0.251 0.061,-0.378c0.094,-0.589 0.187,-1.189 0.281,-1.794c0.033,-0.216 0.066,-0.436 0.1,-0.654c0.068,-0.446 0.136,-0.897 0.204,-1.353c0.033,-0.222 0.067,-0.445 0.1,-0.67c0.09,-0.61 0.181,-1.227 0.271,-1.855l0.02,-0.139c3.534,-24.527 -6.899,-42.314 -13.452,-55.783c19.588,-9.015 44.409,-15.643 76.793,-16.815c1.741,-0.061 3.487,-0.094 5.236,-0.102c0.285,-0.002 0.569,-0.002 0.854,-0.002c4.088,0 8.185,0.135 12.238,0.377c13.007,0.776 25.568,2.644 35.996,4.631c1.391,0.265 2.743,0.532 4.053,0.799c1.312,0.266 2.579,0.533 3.803,0.797c3.668,0.792 6.922,1.561 9.654,2.245c1.072,0.268 2.139,0.546 3.202,0.828c0.232,0.061 0.464,0.122 0.696,0.184c1.038,0.279 2.072,0.562 3.102,0.853c0.153,0.043 0.305,0.087 0.457,0.13c0.942,0.268 1.881,0.541 2.815,0.817c0.19,0.057 0.383,0.113 0.573,0.17c1.017,0.304 2.029,0.613 3.036,0.926c0.208,0.064 0.413,0.13 0.62,0.195c0.944,0.296 1.886,0.595 2.819,0.897c0.101,0.033 0.203,0.065 0.305,0.098c1.008,0.328 2.007,0.66 3.001,0.996c0.216,0.072 0.43,0.144 0.644,0.217c0.997,0.338 1.99,0.678 2.973,1.021l0.14,0.049c0.967,0.339 1.927,0.68 2.88,1.023c0.17,0.061 0.341,0.122 0.511,0.184c0.978,0.352 1.948,0.707 2.91,1.063c0.11,0.041 0.221,0.082 0.332,0.123c0.938,0.348 1.869,0.697 2.791,1.047l0.22,0.083c0.985,0.374 1.96,0.748 2.925,1.122l0.269,0.104c1.991,0.773 3.942,1.545 5.846,2.308l0.003,0.001c2.931,1.176 5.75,2.333 8.441,3.447c-3.317,-1.294 -6.782,-2.615 -10.367,-3.928c5.48,2.177 10.57,4.295 15.134,6.196c2.011,0.837 3.932,1.639 5.76,2.389c0.416,0.173 0.823,0.338 1.229,0.502c0.536,0.189 1.07,0.386 1.606,0.573c0.627,0.214 1.255,0.428 1.883,0.641c3.179,1.178 5.721,1.956 7.75,2.425c0.922,0.255 1.846,0.492 2.771,0.716c0.647,0.084 1.243,0.132 1.77,0.132c1.724,0 2.827,-0.457 3.288,-1.359c0.211,-0.414 0.267,-0.887 0.218,-1.381c0.084,-0.096 0.173,-0.181 0.267,-0.253c1.688,2.47 3.87,6.032 5.92,10.514l-0.075,-0.209c3.712,8.094 7.055,19.237 6.115,32.139c-1.007,13.519 -10.999,18.636 -22.278,18.787c-0.097,0 -0.194,0.001 -0.292,0.001c-4.272,0 -8.713,-0.698 -12.905,-1.914c-25.077,-6.854 -39.427,-10.215 -64.656,-10.471l-0.178,0.001l-0.052,-0.001c-0.183,0 -0.354,0 -0.536,0c-76.341,0 -113.434,27.679 -145.189,50.72c-0.087,0.152 -0.155,0.265 -0.187,0.295l-0.068,0.055c-0.556,0.402 -1.106,0.8 -1.654,1.197"/>
    </defs>
    <clipPath transform="translate(0,6) " id="SVGID_2_">
     <use xlink:href="#SVGID_1_" id="svg_4" y="10" x="0"/>
    </clipPath>
    <g clip-path="url(#SVGID_2_)" id="svg_5"/>
   </g>
   <path fill="#a9aaaa" d="m154.489,115.438c-34.307,-0.211 -60.13,6.03 -81.184,15.117c16.199,12.219 38.262,19.741 62.582,19.741c30.022,0 56.604,-11.458 72.959,-29.066c-12.653,-3.036 -29.555,-5.905 -54.357,-5.792m-50.38,-93.375c23.084,1.11 45.954,6.35 60.3,9.985c19.746,4.974 38.901,13.371 53.914,19.838c-13.938,-24.702 -45.599,-41.953 -82.436,-41.953c-18.546,0 -35.78,4.375 -50.102,11.871c5.856,-0.117 11.968,-0.047 18.324,0.259" id="svg_10"/>
   <g id="svg_11">
    <defs>
     <path id="SVGID_5_" d="m79.302,130.695c-0.706,-0.445 -1.402,-0.899 -2.089,-1.361c0.688,0.462 1.385,0.915 2.089,1.361c0,0 0,0 0,0m105.022,4.585c0.004,-0.002 0.008,-0.004 0.012,-0.006c-0.003,0.001 -0.009,0.005 -0.012,0.006m-0.145,0.072c0.017,-0.008 0.032,-0.016 0.048,-0.023c-0.016,0.007 -0.032,0.015 -0.048,0.023m-0.139,0.069c0.022,-0.012 0.042,-0.021 0.064,-0.032c-0.02,0.01 -0.042,0.021 -0.064,0.032m-0.143,0.07c0.028,-0.014 0.054,-0.026 0.082,-0.041c-0.026,0.014 -0.054,0.028 -0.082,0.041m-0.141,0.07c0.035,-0.017 0.071,-0.035 0.105,-0.052c-0.034,0.017 -0.071,0.035 -0.105,0.052m-58.537,10.247c-15.053,-1.386 -28.967,-5.669 -40.803,-12.112c0.006,0.003 0.012,0.005 0.018,0.007c11.832,6.439 25.74,10.719 40.785,12.105m0.545,0.049c-0.182,-0.016 -0.363,-0.032 -0.544,-0.049c0.181,0.017 0.362,0.033 0.544,0.049m0.143,0.012c-0.042,-0.004 -0.084,-0.007 -0.126,-0.011c0.042,0.004 0.084,0.008 0.126,0.011m0.274,0.023c-0.089,-0.007 -0.179,-0.015 -0.269,-0.022c0.091,0.007 0.179,0.015 0.269,0.022m0.129,0.011c-0.037,-0.003 -0.073,-0.006 -0.111,-0.009c0.036,0.003 0.075,0.006 0.111,0.009m0.15,0.012c-0.041,-0.003 -0.081,-0.006 -0.122,-0.01c0.04,0.004 0.082,0.007 0.122,0.01m0.141,0.012c-0.045,-0.004 -0.089,-0.008 -0.135,-0.011c0.045,0.003 0.091,0.007 0.135,0.011m0.128,0.01c-0.038,-0.003 -0.078,-0.006 -0.117,-0.009c0.039,0.003 0.078,0.006 0.117,0.009m0.134,0.01c-0.035,-0.002 -0.068,-0.005 -0.103,-0.008c0.034,0.003 0.068,0.006 0.103,0.008m0.289,0.022c-0.087,-0.006 -0.174,-0.013 -0.261,-0.02c0.087,0.007 0.174,0.014 0.261,0.02m0.13,0.01c-0.034,-0.002 -0.07,-0.005 -0.104,-0.008c0.034,0.003 0.069,0.005 0.104,0.008m0.136,0.01c-0.035,-0.002 -0.069,-0.005 -0.103,-0.007c0.033,0.002 0.069,0.005 0.103,0.007m0.287,0.021c-0.086,-0.006 -0.173,-0.013 -0.26,-0.019c0.087,0.006 0.173,0.013 0.26,0.019m0.132,0.009c-0.033,-0.003 -0.068,-0.005 -0.101,-0.007c0.033,0.002 0.067,0.004 0.101,0.007m0.137,0.009c-0.035,-0.002 -0.07,-0.005 -0.106,-0.007c0.035,0.002 0.072,0.005 0.106,0.007m0.157,0.011c-0.043,-0.003 -0.087,-0.006 -0.13,-0.009c0.043,0.003 0.087,0.006 0.13,0.009m0.127,0.008c-0.038,-0.002 -0.077,-0.005 -0.114,-0.007c0.039,0.002 0.075,0.005 0.114,0.007m0.138,0.009c-0.035,-0.002 -0.069,-0.004 -0.103,-0.007c0.033,0.003 0.069,0.005 0.103,0.007m0.154,0.01c-0.042,-0.003 -0.085,-0.006 -0.127,-0.008c0.043,0.003 0.083,0.005 0.127,0.008m0.136,0.008c-0.045,-0.002 -0.089,-0.005 -0.134,-0.008c0.046,0.003 0.088,0.006 0.134,0.008m0.13,0.008c-0.036,-0.002 -0.072,-0.004 -0.109,-0.006c0.037,0.002 0.073,0.004 0.109,0.006m0.137,0.009c-0.034,-0.003 -0.07,-0.005 -0.104,-0.007c0.035,0.002 0.069,0.004 0.104,0.007m0.157,0.009c-0.044,-0.003 -0.088,-0.005 -0.131,-0.008c0.044,0.003 0.087,0.005 0.131,0.008m0.129,0.007c-0.04,-0.002 -0.079,-0.004 -0.119,-0.007c0.039,0.003 0.079,0.005 0.119,0.007m0.129,0.007c-0.031,-0.001 -0.061,-0.003 -0.092,-0.005c0.031,0.002 0.062,0.004 0.092,0.005m0.141,0.008c-0.033,-0.002 -0.067,-0.003 -0.1,-0.005c0.033,0.002 0.067,0.003 0.1,0.005m0.158,0.009c-0.044,-0.003 -0.085,-0.005 -0.129,-0.007c0.042,0.002 0.087,0.005 0.129,0.007m0.129,0.007c-0.036,-0.002 -0.072,-0.004 -0.108,-0.006c0.037,0.002 0.071,0.004 0.108,0.006m0.13,0.006c-0.031,-0.001 -0.062,-0.003 -0.093,-0.005c0.031,0.002 0.063,0.004 0.093,0.005m0.148,0.008c-0.035,-0.002 -0.071,-0.004 -0.106,-0.006c0.035,0.002 0.071,0.004 0.106,0.006m0.148,0.007c-0.042,-0.002 -0.085,-0.004 -0.127,-0.006c0.042,0.002 0.085,0.004 0.127,0.006m0.132,0.006c-0.032,-0.001 -0.064,-0.003 -0.096,-0.004c0.032,0.001 0.064,0.003 0.096,0.004m0.135,0.007c-0.032,-0.002 -0.064,-0.003 -0.096,-0.005c0.032,0.002 0.064,0.003 0.096,0.005m0.154,0.007c-0.041,-0.002 -0.08,-0.004 -0.12,-0.006c0.041,0.002 0.079,0.004 0.12,0.006m0.136,0.006c-0.041,-0.002 -0.082,-0.004 -0.122,-0.006c0.041,0.002 0.081,0.004 0.122,0.006m0.13,0.005c-0.028,-0.001 -0.056,-0.002 -0.084,-0.003c0.028,0.001 0.056,0.002 0.084,0.003m0.132,0.006c-0.029,-0.001 -0.056,-0.003 -0.085,-0.004c0.028,0.001 0.057,0.003 0.085,0.004m0.17,0.007c-0.042,-0.002 -0.082,-0.004 -0.124,-0.005c0.041,0.001 0.083,0.003 0.124,0.005m0.125,0.005c-0.032,-0.002 -0.065,-0.003 -0.097,-0.004c0.033,0.001 0.064,0.002 0.097,0.004m0.133,0.005c-0.027,-0.001 -0.055,-0.002 -0.083,-0.003c0.028,0.001 0.056,0.002 0.083,0.003m0.139,0.005c-0.031,-0.001 -0.061,-0.002 -0.092,-0.004c0.031,0.002 0.062,0.003 0.092,0.004m0.161,0.006c-0.042,-0.002 -0.083,-0.003 -0.125,-0.005c0.041,0.002 0.084,0.003 0.125,0.005m0.13,0.004c-0.031,-0.001 -0.06,-0.002 -0.091,-0.003c0.029,0.001 0.062,0.002 0.091,0.003m0.133,0.005c-0.028,-0.001 -0.057,-0.002 -0.086,-0.003c0.029,0.001 0.057,0.002 0.086,0.003m0.16,0.005c-0.039,-0.002 -0.079,-0.003 -0.118,-0.004c0.04,0.001 0.078,0.002 0.118,0.004m0.141,0.004c-0.044,-0.001 -0.086,-0.003 -0.13,-0.004c0.044,0.001 0.086,0.003 0.13,0.004m0.126,0.004c-0.03,-0.001 -0.061,-0.002 -0.091,-0.003c0.029,0.001 0.062,0.002 0.091,0.003m6.762,0.003c16.323,-0.464 31.536,-4.315 44.519,-10.68c-12.982,6.365 -28.196,10.216 -44.519,10.68m-6.625,0.001c-0.029,-0.001 -0.06,-0.002 -0.089,-0.003c0.029,0.001 0.059,0.002 0.089,0.003m6.459,0.003c0.054,-0.001 0.108,-0.003 0.161,-0.004c-0.055,0.001 -0.106,0.003 -0.161,0.004m-6.291,0.001c-0.043,-0.001 -0.085,-0.002 -0.127,-0.003c0.041,0.001 0.085,0.002 0.127,0.003m6.127,0.004c0.05,-0.002 0.1,-0.003 0.15,-0.004c-0.049,0.001 -0.101,0.002 -0.15,0.004m-5.998,0c-0.038,-0.001 -0.074,-0.002 -0.111,-0.003c0.037,0.001 0.074,0.002 0.111,0.003m0.132,0.003c-0.03,-0.001 -0.061,-0.002 -0.091,-0.002c0.029,0 0.061,0.001 0.091,0.002m5.69,0.001c0.051,-0.001 0.101,-0.003 0.151,-0.004c-0.049,0.001 -0.102,0.003 -0.151,0.004m-5.54,0.003c-0.036,-0.001 -0.072,-0.002 -0.108,-0.003c0.037,0.001 0.071,0.002 0.108,0.003m5.375,0.001c0.047,-0.001 0.094,-0.002 0.143,-0.004c-0.049,0.002 -0.096,0.003 -0.143,0.004m-5.224,0.002c-0.043,-0.001 -0.089,-0.002 -0.132,-0.003c0.044,0.001 0.088,0.002 0.132,0.003m5.053,0.001c0.046,-0.001 0.092,-0.001 0.137,-0.003c-0.045,0.002 -0.091,0.002 -0.137,0.003m-4.923,0.002c-0.034,-0.001 -0.068,-0.002 -0.103,-0.003c0.034,0.001 0.07,0.002 0.103,0.003m0.132,0.002c-0.03,0 -0.06,-0.001 -0.09,-0.001c0.029,0 0.06,0.001 0.09,0.001m4.595,0c0.054,-0.001 0.106,-0.002 0.159,-0.003c-0.053,0.001 -0.106,0.002 -0.159,0.003m-4.438,0.003c-0.038,0 -0.076,-0.001 -0.114,-0.002c0.037,0.001 0.077,0.002 0.114,0.002m4.283,0c0.047,0 0.093,-0.001 0.14,-0.002c-0.047,0.001 -0.093,0.002 -0.14,0.002m-4.137,0.003c-0.044,-0.001 -0.088,-0.002 -0.132,-0.002c0.044,0 0.087,0.001 0.132,0.002m3.986,0c0.039,-0.001 0.077,-0.001 0.115,-0.002c-0.038,0.001 -0.076,0.001 -0.115,0.002m-3.854,0.002c-0.035,-0.001 -0.069,-0.001 -0.104,-0.002c0.034,0.001 0.07,0.001 0.104,0.002m3.683,0.001c0.038,-0.001 0.072,-0.001 0.109,-0.002c-0.037,0.001 -0.071,0.001 -0.109,0.002m-3.547,0.001c-0.034,0 -0.067,-0.001 -0.101,-0.001c0.034,0 0.067,0.001 0.101,0.001m3.373,0.001c0.037,0 0.072,-0.001 0.109,-0.001c-0.037,0 -0.071,0.001 -0.109,0.001m-3.208,0.001c-0.044,0 -0.087,-0.001 -0.131,-0.001c0.044,0 0.086,0.001 0.131,0.001m3.03,0.002c0.039,-0.001 0.073,-0.001 0.111,-0.002c-0.035,0.001 -0.073,0.001 -0.111,0.002m-2.899,0c-0.043,0 -0.086,-0.001 -0.129,-0.002c0.042,0.001 0.086,0.002 0.129,0.002m0.133,0.002c-0.032,-0.001 -0.068,-0.001 -0.101,-0.002c0.034,0.001 0.067,0.001 0.101,0.002m2.572,0c0.044,-0.001 0.088,-0.001 0.132,-0.002c-0.044,0.001 -0.088,0.001 -0.132,0.002m-2.436,0.001c-0.033,0 -0.066,-0.001 -0.099,-0.001c0.033,0 0.066,0.001 0.099,0.001m2.246,0.001c0.049,-0.001 0.099,-0.001 0.147,-0.002c-0.047,0.001 -0.1,0.001 -0.147,0.002m-2.084,0.001c-0.043,-0.001 -0.084,-0.001 -0.127,-0.002c0.043,0.001 0.084,0.001 0.127,0.002m1.933,0c0.042,0 0.081,0 0.123,-0.001c-0.04,0 -0.083,0.001 -0.123,0.001m-1.802,0.001c-0.033,-0.001 -0.068,-0.001 -0.101,-0.001c0.034,0 0.067,0 0.101,0.001m1.64,0c0.037,0 0.071,0 0.108,0c-0.036,0 -0.071,0 -0.108,0m-1.508,0c-0.029,0 -0.059,0 -0.088,0c0.03,0 0.058,0 0.088,0m1.334,0.001c0.035,0 0.07,0 0.107,0c-0.034,0 -0.073,0 -0.107,0m-1.188,0c-0.033,0 -0.069,0 -0.101,0c0.034,0 0.067,0 0.101,0m1.028,0.001c0.031,0 0.061,0 0.092,0c-0.031,0 -0.061,0 -0.092,0m-0.871,0c-0.042,0 -0.086,0 -0.128,-0.001c0.043,0.001 0.085,0.001 0.128,0.001m0.131,0c-0.031,0 -0.064,0 -0.096,0c0.032,0 0.065,0 0.096,0m0.138,0.001c-0.03,0 -0.063,0 -0.095,0c0.031,0 0.064,0 0.095,0m0.167,0c-0.043,0 -0.087,0 -0.13,0c0.043,0 0.087,0 0.13,0c0.118,0 0.234,0 0.352,-0.001c-0.117,0.001 -0.235,0.001 -0.352,0.001"/>
    </defs>
    <clipPath id="SVGID_6_">
     <use xlink:href="#SVGID_5_" id="svg_12" y="4" x="0"/>
    </clipPath>
    <rect x="77.213" y="133.334" clip-path="url(#SVGID_6_)" fill="#F1F0F1" width="107.123" height="16.962" id="svg_13"/>
   </g>
   <path fill="#666666" d="m135.888,150.296c-0.043,0 -0.087,0 -0.13,0c-0.013,0 -0.024,0 -0.037,0c-0.031,0 -0.064,0 -0.095,0c-0.014,-0.001 -0.029,-0.001 -0.043,-0.001c-0.031,0 -0.064,0 -0.096,0c-0.012,0 -0.022,0 -0.035,0c-0.043,0 -0.085,0 -0.128,-0.001c-0.01,0 -0.019,0 -0.029,0c-0.034,0 -0.067,0 -0.101,0c-0.016,0 -0.03,0 -0.045,-0.001c-0.03,0 -0.058,0 -0.088,0c-0.015,0 -0.029,0 -0.044,0c-0.034,-0.001 -0.067,-0.001 -0.101,-0.001c-0.01,0 -0.02,0 -0.03,0c-0.043,-0.001 -0.084,-0.001 -0.127,-0.002c-0.012,0 -0.024,0 -0.035,0c-0.033,0 -0.066,-0.001 -0.099,-0.001c-0.013,0 -0.024,0 -0.037,0c-0.034,-0.001 -0.067,-0.001 -0.101,-0.002c-0.011,0 -0.021,0 -0.032,0c-0.043,0 -0.087,-0.001 -0.129,-0.002l-0.002,0c-0.045,0 -0.087,-0.001 -0.131,-0.001c-0.011,-0.001 -0.022,-0.001 -0.034,-0.001c-0.034,0 -0.067,-0.001 -0.101,-0.001c-0.011,-0.001 -0.024,-0.001 -0.035,-0.001c-0.034,-0.001 -0.07,-0.001 -0.104,-0.002c-0.009,0 -0.019,0 -0.028,0c-0.045,-0.001 -0.088,-0.002 -0.132,-0.002c-0.005,-0.001 -0.009,-0.001 -0.014,-0.001c-0.037,0 -0.077,-0.001 -0.114,-0.002c-0.014,0 -0.029,0 -0.043,-0.001c-0.03,0 -0.061,-0.001 -0.09,-0.001c-0.014,-0.001 -0.028,-0.001 -0.042,-0.001c-0.033,-0.001 -0.069,-0.002 -0.103,-0.003c-0.009,0 -0.017,0 -0.027,0c-0.044,-0.001 -0.088,-0.002 -0.132,-0.003c-0.007,0 -0.012,0 -0.019,0c-0.037,-0.001 -0.071,-0.002 -0.108,-0.003c-0.013,0 -0.028,-0.001 -0.042,-0.001c-0.03,-0.001 -0.062,-0.002 -0.091,-0.002c-0.014,-0.001 -0.028,-0.001 -0.041,-0.001c-0.037,-0.001 -0.074,-0.002 -0.111,-0.003c-0.005,0 -0.013,-0.001 -0.018,-0.001c-0.042,-0.001 -0.086,-0.002 -0.127,-0.003c-0.014,-0.001 -0.027,-0.001 -0.041,-0.001c-0.03,-0.001 -0.06,-0.002 -0.089,-0.003c-0.016,0 -0.031,-0.001 -0.048,-0.001c-0.029,-0.001 -0.062,-0.002 -0.091,-0.003c-0.012,0 -0.023,-0.001 -0.035,-0.001c-0.044,-0.001 -0.086,-0.003 -0.13,-0.004c-0.004,0 -0.007,0 -0.011,0c-0.04,-0.002 -0.078,-0.003 -0.118,-0.004c-0.014,-0.001 -0.028,-0.001 -0.042,-0.001c-0.029,-0.001 -0.057,-0.002 -0.086,-0.003c-0.015,-0.001 -0.032,-0.001 -0.047,-0.002c-0.029,-0.001 -0.062,-0.002 -0.091,-0.003c-0.013,0 -0.026,-0.001 -0.039,-0.001c-0.041,-0.002 -0.084,-0.003 -0.125,-0.005c-0.011,0 -0.024,-0.001 -0.036,-0.001c-0.03,-0.001 -0.061,-0.002 -0.092,-0.004c-0.015,0 -0.032,-0.001 -0.047,-0.001c-0.027,-0.001 -0.055,-0.002 -0.083,-0.003c-0.017,-0.001 -0.032,-0.002 -0.05,-0.002c-0.033,-0.002 -0.064,-0.003 -0.097,-0.004c-0.01,-0.001 -0.019,-0.001 -0.028,-0.001c-0.041,-0.002 -0.083,-0.004 -0.124,-0.005c-0.015,-0.001 -0.031,-0.002 -0.046,-0.002c-0.028,-0.001 -0.057,-0.003 -0.085,-0.004c-0.015,0 -0.033,-0.001 -0.047,-0.002c-0.028,-0.001 -0.056,-0.002 -0.084,-0.003c-0.016,-0.001 -0.03,-0.002 -0.046,-0.002c-0.041,-0.002 -0.081,-0.004 -0.122,-0.006c-0.005,0 -0.01,0 -0.014,0c-0.041,-0.002 -0.079,-0.004 -0.12,-0.006c-0.012,0 -0.023,-0.001 -0.034,-0.001c-0.032,-0.002 -0.064,-0.003 -0.096,-0.005c-0.013,0 -0.026,-0.001 -0.039,-0.002c-0.032,-0.001 -0.064,-0.003 -0.096,-0.004c-0.011,-0.001 -0.024,-0.001 -0.036,-0.002c-0.042,-0.002 -0.085,-0.004 -0.127,-0.006c-0.007,-0.001 -0.014,-0.001 -0.021,-0.001c-0.035,-0.002 -0.071,-0.004 -0.106,-0.006c-0.014,0 -0.028,-0.001 -0.042,-0.002c-0.03,-0.001 -0.062,-0.003 -0.093,-0.005c-0.013,0 -0.024,-0.001 -0.037,-0.001c-0.037,-0.002 -0.071,-0.004 -0.108,-0.006c-0.007,-0.001 -0.014,-0.001 -0.021,-0.001c-0.042,-0.002 -0.087,-0.005 -0.129,-0.007c-0.009,-0.001 -0.02,-0.001 -0.029,-0.002c-0.033,-0.002 -0.067,-0.003 -0.1,-0.005c-0.014,-0.001 -0.027,-0.002 -0.041,-0.003c-0.03,-0.001 -0.062,-0.003 -0.092,-0.005c-0.012,0 -0.026,-0.001 -0.037,-0.002c-0.04,-0.002 -0.08,-0.004 -0.119,-0.007c-0.004,0 -0.007,0 -0.01,0c-0.044,-0.003 -0.087,-0.005 -0.131,-0.008c-0.009,0 -0.017,-0.001 -0.026,-0.001c-0.035,-0.003 -0.069,-0.005 -0.104,-0.007c-0.01,0 -0.022,-0.001 -0.033,-0.002c-0.036,-0.002 -0.072,-0.004 -0.109,-0.006c-0.007,-0.001 -0.015,-0.001 -0.021,-0.002c-0.046,-0.002 -0.088,-0.005 -0.134,-0.008c-0.001,0 -0.001,0 -0.002,0c-0.044,-0.003 -0.084,-0.005 -0.127,-0.008c-0.01,-0.001 -0.018,-0.001 -0.027,-0.002c-0.034,-0.002 -0.07,-0.004 -0.103,-0.007c-0.012,0 -0.024,-0.001 -0.035,-0.002c-0.039,-0.002 -0.075,-0.005 -0.114,-0.007c-0.005,-0.001 -0.008,-0.001 -0.013,-0.001c-0.043,-0.003 -0.087,-0.006 -0.13,-0.009c-0.01,-0.001 -0.017,-0.001 -0.027,-0.002c-0.034,-0.002 -0.071,-0.005 -0.106,-0.007c-0.01,-0.001 -0.021,-0.002 -0.031,-0.002c-0.034,-0.003 -0.068,-0.005 -0.101,-0.007c-0.011,-0.001 -0.02,-0.002 -0.031,-0.002c-0.087,-0.006 -0.173,-0.013 -0.26,-0.019c-0.009,-0.001 -0.018,-0.001 -0.027,-0.002c-0.034,-0.002 -0.07,-0.005 -0.103,-0.007c-0.011,-0.001 -0.022,-0.002 -0.033,-0.003c-0.035,-0.003 -0.07,-0.005 -0.104,-0.008c-0.01,0 -0.017,-0.001 -0.026,-0.002c-0.087,-0.006 -0.174,-0.013 -0.261,-0.02c-0.009,0 -0.019,-0.001 -0.028,-0.002c-0.035,-0.002 -0.069,-0.005 -0.103,-0.008c-0.01,-0.001 -0.02,-0.001 -0.031,-0.002c-0.039,-0.003 -0.078,-0.006 -0.117,-0.009c-0.003,-0.001 -0.007,-0.001 -0.011,-0.001c-0.044,-0.004 -0.09,-0.008 -0.135,-0.011c-0.001,0 -0.004,-0.001 -0.006,-0.001c-0.04,-0.003 -0.082,-0.006 -0.122,-0.01c-0.009,0 -0.018,-0.001 -0.028,-0.002c-0.036,-0.003 -0.075,-0.006 -0.111,-0.009c-0.005,-0.001 -0.012,-0.001 -0.018,-0.002c-0.09,-0.007 -0.178,-0.015 -0.269,-0.021c-0.002,-0.001 -0.003,-0.001 -0.005,-0.001c-0.042,-0.003 -0.084,-0.007 -0.126,-0.011c-0.006,0 -0.012,-0.001 -0.017,-0.001c-0.182,-0.016 -0.363,-0.032 -0.544,-0.049l-0.001,0c-15.045,-1.386 -28.953,-5.666 -40.785,-12.104c12.711,5.163 27.146,8.095 42.469,8.095c28.509,0 53.992,-10.093 70.895,-25.945c-8.148,-1.154 -17.839,-1.991 -29.691,-1.991c-4.628,0 -9.586,0.128 -14.908,0.414c-30.966,1.333 -54.594,7.684 -73.896,16.419c-0.704,-0.446 -1.401,-0.899 -2.089,-1.361c-1.28,-0.859 -2.527,-1.747 -3.744,-2.659c20.671,-8.909 45.937,-15.064 79.334,-15.064c0.563,0 1.119,0.001 1.688,0.004c0.477,-0.002 0.954,-0.003 1.427,-0.003c24.751,0 41.142,2.967 52.789,5.764c-6.614,7.084 -14.884,13.165 -24.371,17.898c-0.004,0.002 -0.008,0.004 -0.012,0.006c-0.033,0.016 -0.064,0.032 -0.098,0.048c-0.016,0.008 -0.031,0.016 -0.048,0.024c-0.023,0.012 -0.049,0.025 -0.074,0.037c-0.022,0.011 -0.042,0.021 -0.064,0.032c-0.021,0.01 -0.04,0.019 -0.061,0.029c-0.028,0.015 -0.054,0.027 -0.083,0.041c-0.012,0.007 -0.022,0.012 -0.035,0.018c-0.034,0.017 -0.07,0.035 -0.105,0.052c-0.006,0.003 -0.012,0.006 -0.017,0.008c-12.982,6.365 -28.195,10.216 -44.519,10.68c-0.002,0 -0.003,0 -0.005,0c-0.053,0.001 -0.107,0.003 -0.161,0.004c-0.005,0 -0.009,0 -0.014,0.001c-0.051,0.001 -0.101,0.002 -0.15,0.004c-0.009,0 -0.016,0 -0.024,0c-0.052,0.001 -0.101,0.003 -0.151,0.004c-0.009,0 -0.014,0 -0.022,0c-0.049,0.002 -0.096,0.003 -0.143,0.004c-0.011,0 -0.022,0 -0.034,0c-0.045,0.002 -0.091,0.002 -0.137,0.003c-0.012,0.001 -0.025,0.001 -0.037,0.001c-0.053,0.001 -0.105,0.002 -0.159,0.003c-0.005,0.001 -0.01,0.001 -0.015,0.001c-0.047,0.001 -0.093,0.002 -0.14,0.002c-0.012,0.001 -0.025,0.001 -0.036,0.001c-0.038,0.001 -0.076,0.001 -0.115,0.002c-0.021,0 -0.041,0.001 -0.062,0.001c-0.037,0.001 -0.071,0.001 -0.109,0.002c-0.021,0 -0.044,0 -0.064,0.001c-0.037,0 -0.072,0.001 -0.109,0.001c-0.022,0.001 -0.044,0.001 -0.066,0.001c-0.038,0.001 -0.072,0.001 -0.111,0.002c-0.021,0 -0.041,0 -0.063,0c-0.044,0.001 -0.088,0.001 -0.132,0.002c-0.016,0 -0.028,0 -0.043,0c-0.049,0.001 -0.099,0.001 -0.147,0.002c-0.011,0 -0.017,0 -0.027,0c-0.043,0.001 -0.081,0.001 -0.123,0.001c-0.02,0 -0.035,0 -0.054,0.001c-0.037,0 -0.071,0 -0.108,0c-0.021,0 -0.045,0.001 -0.066,0.001c-0.037,0 -0.072,0 -0.107,0c-0.024,0 -0.045,0.001 -0.068,0.001c-0.031,0 -0.061,0 -0.092,0c-0.027,0 -0.057,0 -0.084,0c-0.121,-0.001 -0.237,-0.001 -0.355,-0.001" id="svg_14"/>
   <path fill="#FFFFFF" d="m102.86,136.217l1.565,0.538l2.873,-8.34l-1.561,-0.538l-2.877,8.34m6.647,-9.692l-4.547,-1.559l-0.432,1.256l4.543,1.563l0.436,-1.26zm-0.405,4.95c-0.422,1.633 0.707,2.428 2.128,3.299c0.917,0.564 1.485,1.077 1.288,1.845c-0.177,0.684 -0.845,0.991 -1.837,0.732c-0.743,-0.19 -1.743,-0.64 -2.466,-1.165l-0.675,1.115c0.599,0.508 1.705,1.052 2.899,1.365c1.787,0.46 3.357,-0.168 3.766,-1.751c0.351,-1.349 -0.464,-2.365 -1.969,-3.255c-0.893,-0.533 -1.65,-1.053 -1.456,-1.805c0.182,-0.704 0.926,-0.865 1.828,-0.631c0.536,0.137 1.4,0.511 2.062,1.008l0.684,-1.21c-0.558,-0.388 -1.431,-0.845 -2.411,-1.098c-1.748,-0.451 -3.433,-0.03 -3.841,1.551zm8.031,0.976l2.743,0.432l-1.182,7.402l1.632,0.259l1.179,-7.401l2.73,0.436l0.213,-1.313l-7.106,-1.128l-0.209,1.313zm8.638,8.764l1.646,0.142l0.77,-8.784l-1.647,-0.145l-0.769,8.787zm5.227,0.401l5.817,0.107l0.023,-1.316l-4.165,-0.079l0.047,-2.567l3.29,0.063l0.024,-1.331l-3.292,-0.061l0.043,-2.279l4.108,0.079l0.025,-1.331l-5.763,-0.108l-0.157,8.823zm17.107,-10.398l1.672,-1.892l-1.08,-0.377l-1.189,1.197l-1.432,-0.896l-0.976,0.617l2.055,1.459l0.95,-0.108zm0.667,8.462c-2.164,0.248 -2.921,-0.872 -3.146,-2.807c-0.242,-2.093 0.384,-3.334 2.468,-3.574c0.912,-0.102 1.637,-0.001 2.2,0.147l0.211,-1.312c-0.754,-0.233 -1.915,-0.243 -2.827,-0.138c-3.117,0.359 -4.011,2.556 -3.72,5.071c0.275,2.392 1.725,4.307 4.612,3.974c1.227,-0.14 2.274,-0.62 2.966,-1.07l-0.413,-1.16c-0.657,0.395 -1.534,0.774 -2.351,0.869zm4.206,-8.348l1.641,8.667l1.622,-0.306l-1.643,-8.665l-1.62,0.304zm7.577,-1.695l-3.046,0.807l2.259,8.529l1.597,-0.425l-0.855,-3.233l1.315,-0.346c1.689,-0.449 3.11,-1.588 2.594,-3.549c-0.436,-1.642 -1.758,-2.339 -3.864,-1.783zm0.916,4.051l-1.301,0.342l-0.721,-2.709l1.088,-0.288c1.1,-0.292 1.989,-0.35 2.297,0.809c0.253,0.955 -0.316,1.57 -1.363,1.846zm8.678,-3.293c-1.037,0.076 -1.954,0.079 -2.224,-0.65c-0.256,-0.678 0.267,-1.236 1.137,-1.562c0.521,-0.192 1.443,-0.382 2.27,-0.351l-0.129,-1.385c-0.682,0 -1.658,0.124 -2.608,0.477c-1.691,0.631 -2.837,1.941 -2.269,3.471c0.588,1.578 1.969,1.586 3.637,1.486c1.074,-0.06 1.835,0.034 2.111,0.775c0.246,0.668 -0.125,1.298 -1.089,1.656c-0.715,0.267 -1.795,0.471 -2.692,0.453l0.085,1.304c0.783,0.072 2.003,-0.113 3.163,-0.545c1.729,-0.643 2.659,-2.055 2.089,-3.585c-0.486,-1.308 -1.736,-1.674 -3.481,-1.544zm5.116,-6.146l-1.499,0.694l3.714,8.005l1.5,-0.694l-3.715,-8.005z" id="svg_15"/>
   <g id="svg_16">
    <defs>
     <path id="SVGID_7_" d="m222.458,49.66l-0.184,-0.078l0.184,0.079l0,-0.001m-151.286,77.834l0.146,-0.066l-0.148,0.065l0.002,0.001zm147.151,-79.608l-0.238,-0.103l0.238,0.103zm-5.78,70.264l0,0l-0.197,-0.051l0.197,0.051zm-76.655,28.146c-24.32,0 -46.383,-7.522 -62.582,-19.741c-0.639,0.275 -1.272,0.554 -1.902,0.835c16.699,13.136 39.855,21.275 65.45,21.275c31.198,0 58.77,-12.087 75.441,-30.579c-1.115,-0.285 -2.261,-0.572 -3.448,-0.856c-16.355,17.608 -42.937,29.066 -72.959,29.066zm82.002,-98.597l0.195,0.084l-0.195,-0.084l0,0zm-144.269,78.721c-0.103,0.044 -0.206,0.088 -0.309,0.132c0.103,-0.044 0.207,-0.087 0.309,-0.132l0,0zm63.233,-121.442c-19.561,0 -37.693,4.756 -52.612,12.861l-0.213,0.007c0.584,-0.016 1.169,-0.031 1.759,-0.042l-0.001,0c14.322,-7.496 31.557,-11.871 50.102,-11.871c36.837,0 68.498,17.25 82.436,41.953c1.292,0.557 2.555,1.099 3.783,1.624c-13.789,-26.131 -46.762,-44.532 -85.254,-44.532z"/>
    </defs>
    <clipPath id="SVGID_8_">
     <use xlink:href="#SVGID_7_" id="svg_17" y="4" x="0"/>
    </clipPath>
   </g>
   <path fill="#c6c6c6" d="m92.685,25.898c-32.383,1.17 -57.204,7.799 -76.794,16.815c6.552,13.469 16.986,31.254 13.454,55.782c-3.534,24.533 -6.673,35.125 -18.041,61.799c0.377,-0.272 1.111,-0.712 1.717,-1.25c0.098,-0.088 0.506,-0.903 0.878,-1.489c0.754,-1.199 1.566,-2.831 2.524,-4.516c7.167,-12.573 18.066,-37.92 20.004,-52.508c3.262,-24.566 3.281,-38.207 -3.42,-51.599c19.489,-9.233 34.462,-15.878 66.833,-17.411c27.837,-1.279 57.381,3.18 71.996,6.665c13.282,3.163 25.794,7.558 37.079,11.855c-0.008,-0.004 1.349,0.405 0.129,-0.125c-13.017,-5.322 -28.229,-11.204 -44.524,-15.274c-14.574,-3.648 -43.984,-9.719 -71.835,-8.744" id="svg_23"/>
   <path fill="#111820" d="m136.854,152.665c-25.596,0 -48.751,-8.139 -65.45,-21.276c-0.614,0.274 -1.224,0.55 -1.83,0.828c3.881,3.102 8.107,5.938 12.633,8.468c15.713,9.191 35.209,14.646 56.305,14.646c32.29,0 60.831,-12.772 77.794,-32.188c-1.288,-0.348 -2.623,-0.702 -4.011,-1.057c-16.672,18.492 -44.243,30.579 -75.441,30.579m107.208,-98.385c-0.121,-0.104 -0.213,-0.176 -0.291,-0.235l-0.03,-0.022l-0.166,-0.108c-5.884,-4.997 -14.216,-7.741 -23.93,-9.379c-6.697,-8.881 -15.701,-16.579 -26.383,-22.568c-15.733,-9.234 -35.273,-14.713 -56.42,-14.713c-21.141,0 -40.676,5.477 -56.406,14.708c1.255,-0.05 2.524,-0.091 3.805,-0.124c14.919,-8.105 33.052,-12.861 52.613,-12.861c38.493,0 71.466,18.401 85.253,44.533c1.457,0.622 2.865,1.217 4.226,1.784c-1.392,-2.808 -3.009,-5.528 -4.813,-8.159c7.099,1.092 13.114,2.762 18.453,5.8c1.391,0.791 5.504,3.147 6.204,6.107c0.029,0.33 0.006,0.648 -0.088,0.937l-0.006,0.018l-0.078,0.191l-0.009,0.02c-0.1,0.2 -0.24,0.383 -0.43,0.542l-0.041,0.031c-0.199,0.159 -0.438,0.279 -0.679,0.364l-0.068,0.026c-0.099,0.032 -0.202,0.062 -0.313,0.088l-0.055,0.011c-0.093,0.021 -0.19,0.039 -0.291,0.055l-0.135,0.018l-0.25,0.028l-0.169,0.012l-0.261,0.011l-0.187,0.004c-0.098,0.001 -0.198,-0.001 -0.299,-0.004l-0.187,-0.004c-0.155,-0.007 -0.315,-0.017 -0.483,-0.031l-0.209,-0.021c-0.125,-0.012 -0.25,-0.025 -0.383,-0.041l-0.266,-0.036c-0.116,-0.016 -0.233,-0.033 -0.354,-0.052c-0.097,-0.015 -0.195,-0.032 -0.296,-0.049c-0.121,-0.021 -0.245,-0.044 -0.372,-0.068c-0.105,-0.02 -0.212,-0.04 -0.321,-0.062c-0.136,-0.028 -0.274,-0.058 -0.414,-0.088c-0.107,-0.024 -0.21,-0.045 -0.32,-0.07c-0.201,-0.047 -0.41,-0.097 -0.623,-0.15c-0.133,-0.033 -0.27,-0.069 -0.407,-0.105c-0.183,-0.047 -0.366,-0.095 -0.557,-0.148c-0.127,-0.035 -0.26,-0.073 -0.391,-0.111c-0.168,-0.048 -0.337,-0.096 -0.512,-0.148c-0.138,-0.04 -0.277,-0.083 -0.42,-0.126c-0.178,-0.054 -0.358,-0.111 -0.544,-0.169c-0.145,-0.046 -0.291,-0.092 -0.439,-0.14c-0.198,-0.064 -0.403,-0.132 -0.607,-0.201c-0.142,-0.047 -0.282,-0.093 -0.427,-0.142c-0.294,-0.101 -0.597,-0.206 -0.905,-0.315c-0.139,-0.049 -0.28,-0.1 -0.422,-0.151c-0.291,-0.105 -0.585,-0.211 -0.888,-0.324c-0.154,-0.057 -0.314,-0.118 -0.472,-0.177c-0.248,-0.093 -0.499,-0.188 -0.756,-0.287c-0.174,-0.067 -0.352,-0.136 -0.529,-0.206c-0.257,-0.1 -0.517,-0.203 -0.78,-0.308c-0.18,-0.071 -0.358,-0.142 -0.541,-0.216c-0.289,-0.116 -0.584,-0.237 -0.882,-0.359c-0.167,-0.069 -0.331,-0.135 -0.501,-0.206c-0.438,-0.181 -0.886,-0.369 -1.344,-0.564l-0.092,-0.039c-11.429,-4.834 -26.626,-11.608 -43.565,-17.35c-5.937,-2.012 -12.081,-3.9 -18.36,-5.53c-14.541,-3.786 -43.893,-10.131 -71.749,-9.418c-27.452,0.739 -51.738,5.495 -70.488,12.301c-3.375,1.225 -6.592,2.508 -9.593,3.855c0.227,0.478 0.463,0.971 0.702,1.473c2.984,6.245 6.879,14.269 10.037,22.9c3.765,10.296 6.478,21.451 5.325,31.476c-0.279,2.43 -0.57,4.753 -0.876,6.999c-0.041,0.306 -0.085,0.605 -0.127,0.909c-0.109,0.777 -0.219,1.55 -0.331,2.309c-0.061,0.413 -0.125,0.818 -0.187,1.225c-0.097,0.634 -0.195,1.266 -0.296,1.889c-0.074,0.461 -0.15,0.917 -0.227,1.373c-0.094,0.56 -0.189,1.117 -0.285,1.67c-0.085,0.481 -0.17,0.959 -0.257,1.434c-0.094,0.516 -0.19,1.028 -0.287,1.539c-0.093,0.491 -0.187,0.982 -0.283,1.47c-0.096,0.484 -0.194,0.965 -0.293,1.445c-0.103,0.502 -0.205,1.003 -0.313,1.501c-0.097,0.457 -0.198,0.912 -0.298,1.367c-0.113,0.512 -0.225,1.025 -0.342,1.534c-0.098,0.43 -0.201,0.859 -0.303,1.288c-0.125,0.531 -0.248,1.062 -0.378,1.592c-0.088,0.359 -0.181,0.718 -0.27,1.077c-0.329,1.311 -0.67,2.625 -1.028,3.947c-0.05,0.183 -0.097,0.366 -0.147,0.549c-0.164,0.598 -0.335,1.201 -0.505,1.802c-0.105,0.371 -0.207,0.74 -0.314,1.113c-0.167,0.578 -0.341,1.164 -0.513,1.748c-0.119,0.401 -0.236,0.801 -0.358,1.206c-0.175,0.583 -0.356,1.173 -0.538,1.763c-0.128,0.415 -0.255,0.829 -0.386,1.248c-0.187,0.595 -0.378,1.198 -0.571,1.803c-0.574,1.797 -1.17,3.628 -1.808,5.526c7.179,-18.064 9.75,-28.685 12.642,-48.781c3.225,-22.381 -4.999,-38.893 -11.608,-52.159c-0.602,-1.211 -1.19,-2.388 -1.75,-3.535c22.18,-10.161 47.188,-15.618 76.447,-16.677c1.978,-0.068 4.023,-0.104 6.083,-0.104c27.401,0 55.057,6.182 65.679,8.84c14.766,3.69 28.975,8.845 41.215,13.707l-0.011,-0.004c1.305,0.519 2.585,1.033 3.844,1.542c0.225,0.091 0.445,0.181 0.669,0.272c1.031,0.419 2.048,0.834 3.045,1.244c0.27,0.11 0.537,0.22 0.803,0.33c0.966,0.397 1.913,0.789 2.844,1.175c0.244,0.101 0.494,0.204 0.734,0.304c0.688,0.286 1.352,0.562 2.018,0.839c0.391,0.163 0.794,0.331 1.177,0.49c0.415,0.173 0.81,0.337 1.218,0.507c1.429,0.594 2.818,1.172 4.151,1.719c0.128,0.053 0.265,0.111 0.393,0.163l0.016,0.006c0.41,0.171 0.813,0.335 1.212,0.496l0.148,0.054c5.988,2.42 10.612,3.858 13.793,4.283l0.068,0.018l0.167,0.017c0.166,0.021 0.327,0.037 0.485,0.051c0.365,0.035 0.716,0.058 1.036,0.061l0.082,0.004c1.69,0 2.783,-0.443 3.258,-1.312l0.029,-0.048c0.077,-0.151 0.127,-0.312 0.165,-0.477l0.022,-0.097c0.029,-0.161 0.045,-0.327 0.044,-0.497l-0.005,-0.095l-0.009,-0.215c0.084,-0.096 0.173,-0.181 0.267,-0.253c1.689,2.47 3.87,6.032 5.92,10.514l-0.006,-0.016c3.695,8.077 6.944,19.104 6.011,31.929c-0.881,11.783 -9.093,18.542 -22.536,18.542c-4.094,0 -8.529,-0.657 -12.828,-1.903c-25.961,-7.098 -39.928,-10.233 -64.732,-10.481l-0.544,-0.001c-33.594,0 -62.539,5.345 -88.489,16.344c-22.652,9.599 -40.137,22.291 -55.56,33.488c-0.529,0.384 -1.053,0.764 -1.58,1.145c-0.053,0.152 -0.109,0.307 -0.163,0.459l-0.001,0c-0.14,0.393 -0.279,0.785 -0.423,1.186c-0.105,0.246 -0.21,0.494 -0.315,0.74c-0.076,0.18 -0.152,0.359 -0.231,0.543l0.002,-0.001l-0.001,0.001c32.369,-23.375 69.54,-52.38 148.11,-52.221c25.278,0.26 39.644,4.212 64.768,11.07c11.086,3.335 22.489,2.824 29.591,-2.637c4.262,-3.277 6.974,-8.335 7.139,-15.414c0.755,-32.369 -17.464,-48.218 -17.403,-48.189z" id="svg_24"/>
   <g id="svg_25">
    <defs>
     <path id="SVGID_11_" d="m12.99,154.744c0.527,-0.381 1.051,-0.761 1.58,-1.145c15.423,-11.197 32.908,-23.889 55.56,-33.488c25.95,-10.999 54.895,-16.344 88.489,-16.344l0.544,0.001c24.805,0.248 38.771,3.383 64.732,10.481c4.299,1.246 8.734,1.903 12.828,1.903c13.443,0 21.655,-6.759 22.536,-18.542c0.933,-12.818 -2.312,-23.839 -6.005,-31.914c0.146,0.4 0.292,0.804 0.43,1.216c-0.178,-0.414 -0.358,-0.835 -0.54,-1.239c-0.253,0.124 -0.842,0.41 -1.12,0.495c-0.894,0.27 -1.944,0.402 -3.219,0.402l-0.188,0c-1.128,-0.017 -2.314,-0.121 -3.627,-0.317c-2.125,-0.314 -4.373,-0.803 -7.293,-1.587c-2.147,-0.582 -4.444,-1.271 -7.227,-2.173c-4.055,-1.313 -8.146,-2.773 -12.104,-4.185l-2.229,-0.792c-4.508,-1.604 -8.337,-2.944 -11.847,-4.144c-0.219,-0.875 -0.824,-1.721 -1.768,-2.438c-0.466,-0.352 -0.949,-0.593 -1.413,-0.766c4.719,1.691 9.436,3.441 13.512,4.957l1.708,0.64c4.083,1.518 8.305,3.092 12.501,4.549c4.892,1.673 9.692,2.906 14.651,3.904c1.391,0.276 2.653,0.456 3.865,0.556c0.629,0.047 1.188,0.072 1.71,0.072c0.847,0 1.613,-0.062 2.354,-0.187c0.27,-0.047 0.803,-0.188 1.131,-0.281c-0.308,-0.644 -0.618,-1.26 -0.927,-1.862c-0.095,0.03 -0.208,0.063 -0.235,0.068c-0.717,0.169 -1.526,0.25 -2.469,0.25c-0.32,0 -0.642,-0.011 -0.963,-0.025c-1.067,-0.055 -2.215,-0.195 -3.61,-0.438c-4.813,-0.878 -9.565,-2.39 -14.412,-3.996c-4.29,-1.439 -8.626,-3.013 -12.816,-4.534l-1.419,-0.515c-4.575,-1.658 -9.446,-3.416 -14.26,-5.092c-22.525,-7.864 -41.12,-12.823 -58.519,-15.613c-9.717,-1.529 -19.841,-2.305 -30.095,-2.305c-9.901,0 -20.103,0.722 -30.316,2.147c-9.895,1.381 -19.868,3.423 -29.639,6.066c-4.933,1.337 -9.8,2.82 -14.466,4.416c-3.733,1.281 -6.961,2.48 -9.891,3.671l0.075,0.218c2.95,-1.17 6.205,-2.349 9.941,-3.597c4.67,-1.551 9.532,-2.99 14.443,-4.275c9.764,-2.553 19.702,-4.499 29.54,-5.791c9.609,-1.259 19.203,-1.721 28.526,-1.721c10.733,0 21.307,0.846 31.424,2.519c17.261,2.9 35.688,7.972 58.003,15.966c0.159,0.056 0.318,0.113 0.478,0.171c-0.792,-0.266 -1.513,-0.323 -1.974,-0.323c-0.568,0 -1.367,0.081 -1.913,0.468l-0.161,0.135c-0.075,0.062 -0.246,0.187 -0.484,0.354c-2.941,-0.956 -5.818,-1.859 -8.644,-2.716c-0.577,-0.904 -2.382,-1.861 -4.188,-1.861c-0.339,0 -0.669,0.032 -0.991,0.099c-0.143,0.031 -0.277,0.067 -0.411,0.107c-14.143,-4.068 -26.975,-6.88 -39.408,-8.658c-8.468,-1.167 -17.269,-1.758 -26.155,-1.758c-9.547,0 -19.377,0.687 -29.287,2.032c-0.126,-0.729 -0.398,-1.354 -0.811,-1.83c-0.55,-0.632 -1.319,-0.982 -2.165,-0.982c-0.305,0 -0.621,0.046 -0.921,0.132c-3.006,0.818 -11.053,3.4 -14.845,4.818c-1.132,0.412 -2.241,1.06 -3.336,1.929c-4.29,1 -8.572,2.106 -12.819,3.335c-4.916,1.423 -9.777,2.994 -14.455,4.674c-2.739,0.992 -5.24,1.947 -7.552,2.881l0.065,0.244c2.341,-0.925 4.872,-1.865 7.62,-2.833c4.66,-1.63 9.514,-3.156 14.436,-4.536c3.88,-1.088 7.79,-2.046 11.71,-2.91c-1.857,1.732 -3.683,4.164 -5.518,7.334c-2.256,0.627 -4.507,1.283 -6.748,1.974c-4.932,1.522 -9.793,3.19 -14.443,4.951c-1.975,0.753 -3.825,1.485 -5.588,2.211c0.019,0.09 0.037,0.178 0.057,0.267c1.787,-0.72 3.666,-1.447 5.672,-2.19c4.674,-1.724 9.527,-3.342 14.425,-4.81c2.077,-0.623 4.167,-1.203 6.26,-1.757c-1.16,2.064 -2.322,4.428 -3.502,7.101c-1.111,0.347 -2.217,0.7 -3.322,1.064c-4.91,1.608 -9.766,3.364 -14.434,5.221c-1.378,0.55 -2.687,1.091 -3.962,1.627c0.015,0.096 0.032,0.191 0.048,0.288c1.306,-0.539 2.649,-1.079 4.064,-1.631c4.685,-1.815 9.534,-3.525 14.414,-5.078c0.975,-0.31 1.952,-0.609 2.933,-0.904l-0.004,0.006l0,0.001c-0.307,0.709 0.016,1.533 0.725,1.842c0.303,0.129 0.627,0.144 0.922,0.066c-0.708,1.281 -1.411,2.742 -2.133,4.378c-1.008,0.338 -2.014,0.675 -3.017,1.021c-4.91,1.702 -9.761,3.551 -14.419,5.494c-0.909,0.378 -1.787,0.754 -2.65,1.128c0.01,0.103 0.022,0.204 0.033,0.308c0.913,-0.388 1.836,-0.772 2.775,-1.157c4.629,-1.884 9.474,-3.683 14.402,-5.348c0.87,-0.295 1.74,-0.573 2.614,-0.855c-0.795,1.836 -1.617,3.893 -2.503,6.201c-0.015,0.039 -0.144,0.373 -0.368,0.957c-0.108,0.04 -0.217,0.078 -0.326,0.116c-4.913,1.797 -9.763,3.733 -14.408,5.757c-0.559,0.245 -1.099,0.483 -1.636,0.723c0.006,0.108 0.014,0.216 0.021,0.326c0.581,-0.255 1.173,-0.51 1.781,-0.769c4.629,-1.97 9.46,-3.854 14.356,-5.6c-0.585,1.521 -1.569,4.092 -2.799,7.295c-4.141,1.631 -8.22,3.353 -12.149,5.134c-0.307,0.141 -0.61,0.284 -0.916,0.429c0.002,0.11 0.004,0.222 0.005,0.338c0.36,-0.163 0.719,-0.324 1.079,-0.485c3.798,-1.688 7.751,-3.321 11.773,-4.876c-0.862,2.246 -1.832,4.778 -2.86,7.453c-3.228,1.371 -6.414,2.796 -9.509,4.256c-0.165,0.079 -0.323,0.155 -0.49,0.236c-0.002,0.119 -0.004,0.238 -0.008,0.356c0.228,-0.104 0.446,-0.209 0.676,-0.315c2.975,-1.377 6.032,-2.712 9.129,-4.005c-0.946,2.465 -1.933,5.041 -2.925,7.623c-2.305,1.052 -4.582,2.13 -6.806,3.22c-0.129,0.064 -0.254,0.124 -0.381,0.188c-0.01,0.124 -0.016,0.25 -0.026,0.372c0.2,-0.096 0.39,-0.191 0.591,-0.286c2.102,-1.011 4.253,-2.006 6.427,-2.981c-1.014,2.646 -2.028,5.289 -2.995,7.813c-1.361,0.666 -2.711,1.335 -4.041,2.01c-0.207,0.106 -0.413,0.215 -0.619,0.323c-0.016,0.127 -0.029,0.252 -0.044,0.38c0.285,-0.144 0.567,-0.289 0.855,-0.433c1.204,-0.6 2.427,-1.2 3.663,-1.791c-1.109,2.897 -2.156,5.628 -3.068,8.014c-0.403,0.21 -0.812,0.418 -1.209,0.626c-0.431,0.229 -0.851,0.453 -1.268,0.675c-0.022,0.131 -0.047,0.261 -0.069,0.392c0.503,-0.261 1.01,-0.528 1.53,-0.798c0.277,-0.142 0.556,-0.275 0.834,-0.417c-1.664,4.346 -2.851,7.46 -3.123,8.193c-0.251,0.138 -0.503,0.277 -0.75,0.417c-0.034,0.137 -0.066,0.269 -0.099,0.405c0.252,-0.142 0.512,-0.282 0.77,-0.422c-0.029,0.46 0.157,0.916 0.534,1.198c0.248,0.191 0.547,0.288 0.848,0.288c0.23,0 0.462,-0.057 0.67,-0.171c5.783,-3.165 11.727,-6.212 17.672,-9.052c0.353,-0.171 0.621,-0.483 0.734,-0.86c0.113,-0.375 0.065,-0.782 -0.138,-1.121l-0.189,-0.244c5.365,-2.384 10.771,-4.551 16.172,-6.553c0.514,0.174 1.082,0.271 1.72,0.271c0.892,0 1.869,-0.205 2.906,-0.603c5.02,-1.916 9.421,-3.411 9.951,-3.589c0.764,-0.202 0.972,-0.706 0.972,-1.389c2.408,-0.749 4.81,-1.455 7.206,-2.122c0.794,0.16 1.617,0.25 2.474,0.25c1.387,0 2.883,-0.212 4.437,-0.632c2.506,-0.666 4.89,-1.694 7.125,-3.077c1.098,-0.235 2.19,-0.455 3.282,-0.672c0.348,0.148 0.748,0.237 1.21,0.237c0.264,0 0.544,-0.03 0.83,-0.089l0.072,-0.021c1.975,-0.524 14.662,-2.589 15.92,-2.7c0.305,0.01 0.594,-0.083 0.83,-0.241c2.145,-0.217 4.275,-0.4 6.39,-0.54c1.221,0.351 2.604,0.532 4.179,0.532c0.539,0 1.104,-0.02 1.69,-0.061c1.918,-0.134 3.67,-0.419 5.279,-0.85l0.076,-0.001c1.296,0 2.611,0.015 3.912,0.046c2.802,0.072 5.616,0.213 7.998,0.338c5.372,0.292 10.748,0.715 15.976,1.257c10.869,1.134 21.498,2.864 31.589,5.143c5.024,1.13 10.242,2.47 15.507,3.981c2.576,0.736 5.177,1.527 7.692,2.29c2.86,0.853 5.433,1.519 7.862,2.035c2.976,0.633 5.62,0.685 8.091,0.875c1.131,0.086 2.165,0.127 3.168,0.127c1.204,0 2.33,-0.066 3.416,-0.189c-1.129,0.859 -2.362,1.587 -3.682,2.188c-0.127,0.002 -0.243,0.01 -0.375,0.01c-0.42,0 -0.841,-0.008 -1.263,-0.021c-2.396,-0.081 -4.977,-0.38 -7.883,-0.914c-2.48,-0.462 -5.029,-1.062 -7.799,-1.836l-1.643,-0.471c-2.02,-0.58 -4.107,-1.182 -6.169,-1.732c-5.367,-1.459 -10.689,-2.733 -15.821,-3.786c-10.2,-2.112 -21.025,-3.646 -32.178,-4.558c-5.281,-0.431 -10.739,-0.738 -16.219,-0.918c-3.187,-0.098 -5.769,-0.153 -8.123,-0.167l-0.568,-0.001c-2.496,0 -5.039,0.057 -7.562,0.173c-10.338,0.477 -21.163,1.936 -32.173,4.338c-10.163,2.22 -20.64,5.275 -31.139,9.08c-9.934,3.599 -19.961,7.887 -29.81,12.748c-4.882,2.411 -9.705,4.953 -14.334,7.563c-1.504,0.853 -2.921,1.666 -4.273,2.462c-0.044,0.137 -0.087,0.276 -0.131,0.416c1.456,-0.843 2.984,-1.713 4.612,-2.616c4.655,-2.574 9.481,-5.071 14.341,-7.425c9.837,-4.76 19.853,-8.773 29.772,-12.281c10.484,-3.703 20.917,-6.662 31.019,-8.793c10.939,-2.305 21.681,-3.677 31.925,-4.075c2.192,-0.088 4.369,-0.13 6.477,-0.13c0.522,0 1.047,0.001 1.566,0.007c2.774,0.031 5.516,0.128 8.06,0.224c5.514,0.218 10.93,0.565 16.106,1.028c11.048,0.98 21.769,2.573 31.869,4.73c5.104,1.088 10.372,2.383 15.647,3.854c2.679,0.745 5.3,1.522 7.757,2.256c2.867,0.835 5.471,1.483 7.941,1.976c1.743,0.346 3.386,0.488 4.964,0.577c-2.501,0.499 -5.154,0.686 -7.858,0.6c-1.139,-0.263 -2.302,-0.55 -3.513,-0.882l-1.188,-0.332c-2.19,-0.616 -4.452,-1.252 -6.689,-1.831c-5.336,-1.4 -10.71,-2.626 -15.975,-3.642c-3.184,-0.615 -6.445,-1.167 -9.765,-1.668c-12.289,-2.634 -23.68,-4 -39.173,-4.006c-50.155,-0.023 -85.765,14.229 -109.721,28.955c-4.845,2.481 -9.619,5.079 -14.186,7.731c-2.658,1.55 -5.054,2.989 -7.271,4.371c-0.063,0.143 -0.129,0.286 -0.192,0.43c2.337,-1.439 4.872,-2.937 7.675,-4.54c2.888,-1.645 5.851,-3.193 8.847,-4.718c-15.516,10.267 -25.472,20.267 -30.836,25.318c0.61,-0.441 1.222,-0.885 1.836,-1.33l0.081,-0.218m169.403,-100.004l0.14,0.198c0.131,0.191 0.28,0.369 0.427,0.549c-14.169,-3.656 -27.559,-6.151 -40.535,-7.566c-4.302,-0.437 -8.704,-0.713 -13.14,-0.847c0.019,-1.581 -0.242,-2.956 -0.79,-4.113c4.634,0.243 9.215,0.642 13.693,1.212c12.184,1.625 24.915,4.289 38.532,8.066c0.356,0.619 0.511,0.839 1.673,2.501zm-48.135,1.661c-0.137,0.097 -0.26,0.222 -0.354,0.361c-0.149,0.221 -0.206,0.6 -0.196,1.07c-1.269,-0.027 -2.538,-0.042 -3.811,-0.042c-0.59,0 -1.186,0.006 -1.783,0.013c0.176,-1.464 0.338,-2.846 0.485,-4.094c3.409,0.064 6.795,0.22 10.132,0.463c-0.812,0.263 -1.578,0.563 -2.294,0.909c-0.929,0.436 -2.054,1.229 -2.179,1.32zm1.462,6.759c-0.935,-0.013 -1.869,-0.035 -2.804,-0.035c-1.806,0 -3.621,0.033 -5.447,0.086c0.168,-1.404 0.334,-2.791 0.494,-4.127c0.113,0 0.228,-0.003 0.341,-0.003c1.867,0 3.728,0.035 5.585,0.093c0.292,1.297 0.922,2.824 1.831,3.986zm-76.007,16.9c0.464,-1.258 0.933,-2.516 1.398,-3.769c0.191,-0.062 0.383,-0.122 0.576,-0.186l0.518,5.674c-1.203,0.42 -2.407,0.847 -3.607,1.284l1.115,-3.003zm1.665,-4.486c0.069,-0.191 0.138,-0.383 0.211,-0.572l0.043,0.486l-0.254,0.086zm-3.033,8.174l0.217,-0.074l-0.224,0.096l0.007,-0.022zm-4.17,11.569c3.031,-1.379 6.062,-2.706 9.042,-3.956c0.066,0.658 0.144,1.586 0.238,2.871c-3.495,1.312 -6.984,2.699 -10.456,4.16c0.609,-1.614 0.977,-2.565 1.176,-3.075zm-2.852,7.58c0.576,-1.559 1.05,-2.834 1.441,-3.872c3.564,-1.462 7.149,-2.826 10.739,-4.108c0.022,0.306 0.042,0.621 0.066,0.962c0.077,1.06 0.197,2.774 0.611,4.504c-4.64,1.801 -9.271,3.741 -13.871,5.806c0.224,-0.941 0.546,-2.026 1.014,-3.292zm0.273,9.323c-0.096,-0.039 -0.195,-0.071 -0.299,-0.089c-0.092,-0.019 -0.574,-0.133 -0.939,-0.771c-0.342,-0.599 -0.7,-1.875 -0.214,-4.409c4.72,-2.081 9.473,-4.031 14.233,-5.835c0.524,1.794 1.403,3.512 2.919,4.442c-5.248,2.048 -10.494,4.274 -15.7,6.662zm12.225,-59.312c-0.92,0.369 -1.765,0.832 -2.559,1.409c1.537,-1.341 3.213,-2.373 4.694,-2.942c2.652,-1.137 12.474,-4.423 16.087,-5.543c9.338,-1.573 18.613,-2.559 27.687,-2.946c0.387,0.728 1.116,2.31 1.522,4.483c-9.826,0.6 -19.879,1.891 -30.023,3.896c-0.359,0.072 -0.722,0.15 -1.081,0.222c0.762,-1.207 1.413,-1.914 1.492,-1.998c0.13,-0.125 0.24,-0.278 0.316,-0.448c0.226,-0.508 0.13,-1.101 -0.245,-1.511c-0.264,-0.29 -0.642,-0.456 -1.035,-0.456l-0.025,0c-0.222,0.004 -0.402,0.053 -0.563,0.129c-2.674,0.739 -13.157,4.43 -16.267,5.705zm15.159,18.341c0.354,-0.087 0.708,-0.18 1.06,-0.266c2.332,-0.571 4.657,-1.105 6.976,-1.603c-0.975,1.774 -1.804,3.678 -2.478,5.717c-1.571,0.394 -3.142,0.797 -4.717,1.226c-0.293,-1.761 -0.575,-3.468 -0.841,-5.074zm0.986,5.943c1.424,-0.374 2.845,-0.73 4.261,-1.073c-0.523,1.741 -0.942,3.574 -1.252,5.494c-0.723,0.196 -1.446,0.407 -2.169,0.611c-0.285,-1.683 -0.565,-3.375 -0.84,-5.032zm1.489,8.936c-0.165,-0.993 -0.334,-2.004 -0.503,-3.018c0.62,-0.168 1.239,-0.343 1.859,-0.508c-0.272,1.937 -0.362,3.688 -0.288,5.263c-0.246,0.072 -0.494,0.15 -0.739,0.224c-0.108,-0.645 -0.217,-1.295 -0.329,-1.961zm1.301,7.796c-0.246,-1.488 -0.525,-3.153 -0.823,-4.936c0.221,-0.062 0.441,-0.13 0.66,-0.191c0.183,1.853 0.629,3.441 1.341,4.775c-0.393,0.118 -0.784,0.231 -1.178,0.352zm0.949,5.816c-0.017,-0.122 -0.039,-0.249 -0.058,-0.376c-0.114,-0.742 -0.291,-1.81 -0.506,-3.121c-0.072,-0.437 -0.151,-0.916 -0.234,-1.408c0.508,-0.15 1.017,-0.294 1.521,-0.442c0.499,0.736 1.086,1.39 1.78,1.946c0.925,0.737 1.931,1.301 3.005,1.71c-1.834,0.538 -3.668,1.106 -5.508,1.691zm5.982,-34.446c-0.738,0.941 -1.407,1.945 -2.036,2.988c-2.558,0.561 -5.128,1.165 -7.704,1.82c-0.369,0.094 -0.737,0.194 -1.109,0.29c-0.311,-1.908 -0.593,-3.646 -0.83,-5.127c0.816,-0.191 1.631,-0.384 2.444,-0.568c4.011,-0.91 8,-1.709 11.966,-2.398c-0.955,0.9 -1.867,1.897 -2.731,2.995zm16.961,15.756c-0.393,0.534 -0.809,0.969 -1.248,1.321c-1.194,0.224 -2.389,0.459 -3.591,0.703c-0.096,-0.108 -0.182,-0.232 -0.261,-0.403c-0.477,-0.963 -0.612,-2.379 -0.41,-4.202c2.373,-0.435 4.736,-0.827 7.086,-1.183c-0.37,1.566 -0.898,2.831 -1.576,3.764zm1.96,-5.887c-0.041,0.328 -0.09,0.642 -0.141,0.95c-2.383,0.374 -4.775,0.786 -7.178,1.247c0.332,-2.082 0.863,-3.752 1.585,-5.008c1.909,-0.304 3.806,-0.581 5.696,-0.832c0.207,0.991 0.224,2.207 0.038,3.643zm-4.837,-4.049c0.724,-0.785 1.576,-1.281 2.559,-1.481c0.223,-0.043 0.432,-0.065 0.618,-0.065c0.629,0 0.986,0.239 1.271,0.847l0.005,0.013c-1.48,0.209 -2.964,0.443 -4.453,0.686zm7.044,-13.828c-2.239,-0.956 -4.878,-1.145 -7.885,-0.546c-3.326,0.68 -6.359,2.127 -9.072,4.306c-4.467,0.785 -8.962,1.703 -13.486,2.766c-0.831,0.197 -1.666,0.404 -2.497,0.61c-0.105,-0.676 -0.204,-1.289 -0.283,-1.818c-0.157,-1.227 -0.156,-2.381 -0.059,-3.473c1.109,-0.246 2.221,-0.484 3.329,-0.716c10.275,-2.136 20.43,-3.554 30.348,-4.247c-0.175,1.368 -0.3,2.378 -0.395,3.118zm0.593,-4.694c-0.021,0.149 -0.034,0.284 -0.053,0.426c-9.991,0.774 -20.218,2.28 -30.555,4.516c-1.057,0.229 -2.113,0.468 -3.17,0.712c0.335,-2.332 1.128,-4.293 1.932,-5.763c0.569,-0.109 1.143,-0.225 1.714,-0.335c10.194,-1.927 20.293,-3.147 30.15,-3.659c0.145,1.231 0.173,2.61 -0.018,4.103zm8.748,-13.478c-1.911,0.165 -4.43,0.465 -6.207,0.688c-4.376,0.544 -4.376,0.544 -4.653,1.432c-0.058,0.185 -0.07,0.377 -0.051,0.563c-7.981,0.426 -16.103,1.312 -24.287,2.652c1.056,-1.013 2.122,-2.675 2.374,-4.476c0.052,-0.37 0.074,-0.728 0.073,-1.066c9.273,-1.178 18.481,-1.783 27.428,-1.783c9.366,0 18.614,0.656 27.496,1.944c11.966,1.804 24.305,4.581 37.837,8.537c-0.171,0.211 -0.313,0.435 -0.418,0.682c-0.261,0.601 -0.292,1.242 -0.119,1.86c-13.046,-3.432 -25.298,-5.861 -37.034,-7.338c-4.88,-0.582 -9.881,-0.969 -14.932,-1.164l-0.191,-0.243c-1.598,-1.797 -4.09,-2.572 -7.316,-2.288zm5.835,36.288c0.866,-0.054 1.725,-0.098 2.587,-0.138c-0.722,1.302 -1.204,2.71 -1.468,4.209c-0.548,0.043 -1.093,0.079 -1.642,0.127c0.15,-1.168 0.326,-2.595 0.523,-4.198zm-0.658,5.49c0.54,-0.044 1.071,-0.077 1.606,-0.116c-0.116,1.475 -0.002,2.851 0.376,4.109c-0.612,0.055 -1.221,0.111 -1.833,0.172c-0.199,-1.138 -0.282,-2.524 -0.149,-4.165zm2.451,9.364c-0.044,-0.303 -0.182,-0.581 -0.4,-0.794c-0.08,-0.079 -1.009,-1.056 -1.611,-3.155c0.675,-0.063 1.35,-0.113 2.026,-0.17c0.428,0.925 0.995,1.784 1.725,2.563c0.443,0.474 0.94,0.89 1.487,1.247c-1.072,0.092 -2.147,0.195 -3.227,0.309zm4.468,-19.335c-1.119,0.917 -2.06,1.92 -2.832,3.001c-1.087,0.056 -2.176,0.12 -3.27,0.195c0.162,-1.319 0.331,-2.729 0.508,-4.183c2.415,-0.1 4.813,-0.156 7.193,-0.163c-0.553,0.352 -1.09,0.73 -1.599,1.15zm11.741,7.001c0.121,-1.041 0.485,-1.87 1.12,-2.513l0.193,-0.163c1.529,0.075 3.031,0.169 4.5,0.276c-0.129,1.193 -0.263,2.386 -0.396,3.58c-1.763,-0.083 -3.578,-0.146 -5.419,-0.18c-0.033,-0.302 -0.039,-0.628 0.002,-1zm1.915,3.01c-0.513,0 -0.902,-0.179 -1.276,-0.564c1.162,0.036 2.303,0.083 3.431,0.139c-0.644,0.255 -1.351,0.405 -2.155,0.425zm3.092,8.354c-0.16,-0.004 -0.327,-0.004 -0.489,-0.006c0.341,-0.171 0.676,-0.351 1,-0.542c0.167,0.197 0.361,0.389 0.574,0.57c-0.36,-0.007 -0.723,-0.018 -1.085,-0.022zm1.594,-21.175c-2.026,-0.741 -4.473,-1.101 -7.342,-1.046c-2.479,0.041 -4.751,0.504 -6.819,1.358c-0.196,0 -0.398,-0.003 -0.6,-0.003c-2.977,0 -5.987,0.08 -9.017,0.229c0.165,-1.367 0.331,-2.763 0.499,-4.152c1.355,-0.032 2.704,-0.053 4.044,-0.053c1.939,0 3.881,0.038 5.812,0.099c1.895,1.381 3.965,1.658 4.065,1.671c0.524,0.066 1.041,-0.169 1.337,-0.606c0.188,-0.282 0.386,-0.535 0.591,-0.774c2.588,0.172 5.122,0.406 7.499,0.661c0.041,0.475 0.048,1.276 -0.069,2.616zm-5.893,-4.571c0.723,-0.407 1.511,-0.617 2.384,-0.617l0.059,0c0.999,0.022 1.813,0.26 2.443,0.699c0.148,0.111 0.282,0.229 0.4,0.349c-1.769,-0.163 -3.531,-0.304 -5.286,-0.431zm20.335,-5.744c2.439,0.463 4.895,0.961 7.366,1.496c-0.112,0.17 -0.226,0.342 -0.319,0.526c-0.366,0.706 -0.651,1.467 -0.88,2.23c-1.299,-0.241 -2.593,-0.471 -3.885,-0.693c-0.464,-1.135 -1.137,-2.236 -2.024,-3.285c-0.08,-0.094 -0.17,-0.184 -0.258,-0.274zm5.761,5.857c-0.235,1.14 -0.356,2.191 -0.418,2.962c-0.757,-0.124 -1.511,-0.253 -2.263,-0.371c0,-1.234 -0.09,-2.279 -0.269,-3.151c0.985,0.18 1.966,0.369 2.95,0.56zm-3.829,15.555c0.068,-0.668 0.13,-1.292 0.192,-1.887c1.448,0.191 2.882,0.392 4.306,0.598c-0.716,0.589 -1.431,1.172 -2.146,1.768c-0.26,0.219 -0.434,0.525 -0.485,0.861l-0.022,0.142c-0.634,-0.071 -1.273,-0.137 -1.91,-0.206c0.003,-0.417 0.019,-0.839 0.065,-1.276zm0.002,2.909c0.583,0.067 1.17,0.133 1.752,0.203c0,0.915 0.096,2.076 0.432,3.214c-0.481,-0.049 -0.975,-0.091 -1.459,-0.136c-0.319,-0.929 -0.6,-2.033 -0.725,-3.281zm6.189,8.603c-1.312,-0.129 -2.634,-0.25 -3.973,-0.361c0.241,-0.27 0.381,-0.619 0.36,-0.995c-0.012,-0.287 -0.114,-0.558 -0.285,-0.779c-0.026,-0.035 -0.414,-0.568 -0.867,-1.489c0.499,0.053 0.988,0.108 1.481,0.165c0.948,1.71 2.372,2.979 3.944,3.529c-0.222,-0.024 -0.439,-0.048 -0.66,-0.07zm0.05,-14.23l-0.175,-0.025c-1.885,-0.269 -3.792,-0.517 -5.708,-0.753c0.122,-1.233 0.229,-2.275 0.315,-3.122c1.598,0.239 3.198,0.488 4.778,0.751c1.292,0.215 2.586,0.439 3.881,0.672c-1.031,0.816 -2.063,1.64 -3.091,2.477zm4.883,-3.881c-1.706,-0.303 -3.406,-0.595 -5.104,-0.864c-1.722,-0.274 -3.453,-0.527 -5.187,-0.771c0.073,-0.739 0.112,-1.121 0.112,-1.121c0.07,-0.702 0.119,-1.351 0.153,-1.971c0.77,0.131 1.534,0.265 2.304,0.4c0.063,0.226 0.182,0.438 0.351,0.606c0.26,0.263 0.619,0.412 0.987,0.412c0.444,0 0.868,-0.226 1.133,-0.58c2.705,0.497 5.431,1.042 8.173,1.63c-0.971,0.741 -1.946,1.498 -2.922,2.259zm4.759,-3.649c-2.767,-0.581 -5.526,-1.119 -8.283,-1.618c0.57,-0.262 1.284,-0.458 2.153,-0.458c0.327,0 0.668,0.027 1.02,0.082c2.14,0.326 4.502,0.74 6.328,1.076c-0.404,0.3 -0.812,0.614 -1.218,0.918zm-3.839,-12.169c-0.442,-0.075 -0.892,-0.115 -1.336,-0.115c-1.499,0 -2.848,0.433 -3.912,1.199c-3.915,-0.825 -7.79,-1.561 -11.628,-2.209c-0.854,-0.445 -1.806,-0.832 -2.866,-1.164c-1.285,-0.428 -2.738,-0.775 -4.326,-1.033c-1.772,-0.279 -3.606,-0.453 -5.448,-0.516c-0.573,-0.021 -1.134,-0.03 -1.68,-0.03c-1.529,0 -2.966,0.088 -4.324,0.25c-0.411,-0.042 -0.827,-0.088 -1.241,-0.125c-4.417,-0.372 -8.952,-0.573 -13.5,-0.619c0.189,-1.619 0.342,-2.934 0.44,-3.788c0.009,-0.091 0.013,-0.179 0.021,-0.273c4.335,0.167 8.633,0.466 12.83,0.921c14.012,1.634 28.496,4.547 43.932,8.84c-3.123,-0.669 -5.813,-1.203 -6.962,-1.338zm76.611,42.341c-1.316,0.686 -2.84,1.183 -4.562,1.475c-0.776,0.133 -1.58,0.225 -2.42,0.281c-0.16,-0.648 -0.252,-1.286 -0.304,-1.914c0.633,-0.022 1.255,-0.056 1.853,-0.117c2.318,-0.243 4.357,-0.802 6.094,-1.655c-0.189,0.673 -0.416,1.312 -0.661,1.93zm1.252,-4.712c-1.649,1.258 -3.833,2.081 -6.497,2.433c-0.65,0.082 -1.335,0.135 -2.034,0.167c0.033,-0.526 0.069,-1.049 0.104,-1.561c0.325,-0.009 0.659,-0.009 0.978,-0.031c3.076,-0.21 5.565,-0.92 7.596,-2.148c-0.044,0.385 -0.09,0.767 -0.147,1.14zm0.361,-4.278c-0.24,0.23 -0.492,0.447 -0.753,0.64c-1.68,1.264 -3.964,2.037 -6.789,2.295c-0.354,0.036 -0.724,0.057 -1.096,0.077c0.04,-0.633 0.079,-1.262 0.121,-1.884c3.352,-0.116 5.909,-0.771 8.037,-2.063c0.175,-0.106 0.344,-0.222 0.51,-0.337c-0.005,0.42 -0.016,0.845 -0.03,1.272zm0.007,-4.08c-0.414,0.479 -0.882,0.897 -1.395,1.242c-1.658,1.155 -3.959,1.824 -6.835,1.986l-0.169,0.005c0.036,-0.619 0.076,-1.236 0.11,-1.855c1.105,-0.039 2.112,-0.138 3.036,-0.305c1.545,-0.282 2.865,-0.732 4.038,-1.38c0.408,-0.224 0.8,-0.489 1.178,-0.779c0.019,0.361 0.028,0.724 0.037,1.086zm-0.237,-3.855c-0.498,0.63 -1.093,1.172 -1.789,1.61c-1.545,0.974 -3.565,1.509 -6.142,1.637c0.015,-0.245 0.029,-0.49 0.043,-0.741c0.02,-0.37 0.005,-0.735 -0.025,-1.093c0.732,-0.023 1.438,-0.069 2.119,-0.159c1.563,-0.209 2.893,-0.592 4.072,-1.17c0.578,-0.28 1.123,-0.636 1.632,-1.042c0.034,0.316 0.06,0.637 0.09,0.958zm-0.446,-3.633c-0.527,0.71 -1.187,1.299 -1.977,1.742c-1.485,0.841 -3.428,1.278 -5.906,1.34c-0.231,-0.646 -0.545,-1.256 -0.918,-1.822c0.261,0.01 0.522,0.017 0.774,0.017c0.667,0 1.287,-0.027 1.896,-0.082c1.575,-0.143 2.917,-0.458 4.104,-0.957c0.679,-0.29 1.313,-0.674 1.89,-1.121c0.05,0.293 0.093,0.588 0.137,0.883zm-53.327,-22.231c0.37,-0.269 0.654,-0.598 0.854,-0.974c4.07,1.432 7.925,2.831 10.996,3.954l2.506,0.916c3.852,1.41 7.836,2.871 11.807,4.204c4.895,1.622 9.711,2.798 14.799,3.682c1.481,0.246 2.728,0.383 3.915,0.428c0.294,0.01 0.595,0.018 0.894,0.018c1.188,0 2.233,-0.11 3.199,-0.335c0.473,-0.112 1.276,-0.438 1.718,-0.62c0.126,0.381 0.252,0.767 0.373,1.154c-0.476,0.415 -1.019,0.739 -1.627,0.961c-0.928,0.342 -2.032,0.53 -3.376,0.577c-0.21,0.008 -0.417,0.009 -0.623,0.009c-0.887,0 -1.876,-0.061 -3.018,-0.19c-2.125,-0.252 -4.461,-0.706 -7.345,-1.428c-2.176,-0.55 -4.489,-1.214 -7.288,-2.089c-3.937,-1.229 -7.908,-2.622 -11.752,-3.969l-2.675,-0.935c-5.498,-1.918 -9.996,-3.445 -14.118,-4.789c0.197,-0.151 0.439,-0.334 0.761,-0.574zm-5.36,22.402c1.677,0.431 3.354,0.873 5.032,1.334c1.78,0.491 3.583,1.004 5.42,1.543c-0.015,0.156 -0.021,0.233 -0.021,0.233c-0.052,0.646 -0.083,1.269 -0.104,1.87c-0.657,-0.175 -1.317,-0.351 -1.969,-0.524c-0.078,-0.491 -0.413,-0.915 -0.899,-1.098c-0.571,-0.213 -1.214,-0.02 -1.588,0.457c-2.811,-0.716 -5.638,-1.387 -8.476,-2.02c0.87,-0.607 1.735,-1.203 2.605,-1.795zm8.457,-13.034c0.03,0.051 0.22,0.381 0.482,0.917c-0.285,-0.089 -0.57,-0.179 -0.858,-0.269c-0.485,-0.962 -1.133,-1.918 -1.928,-2.726c0.744,0.244 1.494,0.493 2.265,0.748c-0.209,0.422 -0.199,0.922 0.039,1.33zm2.509,7.767c0.034,0.508 0.038,1.018 0.003,1.523c-0.014,0.186 -0.029,0.36 -0.043,0.542c-1.432,-0.427 -2.842,-0.833 -4.237,-1.227c0.657,-0.421 1.316,-0.849 1.972,-1.261c0.098,-0.061 0.186,-0.136 0.266,-0.218c0.672,0.209 1.351,0.422 2.039,0.641zm-1.994,-4.774c0.327,0.103 0.659,0.214 0.99,0.321c0.253,0.696 0.488,1.467 0.672,2.276c-0.444,-0.137 -0.885,-0.27 -1.326,-0.403c-0.03,-0.582 -0.121,-1.352 -0.336,-2.194zm1.992,21.432c0.239,0.875 0.548,1.68 0.926,2.41c-1.531,-0.384 -3.046,-0.754 -4.535,-1.099c0.248,-0.629 0.42,-1.343 0.509,-2.13c1.026,0.265 2.061,0.54 3.1,0.819zm-2.922,-2.779c0.074,-0.849 0.137,-1.577 0.188,-2.17c0.696,0.19 1.401,0.386 2.104,0.586c0.03,0.776 0.097,1.51 0.195,2.211c-0.841,-0.216 -1.662,-0.422 -2.487,-0.627zm2.728,-9.799c-0.062,0.811 -0.114,1.493 -0.158,2.06c-1.597,-0.452 -3.169,-0.884 -4.725,-1.301c-1.262,-0.338 -2.528,-0.669 -3.797,-0.991c0.815,-0.547 1.628,-1.086 2.438,-1.617l0.157,0.044c1.99,0.572 4.015,1.172 6.085,1.805zm-17.146,-24.073c-0.795,-1.045 -1.583,-2.16 -2.227,-3.097c1.683,0.535 3.385,1.091 5.106,1.662c-0.805,0.501 -1.707,1.041 -2.578,1.526c-0.099,-0.027 -0.199,-0.06 -0.301,-0.091zm1.748,28.491c2.837,0.642 5.665,1.326 8.479,2.051c-0.499,0.189 -1.086,0.321 -1.771,0.321c-0.396,0 -0.81,-0.044 -1.222,-0.129c-1.883,-0.389 -4.636,-0.9 -6.834,-1.287c0.45,-0.324 0.901,-0.635 1.348,-0.956zm11.813,13.707c-3.664,-0.8 -7.399,-1.526 -11.185,-2.179c2.75,0.434 4.884,0.809 5.54,0.995l0.121,0.028c0.396,0.074 0.784,0.114 1.158,0.114c1.423,0 2.607,-0.518 3.477,-1.462c2.42,0.577 4.899,1.206 7.417,1.88c1.285,1.376 2.771,2.465 4.441,3.268c-3.725,-0.976 -7.403,-1.864 -10.969,-2.644zm23.409,6.152l-2.018,-0.592c-1.482,-0.433 -2.998,-0.875 -4.513,-1.304c0.802,0.09 1.603,0.135 2.404,0.135c1.136,0 2.273,-0.09 3.413,-0.269c1.433,0.426 2.794,0.805 4.104,1.146c0.82,1.083 2.005,2.12 3.688,2.646c-2.241,-0.469 -4.564,-1.043 -7.078,-1.762zm-0.371,-29.051c0.063,0.136 0.143,0.259 0.238,0.364c0.141,0.172 0.331,0.422 0.541,0.722c-1.34,-0.419 -2.678,-0.855 -4.009,-1.297c-0.447,-0.795 -0.984,-1.576 -1.614,-2.302c1.583,0.552 3.181,1.1 4.782,1.627c-0.07,0.289 -0.058,0.599 0.062,0.886zm-1.743,12.308l-0.448,-0.144c0.009,-0.258 0.024,-0.528 0.046,-0.82c0,0 0.024,-0.363 0.063,-0.927c1.826,0.59 3.524,1.112 5.132,1.575c-0.043,0.584 -0.082,1.152 -0.118,1.696c-1.479,-0.412 -3.022,-0.869 -4.675,-1.38zm4.519,3.593c-0.025,0.373 -0.048,0.718 -0.068,1.006c-0.22,0.022 -0.44,0.031 -0.664,0.031c-0.736,0 -1.504,-0.119 -2.296,-0.36c-0.921,-0.285 -1.482,-0.672 -1.685,-1.179c-0.074,-0.172 -0.161,-0.473 -0.217,-0.998c1.756,0.562 3.39,1.061 4.93,1.5zm-4.701,-7.668c0.042,-0.566 0.081,-1.157 0.123,-1.724c1.692,0.555 3.4,1.091 5.112,1.589c-0.036,0.54 -0.074,1.105 -0.114,1.676c-1.612,-0.456 -3.306,-0.969 -5.121,-1.541zm0.195,-3.95c-0.051,-0.584 -0.173,-1.212 -0.37,-1.867c1.477,0.495 2.964,0.972 4.451,1.428c0.274,0.605 0.517,1.246 0.692,1.898c-1.597,-0.46 -3.19,-0.951 -4.773,-1.459zm5.209,-6.334c-3.895,-1.172 -7.816,-2.521 -11.606,-3.828c-0.976,-0.335 -1.946,-0.672 -2.925,-1.004c-5.56,-1.902 -10.201,-3.431 -14.6,-4.814c-1.554,-0.489 -3.091,-0.96 -4.621,-1.425c0.574,-0.194 1.113,-0.438 1.602,-0.738l0.09,-0.055c0.378,-0.236 0.688,-0.425 0.948,-0.584c0.233,0.078 0.466,0.153 0.704,0.231c4.209,1.407 8.776,2.996 14.376,5.002c1.019,0.364 2.039,0.73 3.057,1.099c3.707,1.334 7.538,2.714 11.36,3.954c2.775,0.901 5.116,1.602 7.361,2.201c3,0.792 5.341,0.933 7.595,1.246c1.454,0.198 2.741,0.296 3.94,0.296l0.021,0c1.599,-0.007 2.906,-0.176 4.108,-0.531c0.536,-0.156 1.384,-0.597 1.929,-0.894c0.091,0.338 0.181,0.681 0.271,1.022c-0.506,0.579 -1.131,1.042 -1.879,1.364c-0.912,0.4 -2.039,0.656 -3.346,0.756c-0.473,0.033 -0.971,0.053 -1.479,0.053c-0.684,0 -1.414,-0.034 -2.171,-0.098c-2.162,-0.186 -4.516,-0.585 -7.398,-1.257c-2.2,-0.518 -4.534,-1.153 -7.337,-1.996zm14.327,7.022c-0.942,-0.803 -2.005,-1.438 -3.076,-1.865c-0.02,-0.006 -0.354,-0.144 -0.904,-0.366c1.325,0.163 2.545,0.25 3.728,0.376c1.1,0.115 2.095,0.172 3.038,0.172c0.323,0 0.645,-0.007 0.965,-0.021c1.603,-0.072 2.908,-0.309 4.111,-0.743c0.557,-0.199 1.384,-0.713 1.979,-1.11c0.069,0.322 0.14,0.647 0.206,0.973c-0.514,0.664 -1.178,1.218 -1.998,1.632c-1.446,0.716 -3.285,1.064 -5.625,1.064c-0.447,0 -0.895,-0.011 -1.339,-0.033c-0.355,-0.019 -0.717,-0.046 -1.085,-0.079zm1.771,27.084c0.445,-0.411 0.866,-0.941 1.233,-1.632c0.068,-0.123 0.107,-0.256 0.135,-0.391c0.653,-0.044 1.292,-0.108 1.92,-0.197c1.177,-0.167 2.278,-0.416 3.307,-0.745c-0.491,0.814 -1.039,1.563 -1.636,2.259c-0.29,0.077 -0.585,0.15 -0.889,0.215c-1.274,0.266 -2.617,0.429 -4.07,0.491z"/>
    </defs>
    <clipPath id="SVGID_12_">
     <use xlink:href="#SVGID_11_" id="svg_26" y="4" x="0"/>
    </clipPath>
    <rect x="11.076" y="34.317" clip-path="url(#SVGID_12_)" fill="#5e5e5e" width="249.116" height="125.977" id="svg_27"/>
   </g>
   <path fill="#b0bab9" d="m181.188,54.651c0.443,0.782 0.443,0.782 1.747,2.646l0.134,0.19c0.617,0.889 1.438,1.647 2.508,2.321c1.165,0.737 2.608,1.348 4.415,1.868c1.75,0.334 3.332,0.437 4.658,0.295c1.199,-0.124 2.2,-0.442 3.062,-0.972l0.074,-0.046c1.977,-1.215 1.977,-1.215 2.744,-1.799c0.216,-0.163 0.489,-0.372 0.881,-0.664c0.308,-0.223 0.464,-0.51 0.469,-0.858c0.008,-0.596 -0.431,-1.275 -1.202,-1.861c-0.974,-0.734 -2.108,-0.813 -2.555,-0.813c-0.527,0 -0.858,0.097 -0.95,0.163c-0.367,0.383 -3.581,2.433 -5.822,3.655c-0.249,0.15 -0.536,0.288 -0.81,0.415l-0.187,0.089l-0.136,-0.157c-0.24,-0.276 -0.439,-0.523 -0.612,-0.756c-1.666,-2.164 -3.872,-5.411 -4.108,-5.977c-0.152,-0.241 -1.379,-1.052 -2.769,-1.052c-0.223,0 -0.439,0.021 -0.646,0.063c-0.826,0.174 -1.424,0.558 -1.639,1.054c-0.152,0.347 -0.108,0.735 0.126,1.12c0.288,0.497 0.475,0.826 0.618,1.076m-61.728,-10.368c-3.075,0.267 -7.852,0.892 -9.226,1.082c0.703,1.255 2.697,5.41 1.997,10.939c-0.626,4.959 -0.797,6.279 -0.843,6.628l-0.448,0.31c-1.544,-1.107 -3.415,-1.67 -5.563,-1.67c-0.926,0 -1.919,0.104 -2.951,0.311c-4.749,0.969 -8.876,3.643 -12.263,7.944c-3.397,4.338 -5.594,9.874 -6.527,16.453c-0.854,6.048 0.054,10.057 2.774,12.253c2.682,2.135 6.107,2.648 10.233,1.535c3.7,-0.981 7.118,-2.815 10.158,-5.454l0.441,-0.381l0.013,0.584c0,0.068 0.054,1.682 1.435,1.682c0.148,0 0.314,-0.018 0.485,-0.055c2.035,-0.544 13.097,-2.336 15.798,-2.697l-0.611,-0.621l0.303,0.133c-0.949,-1.431 -2.404,-4.592 -1.747,-9.944c0.93,-7.292 3.229,-26.575 3.772,-31.365c0.308,-2.619 -0.13,-4.615 -1.305,-5.936c-1.228,-1.38 -3.237,-1.969 -5.925,-1.731zm-10.03,34.593c-0.37,2.861 -1.134,5.105 -2.274,6.671c-1.17,1.574 -2.569,2.555 -4.162,2.919c-0.402,0.091 -0.781,0.137 -1.128,0.137c-1.235,0 -2.129,-0.57 -2.658,-1.693c-0.661,-1.34 -0.837,-3.225 -0.517,-5.595c0.776,-5.806 2.955,-9.11 6.477,-9.821c1.775,-0.349 3.035,0.239 3.732,1.72c0.654,1.421 0.832,3.325 0.53,5.662zm90.11,-12.089c-2.039,-0.732 -18.534,-4.489 -21.598,-4.838c-2.309,-0.404 -4.355,0.465 -5.214,2.136c-1.158,2.246 -1.468,5.166 -1.552,6.543c0.763,-0.77 2.301,-1.914 4.707,-1.914c0.412,0 0.837,0.033 1.269,0.099c2.254,0.342 4.719,0.78 6.391,1.085c3.3,0.606 3.3,0.606 3.36,0.78l0.068,0.193l-0.166,0.118c-5.646,4.106 -11.422,8.621 -17.173,13.417c-0.061,0.507 -0.288,2.826 0.484,4.733c0.849,2.091 2.567,3.603 4.275,3.764c3.165,0.026 22.293,2.82 24.641,3.488c0.266,0.049 0.551,0.078 0.82,0.078c1.968,0 3.179,-1.444 3.409,-4.064c0.186,-2.125 0.329,-3.781 0.407,-4.706c-0.759,0.728 -2.28,1.822 -4.557,1.822c-0.507,0 -1.03,-0.055 -1.561,-0.161c-4.322,-0.894 -9.881,-1.807 -10.026,-1.825l-0.832,0l0.697,-0.493c5.745,-4.247 11.563,-8.226 17.294,-11.826c0.016,-0.437 0.01,-1.864 -0.545,-3.398c-0.685,-1.939 -2.304,-4.42 -4.598,-5.031zm47.071,21.335c0.194,-3.435 -2.51,-6.087 -5.276,-7.189c-2.307,-0.99 -9.568,-3.751 -12.031,-4.65c1.04,1.464 3.148,4.875 2.935,8.168c-0.21,3.23 -0.495,7.307 -0.619,9.065c-0.025,0.352 -0.043,0.61 -0.052,0.751l-0.212,0.365c-1.513,0.403 -3.144,0.346 -4.845,-0.17c-1.43,-0.442 -2.351,-1.16 -2.734,-2.135c-0.393,-0.932 -0.502,-2.507 -0.334,-4.816c0,0 0.266,-3.749 0.438,-6.101c0.164,-2.366 -2.105,-7.831 -6.855,-9.4c-2.998,-1.014 -8.027,-2.546 -9.772,-3.062c0.806,1.545 2.723,5.689 2.419,9.683c-0.383,4.933 -0.537,6.86 -0.537,6.86c-0.418,5.147 0.329,8.925 2.22,11.232c1.894,2.313 4.235,3.801 7.156,4.552c3.996,1.017 8.095,0.798 12.191,-0.65l0.366,-0.129l0,0.354c0.09,0.34 1.055,3.708 4.142,4.658c0.667,0.188 1.462,0.47 2.383,0.794c1.288,0.454 2.75,0.971 4.427,1.439c2.079,0.582 3.53,0.038 4.522,-1.721c-0.605,-1.793 -0.853,-3.539 -0.735,-5.198c0.306,-4.538 0.555,-8.455 0.803,-12.7zm-171.517,-21.797c-0.906,-7.02 2.573,-12.14 3.924,-13.827c-2.713,0.873 -11.325,3.788 -15.411,5.466c-4.758,1.902 -7.404,7.029 -11.538,17.801c-3.788,9.821 -17.033,44.421 -19.062,49.739c5.392,-2.938 10.934,-5.776 16.493,-8.448c-0.447,-0.213 -1.006,-0.616 -1.435,-1.368c-1.126,-1.979 -0.841,-5.298 0.85,-9.866c2.217,-6.007 3.058,-8.126 3.098,-8.189l0.043,-0.07l0.076,-0.033c3.776,-1.727 7.572,-3.379 11.281,-4.91l0.105,-0.022c0.274,0 0.441,0 0.883,6.667c0.529,7.494 2.707,10.013 7.034,8.34c4.723,-1.803 8.9,-3.234 9.861,-3.561c-0.164,-1.187 -1.213,-7.462 -2.318,-14.075c-1.5,-8.967 -3.197,-19.132 -3.884,-23.644zm-12.106,20.449c-2.476,1.01 -5.04,2.109 -7.837,3.36l-0.597,0.265l2.727,-7.352c1.354,-3.65 2.703,-7.287 4.044,-10.915l0.419,-1.135l1.431,15.701l-0.187,0.076zm101.477,-4.238c0.636,-6.181 0.945,-9.349 0.945,-9.349c0.292,-2.902 0.256,-5.102 -0.098,-6.542c-0.341,-1.379 -1.057,-2.721 -2.129,-3.987c-1.092,-1.28 -2.866,-2.312 -5.273,-3.066c-1.21,-0.401 -2.576,-0.727 -4.067,-0.969c-1.699,-0.269 -3.466,-0.435 -5.248,-0.496c-0.553,-0.021 -1.093,-0.031 -1.62,-0.031c-4.314,0 -7.9,0.671 -10.657,1.995c-0.652,0.31 -1.491,0.873 -1.805,1.088c0.054,0.619 0.378,3.172 2.035,4.861c1.424,1.442 3.335,1.886 3.897,1.989c1.515,-2.174 3.465,-3.274 5.797,-3.274l0.095,0c1.324,0.022 2.473,0.37 3.413,1.029c0.916,0.696 1.474,1.532 1.668,2.488c0.167,0.89 0.138,2.385 -0.09,4.455c-0.032,0.328 -0.153,1.327 -0.153,1.327c-1.955,-1.131 -4.972,-1.818 -8.258,-1.818c-0.157,0 -0.315,0 -0.477,0.004c-3.897,0.066 -7.251,1.234 -9.965,3.474c-2.705,2.221 -4.277,4.984 -4.672,8.213c-0.343,2.872 0.367,5.272 2.106,7.134c1.728,1.849 4.52,2.606 8.575,2.321c4.346,-0.305 7.773,-1.391 10.483,-3.322l0.422,0.15c0.007,0.02 0.632,2.035 2.964,2.035c0.234,-0.014 0.65,-0.023 1.229,-0.023c2.052,0 10.558,0.216 13.143,0.4l-0.666,-0.866c-0.001,0 -2.038,-4.852 -1.594,-9.22zm-13.693,-4.624c-0.166,1.535 -0.337,3.065 -0.507,4.6l-0.182,1.621l-0.074,0.07c-1.307,1.212 -2.933,1.852 -4.835,1.904l-0.1,0c-1.098,0 -1.993,-0.439 -2.734,-1.342c-0.729,-0.887 -1.016,-2.075 -0.849,-3.53c0.161,-1.407 0.698,-2.586 1.594,-3.505c0.919,-0.92 2.061,-1.385 3.402,-1.385l0.025,0c1.495,0 2.89,0.441 4.145,1.312l0.132,0.093l-0.017,0.162zm-66.368,-37.158c-0.234,-0.268 -0.535,-0.406 -0.899,-0.406c-0.15,0 -0.311,0.025 -0.478,0.072c-2.941,0.802 -11.046,3.405 -14.716,4.774c-3.8,1.391 -7.414,5.768 -11.239,13.667c2.188,-2.668 5.078,-4.633 7.396,-5.526c3.327,-1.428 16.667,-5.826 17.727,-6.02c0.543,-0.191 2.344,-1.935 2.642,-4.075c0.153,-1.087 -0.004,-1.994 -0.433,-2.486z" id="svg_31"/>
  </g>
  <path fill="#a9aaaa" d="m240.967,48.966c-5.339,-3.041 -11.354,-4.713 -18.453,-5.806c1.805,2.634 3.422,5.357 4.813,8.168c-1.36,-0.567 -2.769,-1.164 -4.226,-1.786c-0.503,-0.955 -1.039,-1.896 -1.593,-2.829c0.898,1.589 1.586,2.826 1.586,2.826s3.797,1.814 4.505,2.113c2.137,0.911 4.362,2 6.077,2.652c2.324,0.885 4.334,1.722 5.974,2.183c1.828,0.542 3.267,0.84 4.39,0.952c2.59,0.006 3.244,-1.087 3.129,-2.366c-0.704,-2.96 -4.813,-5.317 -6.202,-6.107" id="svg_33"/>
 </g>
</svg>