<?xml version="1.0" encoding="utf-8"?>
<!-- Generator: Adobe Illustrator 17.0.0, SVG Export Plug-In . SVG Version: 6.00 Build 0)  -->
<!DOCTYPE svg PUBLIC "-//W3C//DTD SVG 1.1//EN" "http://www.w3.org/Graphics/SVG/1.1/DTD/svg11.dtd">
<svg version="1.1" id="Layer_1" xmlns="http://www.w3.org/2000/svg" xmlns:xlink="http://www.w3.org/1999/xlink" x="0px" y="0px"
	 width="159px" height="140px" viewBox="55.5 -2.5 159 140" enable-background="new 55.5 -2.5 159 140" xml:space="preserve">
<g>
	<path fill="#AAAAAA" d="M161.205,57.816c-7.97,0-12.085,5.7-12.085,12.731s4.015,12.732,12.085,12.732
		c8.071,0,12.085-5.701,12.085-12.732C173.29,63.514,169.174,57.815,161.205,57.816L161.205,57.816z M167.234,70.57
		c-0.006,4.521-1.512,8.184-6.029,8.184c-4.517,0-6.024-3.662-6.028-8.184v-0.023c0.005-4.522,1.511-8.183,6.029-8.183
		c4.517,0,6.024,3.661,6.029,8.183v0.021V70.57z M125.522,48.326c0-0.325,0.261-0.627,0.585-0.673c0,0,4.005-0.575,4.361-0.624
		c0.404-0.055,0.941,0.235,0.941,0.809v13.049c0.953-0.916,2.003-1.654,3.145-2.217c1.145-0.562,2.487-0.844,4.029-0.844
		c1.336,0,2.516,0.229,3.549,0.687c1.032,0.457,1.897,1.1,2.587,1.927c0.69,0.829,1.215,1.817,1.572,2.965
		c0.357,1.15,0.537,2.416,0.537,3.796v15.147c0,0.324-0.263,0.59-0.59,0.59h-4.705c-0.324,0-0.59-0.265-0.59-0.587V67.202
		c0-1.51-0.345-2.678-1.035-3.507c-0.693-0.827-1.729-1.241-3.11-1.241c-1.018,0-1.97,0.233-2.858,0.699
		c-0.891,0.466-1.732,1.1-2.526,1.906V82.35c0,0.325-0.264,0.59-0.591,0.59h-4.702c-0.327,0-0.591-0.264-0.591-0.59V48.325
		L125.522,48.326z M197.5,76.446V63.561h-3.977c-0.324,0-0.514-0.257-0.426-0.565l0.885-3.094c0.077-0.265,0.278-0.552,0.681-0.611
		l2.831-0.398l1.035-6.929c0.048-0.322,0.348-0.619,0.671-0.667c0,0,2.711-0.386,3.234-0.466c0.493-0.074,0.941,0.286,0.941,0.829
		v7.233h5.181c0.326,0,0.591,0.265,0.591,0.593v3.487c0,0.327-0.263,0.593-0.591,0.593h-5.182v12.708
		c0,1.776,1.069,2.454,2.093,2.454c0.625,0,1.481-0.336,2.121-0.637c0.395-0.183,1.006-0.047,1.165,0.51l0.723,2.552
		c0.088,0.316-0.074,0.699-0.363,0.844c0,0-2.15,1.289-5.032,1.289c-4.05,0-6.587-2.383-6.587-6.832L197.5,76.446z M184.348,62.363
		c-2.09,0-3.734,0.73-3.734,2.488c0,2.195,3.543,2.834,5.967,3.729c1.619,0.598,5.97,1.764,5.97,6.494
		c0,5.746-4.72,8.203-9.752,8.203c-5.032,0-7.493-1.612-7.493-1.612c-0.283-0.155-0.442-0.537-0.354-0.853
		c0,0,0.619-2.218,0.779-2.769c0.142-0.496,0.711-0.67,1.074-0.529c1.295,0.505,3.634,1.207,6.277,1.207
		c2.675,0,3.97-0.827,3.97-2.589c0-2.345-3.616-3.062-6.006-3.825c-1.649-0.525-6.006-1.749-6.006-6.952
		c0-5.125,4.448-7.529,9.203-7.529c4.024,0,6.932,1.383,6.932,1.383c0.298,0.126,0.466,0.482,0.378,0.796l-0.784,2.76
		c-0.144,0.513-0.56,0.748-1.081,0.577c-1.147-0.377-3.304-0.98-5.354-0.98L184.348,62.363z M122.31,57.856
		c-1.975,0.229-3.384,1.169-4.296,2.044c-1.788-1.419-4.274-2.096-7.062-2.096c-5.59,0-9.959,2.732-9.959,8.681
		c0,3.416,1.44,5.77,3.723,7.156c-1.696,0.811-2.823,2.534-2.823,4.23c0,2.835,2.212,3.72,2.212,3.72s-3.867,1.9-3.867,5.699
		c0,4.864,4.428,6.832,9.835,6.832c7.796,0,13.159-3.257,13.159-9.236c0-3.678-2.785-5.711-8.852-5.953
		c-3.599-0.142-5.932-0.274-6.51-0.466c-0.764-0.257-1.139-0.873-1.139-1.558c0-0.752,0.614-1.469,1.578-1.962
		c0.844,0.152,1.732,0.227,2.652,0.227c5.596,0,9.959-2.721,9.959-8.68c0-1.445-0.257-2.699-0.726-3.77
		c0.823-0.444,2.46-0.664,2.46-0.664c0.322-0.05,0.583-0.357,0.582-0.681v-2.697c0-0.555-0.469-0.872-0.914-0.82L122.31,57.856z
		 M107.818,82.968c0,0,2.936,0.112,5.87,0.248c3.296,0.153,4.323,0.873,4.323,2.599c0,2.109-2.864,4.159-6.867,4.159
		c-3.799,0-5.697-1.339-5.697-3.563c0-1.277,0.667-2.708,2.372-3.448V82.968z M110.962,71.01c-2.648,0-4.715-1.425-4.715-4.528
		c0-3.106,2.068-4.528,4.715-4.528c2.647,0,4.715,1.419,4.715,4.525s-2.065,4.525-4.715,4.525V71.01z"/>
	<g transform="translate(0 36)">
		<path fill="#AAAAAA" d="M65.54,41.773h7.564c0.652,0,1.18,0.528,1.18,1.18v2.659c0,0.652-0.528,1.18-1.18,1.18H65.54
			c-0.652,0-1.18-0.528-1.18-1.18v-2.659C64.36,42.301,64.888,41.773,65.54,41.773z"/>
		<path fill="#AAAAAA" d="M80.425,41.773h7.558c0.652,0,1.18,0.528,1.18,1.18v2.659c0,0.652-0.528,1.18-1.18,1.18h-7.558
			c-0.652,0-1.18-0.528-1.18-1.18v-2.659C79.245,42.301,79.774,41.773,80.425,41.773z"/>
		<path fill="#AAAAAA" d="M65.532,31.736h22.454c0.652,0,1.18,0.528,1.18,1.18v2.659c0,0.652-0.528,1.18-1.18,1.18H65.532
			c-0.652,0-1.18-0.528-1.18-1.18v-2.659C64.352,32.264,64.881,31.736,65.532,31.736z"/>
		<path fill="#AAAAAA" d="M65.54,21.699h12.528c0.652,0,1.18,0.528,1.18,1.18v2.659c0,0.652-0.528,1.18-1.18,1.18H65.54
			c-0.652,0-1.18-0.528-1.18-1.18v-2.659C64.36,22.227,64.888,21.699,65.54,21.699z"/>
		<path fill="#AAAAAA" d="M85.387,21.699h2.602c0.652,0,1.18,0.528,1.18,1.18v2.659c0,0.652-0.528,1.18-1.18,1.18h-2.602
			c-0.652,0-1.18-0.528-1.18-1.18v-2.659C84.207,22.227,84.736,21.699,85.387,21.699z"/>
	</g>
</g>
</svg>
