<?xml version="1.0" encoding="utf-8"?>
<!-- Generator: Adobe Illustrator 17.0.0, SVG Export Plug-In . SVG Version: 6.00 Build 0)  -->
<!DOCTYPE svg PUBLIC "-//W3C//DTD SVG 1.1//EN" "http://www.w3.org/Graphics/SVG/1.1/DTD/svg11.dtd">
<svg version="1.1" id="Layer_1" xmlns="http://www.w3.org/2000/svg" xmlns:xlink="http://www.w3.org/1999/xlink" x="0px" y="0px"
	 width="159px" height="159px" viewBox="0 0 159 159" enable-background="new 0 0 159 159" xml:space="preserve">
<ellipse fill="none" cx="110.5" cy="88.5" rx="79.5" ry="26.741"/>
<g>
	<g>
		<path fill="#ABABAB" d="M17.846,70.676c1.084,0,2.024,0.867,2.024,2.024s-0.867,2.024-2.024,2.024
			c-1.084,0-2.024-0.867-2.024-2.024S16.69,70.676,17.846,70.676z M19.436,96.116c0,1.084-0.65,1.735-1.662,1.735
			c-1.012,0-1.662-0.65-1.662-1.735V79.204c0-1.084,0.65-1.735,1.662-1.735s1.662,0.65,1.662,1.735V96.116z"/>
		<path fill="#ABABAB" d="M23.05,79.204c0-1.084,0.65-1.735,1.662-1.735s1.662,0.65,1.662,1.735v0.795l0.072,0.072
			c1.445-1.879,3.469-2.602,5.493-2.602c3.035,0,6.866,1.951,6.866,7.589v11.13c0,1.084-0.65,1.735-1.662,1.735
			c-1.012,0-1.662-0.65-1.662-1.735V85.203c0-3.469-2.457-4.915-4.553-4.915c-2.168,0-4.553,1.445-4.553,4.915v10.913
			c0,1.084-0.65,1.735-1.662,1.735s-1.662-0.65-1.662-1.735C23.05,96.116,23.05,79.204,23.05,79.204z"/>
		<path fill="#7F7F7F" d="M46.683,96.116c0,1.084-0.65,1.735-1.662,1.735c-1.012,0-1.662-0.65-1.662-1.735V80.505h-1.373
			c-1.084,0-1.662-0.506-1.662-1.445c0-0.867,0.578-1.445,1.662-1.445h1.373v-4.698c0-2.891,1.951-4.336,4.336-4.336h1.012
			c0.867,0,1.879,0.506,1.879,1.445s-0.578,1.445-1.807,1.445h-0.795c-1.012,0-1.373,0.506-1.373,1.301v4.842h2.024
			c1.084,0,1.662,0.506,1.662,1.445c0,0.867-0.578,1.445-1.662,1.445h-2.024v15.611H46.683z M55.284,96.116
			c0,1.084-0.65,1.735-1.662,1.735s-1.662-0.65-1.662-1.735V70.387c0-1.084,0.65-1.735,1.662-1.735s1.662,0.65,1.662,1.735V96.116z"
			/>
		<path fill="#7F7F7F" d="M58.897,79.204c0-1.084,0.65-1.735,1.662-1.735s1.662,0.65,1.662,1.735v10.624
			c0,3.397,1.518,5.204,4.553,5.204c3.035,0,4.553-1.807,4.553-5.204V79.204c0-1.084,0.65-1.735,1.662-1.735s1.662,0.65,1.662,1.735
			V89.9c0,5.854-3.903,7.95-7.878,7.95s-7.878-2.096-7.878-7.95L58.897,79.204L58.897,79.204z"/>
		<path fill="#7F7F7F" d="M80.29,88.961c0,3.397,2.168,6.071,5.854,6.071c4.336,0,5.493-2.674,6.721-2.674
			c0.578,0,1.229,0.506,1.229,1.445c0,1.59-4.047,4.12-7.95,4.12c-6.36,0-9.106-4.915-9.106-10.263c0-5.42,3.325-10.263,8.89-10.263
			c5.42,0,8.528,4.915,8.528,9.757c0,1.156-0.434,1.735-1.807,1.735H80.29V88.961z M91.131,86.504c0-2.891-1.662-6.143-5.276-6.143
			c-4.047-0.145-5.493,3.108-5.637,6.143H91.131z"/>
		<path fill="#7F7F7F" d="M96.84,79.204c0-1.084,0.65-1.735,1.662-1.735c1.012,0,1.662,0.65,1.662,1.735v0.795l0.072,0.072
			c1.445-1.879,3.469-2.602,5.493-2.602c3.035,0,6.866,1.951,6.866,7.589v11.13c0,1.084-0.65,1.735-1.662,1.735
			c-1.012,0-1.662-0.65-1.662-1.735V85.203c0-3.469-2.457-4.915-4.553-4.915c-2.168,0-4.553,1.445-4.553,4.915v10.913
			c0,1.084-0.65,1.735-1.662,1.735c-1.012,0-1.662-0.65-1.662-1.735V79.204z"/>
		<path fill="#7F7F7F" d="M117.149,73.35c0-1.084,0.65-1.735,1.662-1.735c1.012,0,1.662,0.65,1.662,1.735v4.336h1.373
			c1.084,0,1.662,0.506,1.662,1.445c0,0.867-0.578,1.445-1.662,1.445h-1.373v15.611c0,1.084-0.65,1.735-1.662,1.735
			c-1.012,0-1.662-0.65-1.662-1.735V80.505h-1.373c-1.084,0-1.662-0.506-1.662-1.445c0-0.867,0.578-1.445,1.662-1.445h1.373V73.35z"
			/>
		<path fill="#ABABAB" d="M126.689,70.676c1.084,0,2.024,0.867,2.024,2.024s-0.867,2.024-2.024,2.024
			c-1.084,0-2.024-0.867-2.024-2.024S125.605,70.676,126.689,70.676z M128.351,96.116c0,1.084-0.65,1.735-1.662,1.735
			s-1.662-0.65-1.662-1.735V79.204c0-1.084,0.65-1.735,1.662-1.735c1.012,0,1.662,0.65,1.662,1.735V96.116z"/>
		<path fill="#ABABAB" d="M148.299,96.26c0,1.156-0.867,1.59-1.518,1.59c-0.65,0-1.518-0.434-1.518-1.59v-1.373h-0.072
			c-1.445,2.024-3.252,3.035-5.42,3.035c-5.565,0-8.745-4.915-8.745-10.263c0-5.276,3.108-10.263,8.745-10.263
			c2.24,0,3.903,1.012,5.42,2.674h0.072v-1.084c0-1.156,0.867-1.59,1.518-1.59s1.518,0.434,1.518,1.59V96.26z M139.77,95.032
			c4.047,0,5.42-3.975,5.42-7.372s-1.445-7.372-5.42-7.372c-3.975,0-5.42,3.975-5.42,7.372S135.723,95.032,139.77,95.032z"/>
		<path fill="#ABABAB" d="M155.165,96.116c0,1.084-0.65,1.735-1.662,1.735s-1.662-0.65-1.662-1.735V70.387
			c0-1.084,0.65-1.735,1.662-1.735c1.012,0,1.662,0.65,1.662,1.735V96.116z"/>
	</g>
</g>
</svg>
