<?xml version="1.0" encoding="utf-8"?>
<!-- Generator: Adobe Illustrator 17.0.0, SVG Export Plug-In . SVG Version: 6.00 Build 0)  -->
<!DOCTYPE svg PUBLIC "-//W3C//DTD SVG 1.1//EN" "http://www.w3.org/Graphics/SVG/1.1/DTD/svg11.dtd">
<svg version="1.1" id="Layer_1" xmlns="http://www.w3.org/2000/svg" xmlns:xlink="http://www.w3.org/1999/xlink" x="0px" y="0px"
	 width="159px" height="159px" viewBox="0 0 159 159" enable-background="new 0 0 159 159" xml:space="preserve">
<g>
	<rect x="20.4" y="20.251" fill="#ABABAB" width="122.737" height="122.737"/>
	<g>
		<rect x="60.611" y="100.556" fill="#FFFFFF" width="10.17" height="3.273"/>
		<rect x="63.3" y="107.92" fill="#FFFFFF" width="4.676" height="16.599"/>
		<path fill="#FFFFFF" d="M43.428,104.413h2.922c2.689,0,4.909,0.701,4.909,3.507c0,2.455-1.753,3.741-4.909,3.741h-2.922V104.413z
			 M57.104,124.636l-5.962-10.053c1.987-0.935,4.793-2.338,4.793-6.78c0-5.494-4.325-7.247-9.351-7.247h-7.715v24.08h4.559v-9.235
			h3.273l5.143,9.235H57.104z"/>
		<path fill="#FFFFFF" d="M85.275,115.284h4.091v5.494c-1.052,0.234-2.104,0.351-3.039,0.351c-5.728,0-7.481-4.325-7.481-8.416
			c0-4.909,2.338-8.416,7.598-8.416c3.273,0,5.377,0.935,5.845,1.169l0.935-3.857c-1.637-0.584-3.156-1.052-6.78-1.052
			c-9.819,0-12.157,7.598-12.157,12.274c0,5.494,2.689,12.04,12.391,12.04c3.39,0,6.078-1.052,7.13-1.403v-11.689h-8.533
			C85.275,111.778,85.275,115.284,85.275,115.284z"/>
		<path fill="#FFFFFF" d="M120.928,124.636l-8.182-24.08h-5.962l-8.066,24.08h5.026l1.636-5.377h8.533l1.636,5.377H120.928z
			 M112.745,115.518h-6.195l3.039-9.819L112.745,115.518z"/>
		<path fill="#FFFFFF" d="M66.69,90.269V67.943h-2.572v22.327H66.69z"/>
		<path fill="#FFFFFF" d="M53.364,90.269v-2.338h-12.04V68.06h-2.572v22.327h14.612V90.269z"/>
		<path fill="#FFFFFF" d="M117.187,90.152v-2.221h-11.923v-8.066h9.936v-2.221h-9.936v-7.364h11.222v-2.338h-13.793v22.326h14.495
			V90.152z"/>
		<path fill="#FFFFFF" d="M75.924,67.943l7.598,22.327h2.455l7.598-22.327h-2.572l-6.195,18.352l-6.195-18.352
			C78.613,67.943,75.924,67.943,75.924,67.943z"/>
	</g>
</g>
</svg>
