<?xml version="1.0" encoding="utf-8"?>
<!-- Generator: Adobe Illustrator 17.0.0, SVG Export Plug-In . SVG Version: 6.00 Build 0)  -->
<!DOCTYPE svg PUBLIC "-//W3C//DTD SVG 1.1//EN" "http://www.w3.org/Graphics/SVG/1.1/DTD/svg11.dtd">
<svg version="1.1" id="Layer_1" xmlns="http://www.w3.org/2000/svg" xmlns:xlink="http://www.w3.org/1999/xlink" x="0px" y="0px"
	 width="159px" height="159px" viewBox="0 0 159 159" enable-background="new 0 0 159 159" xml:space="preserve">
<g id="g274934" transform="matrix(2.6928446,0,0,-2.6928446,146.53206,853.44041)">
	<path id="path274936" fill="#ABABAB" d="M-15.957,310.296c3.178,0,5.753-13.396,5.753-29.92h4.603
		c0,17.796-4.636,32.222-10.356,32.222c-3.254,0-6.155-4.337-8.057-11.117c-1.898,6.78-4.801,11.117-8.055,11.117
		c-5.72,0-10.357-14.426-10.357-32.222h4.602c0,16.523,2.578,29.92,5.755,29.92s5.755-12.365,5.755-27.618h4.601
		C-21.712,297.93-19.136,310.296-15.957,310.296"/>
</g>
<g id="g274938" transform="matrix(2.6928446,0,0,-2.6928446,139.01638,848.34051)">
	<path id="path274940" fill="#ABABAB" d="M-14.906,309.582c3.182,0,5.762-13.414,5.762-29.96h4.61
		c0,17.819-4.643,32.264-10.371,32.264c-3.258,0-6.165-4.341-8.066-11.13c-1.901,6.789-4.808,11.13-8.067,11.13
		c-5.727,0-10.372-14.445-10.372-32.264h4.61c0,16.546,2.581,29.96,5.762,29.96c3.182,0,5.762-12.382,5.762-27.656h4.609
		C-20.667,297.2-18.087,309.582-14.906,309.582"/>
</g>
<path id="path274946" fill="#ABABAB" d="M19.305,117.185h4.24v14.965h-4.24V117.185z M19.305,111.924h4.24v3.411h-4.24V111.924z"/>
<g id="g274948" transform="matrix(2.6928446,0,0,-2.6928446,28.192348,1011.2873)">
	<path id="path274950" fill="#ABABAB" d="M0.596,332.374v1.595h-1.649v-1.595h0.691c0-0.572-0.308-1.038-0.693-1.038l0.002-0.757
		C-0.139,330.579,0.596,331.381,0.596,332.374"/>
</g>
<g id="g274952" transform="matrix(2.6928446,0,0,-2.6928446,37.905429,1015.3312)">
	<path id="path274954" fill="#ABABAB" d="M-0.763,332.94c0.189,0.229,0.605,0.721,1.538,0.721c0.89,0,1.211-0.333,1.5-0.645
		c0.312,0.268,0.746,0.645,1.609,0.645c0.889,0,1.346-0.45,1.512-0.796c0.136-0.29,0.145-0.678,0.145-1.268v-3.607H3.964v2.907
		c0,0.32,0,0.734-0.059,0.947c-0.148,0.464-0.573,0.497-0.695,0.497c-0.157,0-0.364-0.046-0.521-0.172
		c-0.3-0.239-0.3-0.56-0.3-1.162v-3.016H0.816v3.279c0,0.241-0.011,0.574-0.155,0.784c-0.127,0.166-0.364,0.287-0.622,0.287
		c-0.127,0-0.292-0.033-0.438-0.132c-0.351-0.239-0.364-0.687-0.364-1.065v-3.153h-1.573v5.545h1.573"/>
</g>
<path id="path274956" fill="#ABABAB" d="M58.88,132.15h4.299v-20.215H58.88V132.15z"/>
<g id="g274958" transform="matrix(2.6928446,0,0,-2.6928446,92.76136,1019.9731)">
	<path id="path274960" fill="#ABABAB" d="M-8.436,333.589c-0.197-0.324-0.268-0.7-0.268-1.085c0-0.878,0.417-1.652,1.308-1.652
		c0.86,0,1.285,0.71,1.285,1.577c0,0.618-0.145,1.096-0.448,1.389c-0.328,0.323-0.704,0.335-0.933,0.312
		C-7.945,334.097-8.217,333.932-8.436,333.589z M-4.497,332.492c0-1.399-0.787-2.933-2.9-2.933c-1.526,0-2.915,0.885-2.915,2.933
		c0,1.7,1.048,3.049,3.119,2.927C-4.986,335.29-4.497,333.505-4.497,332.492"/>
</g>
<g id="g274962" transform="matrix(2.6928446,0,0,-2.6928446,121.14387,1030.2609)">
	<path id="path274964" fill="#ABABAB" d="M-12.406,335.028l0.904,4.038h1.637l-1.75-5.545h-1.667l-1.754,5.545h1.681"/>
</g>
<g id="g274966" transform="matrix(2.6928446,0,0,-2.6928446,151.69148,1015.0402)">
	<path id="path274968" fill="#ABABAB" d="M-16.679,332.899c0.161,0.174,0.266,0.3,0.544,0.433c0.246,0.105,0.594,0.2,0.985,0.2
		c0.322,0,0.679-0.065,0.957-0.221c0.576-0.303,0.724-0.802,0.724-1.66v-3.79h-1.584v3.122c0,0.496-0.011,0.679-0.074,0.825
		c-0.129,0.293-0.415,0.425-0.722,0.425c-0.838,0-0.838-0.689-0.838-1.378v-2.994h-1.6v5.545h1.609"/>
</g>
<path id="path274970" fill="#ABABAB" d="M96.406,117.185h4.243v14.965h-4.243V117.185z M96.406,111.924h4.243v3.411h-4.243V111.924z
	"/>
<path id="path274972" fill="#ABABAB" d="M127.714,117.185h4.232v14.965h-4.232V117.185z M127.714,111.924h4.232v3.411h-4.232
	V111.924z"/>
<g id="g274974" transform="matrix(2.6928446,0,0,-2.6928446,198.38267,1007.3064)">
	<path id="path274976" fill="#ABABAB" d="M-23.21,331.818h1.584v-1.274h1.052v-1.265h-1.062v-2.348
		c-0.008-0.338-0.008-0.628,0.423-0.628l0.567,0.021v-1.275c-0.337-0.052-0.546-0.082-0.839-0.082c-0.549,0-1.144,0.031-1.495,0.544
		c-0.218,0.326-0.229,0.72-0.229,1.254v2.528h-0.779v1.262h0.779"/>
</g>
</svg>
