<?xml version="1.0" encoding="utf-8"?>
<!-- Generator: Adobe Illustrator 17.0.0, SVG Export Plug-In . SVG Version: 6.00 Build 0)  -->
<!DOCTYPE svg PUBLIC "-//W3C//DTD SVG 1.1//EN" "http://www.w3.org/Graphics/SVG/1.1/DTD/svg11.dtd">
<svg version="1.1" id="Layer_1" xmlns="http://www.w3.org/2000/svg" xmlns:xlink="http://www.w3.org/1999/xlink" x="0px" y="0px"
	 width="159px" height="159px" viewBox="0 0 159 159" enable-background="new 0 0 159 159" xml:space="preserve">
<g>
	<g>
		<g>
			<defs>
				<rect id="SVGID_1_" x="2.517" y="66.063" width="155.121" height="45.774"/>
			</defs>
			<clipPath id="SVGID_2_">
				<use xlink:href="#SVGID_1_"  overflow="visible"/>
			</clipPath>
			<path clip-path="url(#SVGID_2_)" fill="#ABABAB" d="M25.496,110.067c-11.582,0-20.969-9.387-20.969-20.969
				C4.513,77.503,13.9,68.116,25.496,68.116c11.582,0,20.969,9.387,20.969,20.969S37.077,110.067,25.496,110.067L25.496,110.067z
				 M25.482,66.063c-12.672,0-22.979,10.265-22.979,22.88c0,12.629,10.307,22.894,22.979,22.894s22.993-10.265,22.993-22.88
				C48.475,76.327,38.168,66.063,25.482,66.063L25.482,66.063z"/>
		</g>
	</g>
	<path fill="#ABABAB" d="M19.663,99.222c-3.469-1.628-5.876-5.309-5.876-9.571c0-2.251,0.665-4.333,1.812-6.032l7.561,11.27h4.573
		l7.561-11.27c1.147,1.699,1.812,3.794,1.812,6.032c0,3.979-2.095,7.433-5.182,9.217l1.458,5.578c5.55-2.86,9.33-8.637,9.33-15.305
		c0-6.301-3.384-11.794-8.424-14.796l-8.778,13.55l-8.693-13.606c-5.097,2.987-8.523,8.523-8.523,14.852
		c0,6.909,4.063,12.87,9.939,15.603L19.663,99.222L19.663,99.222z"/>
	<polygon fill="#ABABAB" points="65.819,91.335 60.17,79.301 57.225,79.301 57.225,98.641 60.17,98.641 60.17,85.715 64.729,95.144 
		66.909,95.144 71.355,85.715 71.355,98.641 74.286,98.641 74.286,79.301 71.355,79.301 	"/>
	<path fill="#ABABAB" d="M85.315,93.261c0,2.124-1.303,3.072-2.846,3.072s-2.775-0.92-2.775-3.072v-8.396H76.92v8.807
		c0,1.557,0.326,2.86,1.388,3.894c0.821,0.779,1.982,1.246,3.398,1.246c1.388,0,2.718-0.51,3.667-1.543v1.388h2.718V84.879h-2.775
		V93.261L85.315,93.261z"/>
	<path fill="#ABABAB" d="M93.513,94.677V79.301h-2.775v15.532c0,2.039,1.147,3.809,3.78,3.809h1.713v-2.364h-1.218
		C93.896,96.277,93.513,95.739,93.513,94.677L93.513,94.677z"/>
	<path fill="#ABABAB" d="M99.8,90.628c0.028-0.835,0.085-1.246,0.354-1.869c0.439-1.034,1.444-1.741,2.747-1.741
		c1.303,0,2.28,0.708,2.718,1.741c0.269,0.623,0.354,1.034,0.382,1.869H99.8L99.8,90.628z M102.9,84.709
		c-3.525,0-5.833,2.577-5.833,7.037c0,5.239,2.747,7.065,6.201,7.065c2.421,0,3.752-0.736,5.154-2.152l-1.784-1.657
		c-0.977,0.977-1.798,1.416-3.341,1.416c-2.251,0-3.511-1.487-3.511-3.851h8.934V91.35C108.734,87.428,106.596,84.709,102.9,84.709
		L102.9,84.709z"/>
	<path fill="#ABABAB" d="M122.411,89.155c-0.821-0.736-1.826-1.175-3.61-1.444l-2.195-0.326c-0.892-0.142-1.685-0.467-2.166-0.892
		c-0.51-0.467-0.736-1.09-0.736-1.798c0-1.713,1.246-3.016,3.525-3.016c1.628,0,3.016,0.354,4.205,1.487l1.869-1.841
		c-1.657-1.529-3.441-2.195-6.003-2.195c-4.021,0-6.47,2.308-6.47,5.678c0,1.572,0.467,2.803,1.416,3.695
		c0.835,0.793,2.095,1.331,3.667,1.543l2.28,0.326c1.147,0.156,1.628,0.354,2.124,0.821c0.51,0.453,0.765,1.175,0.765,2.011
		c0,1.869-1.472,2.959-3.993,2.959c-1.982,0-3.525-0.439-4.941-1.841l-1.954,1.926c1.841,1.869,3.936,2.549,6.853,2.549
		c4.049,0,6.952-2.124,6.952-5.678C123.982,91.477,123.473,90.09,122.411,89.155L122.411,89.155z"/>
	<path fill="#ABABAB" d="M133.341,95.526c-0.51,0.51-1.218,0.807-2.039,0.807c-0.821,0-1.501-0.297-2.01-0.807
		c-0.85-0.835-0.949-2.28-0.949-3.78s0.113-2.931,0.949-3.78c0.51-0.51,1.189-0.793,2.01-0.793c0.807,0,1.515,0.269,2.039,0.793
		c0.835,0.835,0.949,2.28,0.949,3.78C134.29,93.233,134.176,94.677,133.341,95.526L133.341,95.526z M131.302,84.709
		c-1.869,0-3.2,0.708-4.106,1.628c-1.303,1.359-1.628,3.101-1.628,5.409c0,2.336,0.326,4.078,1.628,5.437
		c0.892,0.92,2.223,1.628,4.106,1.628c1.869,0,3.228-0.708,4.134-1.628c1.303-1.359,1.628-3.101,1.628-5.437
		c0-2.308-0.326-4.049-1.628-5.409C134.53,85.417,133.171,84.709,131.302,84.709L131.302,84.709z"/>
	<path fill="#ABABAB" d="M139.854,82.996v2.124h-1.572v2.124h1.572v11.412h2.775V87.244h2.747V85.12h-2.747v-1.982
		c0-1.005,0.481-1.6,1.515-1.6h1.218v-2.379h-1.742C141.058,79.159,139.854,81.014,139.854,82.996L139.854,82.996z"/>
	<path fill="#ABABAB" d="M151.436,80.929h-2.775v4.177h-1.572v2.124h1.572v7.575c0,1.982,1.189,3.837,3.78,3.837h1.657v-2.364
		h-1.147c-1.034,0-1.515-0.595-1.515-1.6V87.23h2.662v-2.124h-2.662V80.929L151.436,80.929z"/>
</g>
</svg>
