<?xml version="1.0" encoding="utf-8"?>
<!-- Generator: Adobe Illustrator 17.0.0, SVG Export Plug-In . SVG Version: 6.00 Build 0)  -->
<!DOCTYPE svg PUBLIC "-//W3C//DTD SVG 1.1//EN" "http://www.w3.org/Graphics/SVG/1.1/DTD/svg11.dtd">
<svg version="1.1" id="Layer_1" xmlns="http://www.w3.org/2000/svg" xmlns:xlink="http://www.w3.org/1999/xlink" x="0px" y="0px"
	 width="159px" height="159px" viewBox="0 0 159 159" enable-background="new 0 0 159 159" xml:space="preserve">
<path fill="#ABABAB" d="M104.265,67.687c4.094,4.592,4.522,18.223,14.818,12.806c6.183-3.265,6.098-17.04-2.144-21.997
	c-6.67-3.953-10.343,1.377-12.752,7.907c-0.183,0.51-0.206,1.02,0.082,1.288"/>
<path fill="#ABABAB" d="M88.28,65.512c-4.304,3.564-7.249,13.331-15.176,10.016c-6.382-3.249-7.004-15.919,4.004-21.791
	c7.681-3.529,11.58,3.463,11.631,10.895c-0.055,0.336-0.221,0.644-0.471,0.876"/>
<path fill="#ABABAB" d="M98.895,90.447c4.249-0.44,3.292-4.382,0.074-5.378c-3.363-0.914-6.835-1.367-10.32-1.346
	c-5.475,0.125-5.335,4.28-2.494,5.004c2.14,0.724,3.537,1,5.393,3.385c1.7,3.292,0.942-0.981,7.343-1.662"/>
<path fill="#ABABAB" d="M118.939,19.934c5.343-8.891,14.619-7.168,19.285-2.724c5.117,4.806,5.954,10.358,3.969,14.269
	c-2.681,5.238-9.495,11.608-13.942,5.448c-1.946-2.724-6.14-5.977-8.409-6.915c-3.502-1.467-4.16-4.634-0.903-10.074"/>
<path fill="#ABABAB" d="M99.257,99.696c-2.335,6.164-14.398,4.051-14.787-1.907c0-0.23,0.315-0.183,0.459-0.163
	c5.389,1.276,10.475,1.864,13.958,1.852c0.125,0,0.389-0.074,0.35,0.218 M140.185,59.107c-0.483-1.556-1.261-1.49-1.234-0.179
	c0.432,16.187-9.234,33.535-29.931,33.655c-5.284,0-3.697,8.491-13.351,4.23c-6.969-4.704-10.938,4.553-15.903-5.409
	c-1.082-2.864-2.724-4.012-4.817-4.525c-20.437-5.059-26.951-33.188-8.95-55.905c3.568,2.14,4.872,2.459,8.677-1.02
	c1.969-1.837,5.296-3.856,7.109-4.529c4.339-1.658,6.681-3.502,2.946-11.759C79.91,2.941,70.08,5.968,65.574,9.68
	c-5.059,4.191-8.642,10.938-2.093,18.896C45.165,40.919,42.036,56.091,42.468,69.259c0.428,14.036-3.167,12.841,1.311,27.114
	c0.389,1.245-0.49,1.214-1.167,0.813c-19.067-12.218-29.39-49.469,0.346-69.995c0.673-0.615,0.389-1.385-2.047,0.043
	c-25.74,13.604-28.102,39.978-23.842,57.73c2.093,8.607-1.082,10.195,2.253,21.487c7.662,23.542,14.195,25.417,23.417,26.11
	c16.791,0,5.405-9.269,6.02-20.9c0-0.681,0.833-1.008,1.304,0.389c9.238,20.725,15.771,39.601,40.08,37.834
	c14.059-1.841,6.261-8.821,5.409-12.779c-10.351-34.324,14.748-42.414,7.646-8.95c-4.693,19.168,10.117,17.246,20.569,10.374
	c10.767-7.07,24.235-53.738,16.437-79.416"/>
</svg>
