<?xml version="1.0" encoding="utf-8"?>
<!-- Generator: Adobe Illustrator 17.0.0, SVG Export Plug-In . SVG Version: 6.00 Build 0)  -->
<!DOCTYPE svg PUBLIC "-//W3C//DTD SVG 1.1//EN" "http://www.w3.org/Graphics/SVG/1.1/DTD/svg11.dtd">
<svg version="1.1" id="Layer_1" xmlns="http://www.w3.org/2000/svg" xmlns:xlink="http://www.w3.org/1999/xlink" x="0px" y="0px"
	 width="159px" height="159px" viewBox="0 0 159 159" enable-background="new 0 0 159 159" xml:space="preserve">
<g>
	<path fill="#ABABAB" d="M53.223,69.897c0,0-0.325,2.546-0.394,2.803h-7.986c-2.764,0-2.302-2.235-2.302-2.235l0.335-2.077h8.283
		C53.439,68.386,53.223,69.897,53.223,69.897"/>
	<path fill="#ABABAB" d="M50.03,94.905h-6.92c-2.273,0-3.255-1.694-3.238-3.075c0.046,0,2.277-16.922,2.277-16.922l8.3,0.125
		c0,0,2.176,0.163,1.883,2.817C52.258,78.662,50.037,94.625,50.03,94.905"/>
	<path fill="#ABABAB" d="M61.169,74.904h31.882c1.761,0,7.275,0.624,6.561,6.088c-0.733,5.598-1.892,13.911-1.892,13.911h-6.703
		c0,0-3.116-0.324-2.764-2.976c0.299-2.171,1.09-8.788,1.303-10.477c0.223-1.826-1.817-1.673-1.817-1.673h-2.57l-1.894,15.126
		h-6.373h-0.031c0,0-3.616,0.268-3.264-2.767c0.355-3.025,1.047-8.206,1.228-10.155c0.203-2.192-1.751-2.148-1.751-2.148
		l-2.531-0.056l-1.892,15.126H58.473L61.169,74.904z"/>
	<path fill="#ABABAB" d="M23.929,82.525h-7.078l0.513-3.977c0,0,4.927-0.161,5.671,0.617c0.05,0,0.895,0.537,0.895,1.611
		C23.953,80.776,23.929,82.525,23.929,82.525 M26.75,87.17v-0.029c0,0,3.264-0.306,4.972-1.395c1.715-1.092,2.203-3.468,2.203-5.662
		c-0.034-1.74-0.395-6.013-9.824-6.013H7.069L4.372,94.873c0,0,7.05,0.018,10.573,0.031c0.008-0.018,1.098-9.018,1.111-9.159
		c0.039,0,4.671,7.109,4.671,7.109s1.378,2.05,4.972,2.05h8.54C34.24,94.905,26.75,87.193,26.75,87.17"/>
	<path fill="#ABABAB" d="M119.507,69.856c0,0-0.325,2.548-0.394,2.806h-7.98c-2.767,0-2.308-2.238-2.308-2.238l0.337-2.082h8.286
		C119.724,68.342,119.507,69.856,119.507,69.856"/>
	<path fill="#ABABAB" d="M116.32,94.866h-6.926c-2.272,0-3.245-1.692-3.236-3.075c0.05,0,2.273-16.928,2.273-16.928l8.3,0.128
		c0,0,2.182,0.158,1.887,2.817C118.545,78.617,116.324,94.58,116.32,94.866"/>
	<path fill="#ABABAB" d="M132.141,64.678c0,0,5.291-1.903,8.702-1.283c3.413,0.617,5.157,3.4,3.452,9.584
		c-1.704,6.188-7.442,18.104-13.91,22.751C130.385,95.73,140.759,72.672,132.141,64.678"/>
	<path fill="#ABABAB" d="M145.67,67.245c0,0,4.724-1.391,7.578-0.638c2.859,0.75,3.163,3.186,2.646,5.136
		c-0.522,1.949-4.424,14.108-19.839,21.018C136.053,92.76,152.184,72.053,145.67,67.245"/>
</g>
</svg>
