<?xml version="1.0" encoding="utf-8"?>
<!-- Generator: Adobe Illustrator 17.0.0, SVG Export Plug-In . SVG Version: 6.00 Build 0)  -->
<!DOCTYPE svg PUBLIC "-//W3C//DTD SVG 1.1//EN" "http://www.w3.org/Graphics/SVG/1.1/DTD/svg11.dtd">
<svg version="1.1" id="Layer_1" xmlns="http://www.w3.org/2000/svg" xmlns:xlink="http://www.w3.org/1999/xlink" x="0px" y="0px"
	 width="159px" height="159px" viewBox="0 0 159 159" enable-background="new 0 0 159 159" xml:space="preserve">
<path fill="#ABABAB" d="M139.466,130.315H18.319c-9.347-0.044-16.913-7.61-16.956-16.956V56.425
	C1.4,47.074,8.968,39.501,18.319,39.458h121.942c9.347,0,17.376,7.609,17.376,16.968v56.933c0,9.358-8.211,16.956-17.57,16.956
	 M18.319,41.275C10.078,41.155,3.3,47.738,3.18,55.979c-0.002,0.149-0.002,0.298,0,0.446v56.933
	c-0.12,8.241,6.463,15.019,14.704,15.139c0.145,0.002,0.29,0.002,0.435,0h121.942c8.435,0.157,15.4-6.553,15.557-14.988
	c0.001-0.05,0.002-0.101,0.002-0.151V56.425c-0.068-8.436-6.961-15.22-15.397-15.153c-0.054,0-0.108,0.001-0.162,0.002H18.319z"/>
<path fill="#ABABAB" d="M79.08,56.051c2.07,0,3.748-1.678,3.748-3.748s-1.678-3.748-3.748-3.748c-2.07,0-3.748,1.678-3.748,3.748
	C75.332,54.373,77.01,56.051,79.08,56.051L79.08,56.051"/>
<path fill="#ABABAB" d="M14.446,90.565c0.068-0.443,0.136-1.215,0.886-1.215c2.453,0-0.341,6.814,8.927,6.814
	c4.02,0,8.313-1.136,8.313-4.622c0-3.214-3.271-4.441-6.542-5.326c-4.225-1.136-10.426-2.499-10.426-6.985
	c0-2.158,1.431-3.884,3.612-5.156c2.464-1.338,5.239-1.996,8.041-1.908c2.369,0.032,4.725,0.348,7.019,0.943
	c1.136,0.443,0.75,1.669,0.75,2.499c0,0.329,0.477,2.714-0.681,2.714c-1.704,0-0.954-4.441-8.313-4.441
	c-2.794,0-6.167,0.784-6.167,3.328c0,6.485,16.934,3.543,16.934,12.584c0,5.326-7.155,8.098-12.947,8.098
	c-2.955-0.078-5.877-0.634-8.654-1.647c-1.136-0.386-0.954-1.136-0.954-1.999L14.446,90.565"/>
<path fill="#ABABAB" d="M63.748,77.402c-2.112-1.749-5.247-2.067-8.313-2.067c-2.794,0-5.883,0.761-7.587,2.646
	c-1.136,0.965-1.045,2.34-1.045,3.509v7.939c0,1.828,0.091,3.657,2.067,4.986c1.801,0.98,3.821,1.488,5.872,1.476
	c7.836,0,12.652-4.804,12.652-10.471c0.04-3.06-1.294-5.978-3.634-7.95 M41.34,81.15c0-0.772,0.329-2.714-0.42-3.316
	c-0.409-0.386-1.136-0.216-1.715-0.216h-0.886c-0.412,0.017-0.772-0.275-0.84-0.681c0-0.67,0.954-0.886,1.567-1.056
	c2.069-0.596,3.999-1.596,5.679-2.942c0.341-0.284,0.795-0.75,1.34-0.75s0.727,0.477,0.727,0.863v3.044
	c3.319-2.396,7.267-3.767,11.357-3.941c3.752,0.085,7.36,1.457,10.221,3.884c2.598,2.169,4.11,5.372,4.134,8.756
	c0,7.655-7.507,13.14-17.036,13.083c-2.315-0.038-4.612-0.421-6.814-1.136c-0.479-0.123-0.964-0.217-1.454-0.284
	c-0.818,0-0.443,1.329-0.443,1.658v17.036c0,2.385-0.727,4.27,2.953,4.543c0.681,0,1.851,0,1.851,0.715
	c0,0.443-0.375,0.613-0.852,0.613c-2.181,0-4.373-0.227-6.417-0.227s-4.372,0.227-6.485,0.227c-0.477,0-0.954-0.114-0.954-0.556
	c0-0.829,0.897-0.715,1.647-0.772c3.68-0.273,2.805-2.158,2.805-4.543L41.34,81.15z"/>
<path fill="#ABABAB" d="M81.317,91.576c0,2.385-0.318,4.27,3.407,4.543c0.681,0,2.056,0,2.056,0.715
	c0,0.443-0.261,0.613-0.738,0.613c-2.181,0-4.327-0.227-6.371-0.227s-4.338,0.227-6.451,0.227c-0.477,0-0.943-0.114-0.943-0.557
	c0-0.829,1.408-0.727,2.158-0.772c3.68-0.273,3.316-2.158,3.316-4.543V81.15c0-0.772-0.17-2.714-0.92-3.316
	c-0.409-0.386-1.67-0.216-2.271-0.216h-0.886c-0.4,0.007-0.746-0.277-0.818-0.67c0-0.67,0.954-0.886,1.567-1.056
	c2.069-0.596,3.999-1.596,5.679-2.942c0.341-0.284,0.386-0.75,0.931-0.75c0.545,0,0.318,0.466,0.318,0.863v19.091"/>
<path fill="#ABABAB" d="M101.079,97.89c-8.382,0-15.264-5.679-15.264-12.357c0-7.484,8.586-13.356,17.717-13.356
	c2.895-0.023,5.759,0.601,8.382,1.828c0.886,0.5,0.545,1.715,0.545,2.442c-0.023,0.488,0.432,2.76-0.795,2.76
	c-2.181,0-3.407-5.497-8.927-5.497c-2.614,0.138-5.145,0.965-7.337,2.396c-2.847,1.793-4.542,4.95-4.463,8.313
	c0,0,0.273,9.903,10.471,11.198c6.008,0.761,9.177-3.021,10.698-2.919c0.37-0.019,0.685,0.265,0.704,0.635
	c0,0.004,0,0.008,0.001,0.013c0,0.909-2.271,2.067-2.805,2.362C107.268,97.197,104.193,97.948,101.079,97.89"/>
<path fill="#ABABAB" d="M127.756,83.069c2.743,0.09,5.488,0.018,8.223-0.216c1.579-0.25,2.669-0.999,2.737-2.646
	c-0.126-1.694-0.822-3.296-1.976-4.543c-1.683-1.491-3.887-2.259-6.133-2.135c-3.572-0.117-6.986,1.478-9.188,4.293
	c-0.921,1.285-1.531,2.766-1.783,4.327c0,1.136,1.624,0.943,2.408,0.943h6.542 M119.818,86.806
	c1.374,4.804,5.963,8.586,12.788,8.586c6.053,0,8.279-3.759,9.813-3.793c0.374-0.046,0.713,0.22,0.759,0.594
	c0.001,0.006,0.001,0.013,0.002,0.019c0,0.909-2.124,2.271-2.589,2.589c-3.159,2.172-6.936,3.264-10.767,3.112
	c-8.927,0-15.537-5.815-15.537-12.743c-0.151-3.744,1.723-7.279,4.906-9.256c3.597-2.495,7.889-3.794,12.266-3.714
	c3.68,0,7.507,1.238,9.824,3.691c2.033,2.158,2.805,6.428,2.805,8.268c0,0.443-0.136,0.761-0.818,0.761h-20.681
	c-2.453,0-3.146,0.114-2.794,1.897"/>
<path fill="#ABABAB" d="M79.08,68.271c2.07,0,3.748-1.678,3.748-3.748c0-2.07-1.678-3.748-3.748-3.748
	c-2.07,0-3.748,1.678-3.748,3.748C75.332,66.593,77.01,68.271,79.08,68.271L79.08,68.271"/>
</svg>
